Russolo-24ptExtraBold.ufo
<glyph name="exclam" format="2">
  <advance width="583.1"/>
  <unicode hex="0021"/>
  <note>
exclam
</note>
  <outline>
    <contour>
      <point x="232.7" y="378.0" type="curve"/>
      <point x="350.7" y="378.0" type="line"/>
      <point x="346.8" y="773.5"/>
      <point x="454.9" y="1070.7"/>
      <point x="454.9" y="1213.8" type="curve" smooth="yes"/>
      <point x="454.9" y="1298.2"/>
      <point x="325.7" y="1304.7"/>
      <point x="354.9" y="1473.7" type="curve"/>
      <point x="228.5" y="1473.7" type="line"/>
      <point x="257.7" y="1305.0"/>
      <point x="128.2" y="1298.2"/>
      <point x="128.2" y="1213.8" type="curve" smooth="yes"/>
      <point x="128.2" y="1070.4"/>
      <point x="236.6" y="773.5"/>
    </contour>
    <contour>
      <point x="291.7" y="-27.0" type="curve" smooth="yes"/>
      <point x="378.0" y="-27.0"/>
      <point x="443.6" y="38.6"/>
      <point x="443.6" y="124.9" type="curve" smooth="yes"/>
      <point x="443.6" y="210.5"/>
      <point x="378.0" y="276.1"/>
      <point x="291.7" y="276.1" type="curve" smooth="yes"/>
      <point x="205.4" y="276.1"/>
      <point x="139.8" y="210.5"/>
      <point x="139.8" y="124.9" type="curve" smooth="yes"/>
      <point x="139.8" y="38.6"/>
      <point x="205.4" y="-27.0"/>
    </contour>
  </outline>
</glyph>
<glyph name="quotedbl" format="2">
  <advance width="823.4"/>
  <unicode hex="0022"/>
  <note>
quotedbl
</note>
  <outline>
    <contour>
      <point x="493.7" y="814.4" type="line"/>
      <point x="673.0" y="814.4" type="line"/>
      <point x="694.8" y="1368.7" type="line"/>
      <point x="476.5" y="1368.7" type="line"/>
    </contour>
    <contour>
      <point x="147.1" y="814.4" type="line"/>
      <point x="325.8" y="814.4" type="line"/>
      <point x="347.9" y="1368.7" type="line"/>
      <point x="129.6" y="1368.7" type="line"/>
    </contour>
  </outline>
</glyph>
<glyph name="numbersign" format="2">
  <advance width="1476.6"/>
  <unicode hex="0023"/>
  <note>
numbersign
</note>
  <outline>
    <contour>
      <point x="740.7" y="-1.0" type="line"/>
      <point x="975.0" y="-1.0" type="line"/>
      <point x="1281.7" y="1442.6" type="line"/>
      <point x="1047.4" y="1442.6" type="line"/>
    </contour>
    <contour>
      <point x="103.1" y="454.7" type="line"/>
      <point x="1311.9" y="454.7" type="line"/>
      <point x="1311.9" y="562.8" type="line"/>
      <point x="103.1" y="562.8" type="line"/>
    </contour>
    <contour>
      <point x="180.10000000000002" y="-1.0" type="line"/>
      <point x="414.7" y="-1.0" type="line"/>
      <point x="723.0" y="1442.6" type="line"/>
      <point x="488.4" y="1442.6" type="line"/>
    </contour>
    <contour>
      <point x="165.8" y="893.9" type="line"/>
      <point x="1375.6" y="893.9" type="line"/>
      <point x="1375.6" y="1002.6" type="line"/>
      <point x="165.8" y="1002.6" type="line"/>
    </contour>
  </outline>
</glyph>
<glyph name="percent" format="2">
  <advance width="1590.9"/>
  <unicode hex="0025"/>
  <note>
percent
</note>
  <outline>
    <contour>
      <point x="203.1" y="-14.100000000000001" type="line"/>
      <point x="423.6" y="-14.100000000000001" type="line"/>
      <point x="1382.8" y="1441.7" type="line"/>
      <point x="1162.3" y="1441.7" type="line"/>
    </contour>
    <contour>
      <point x="1139.8" y="-35.3" type="curve" smooth="yes"/>
      <point x="1345.2" y="-35.3"/>
      <point x="1467.8" y="130.3"/>
      <point x="1467.8" y="361.2" type="curve" smooth="yes"/>
      <point x="1467.8" y="581.3"/>
      <point x="1337.6" y="758.3"/>
      <point x="1139.8" y="758.3" type="curve" smooth="yes"/>
      <point x="945.0" y="758.3"/>
      <point x="810.4" y="580.1"/>
      <point x="810.4" y="361.2" type="curve" smooth="yes"/>
      <point x="810.4" y="137.3"/>
      <point x="928.4" y="-35.3"/>
    </contour>
    <contour>
      <point x="1139.8" y="67.10000000000001" type="curve" smooth="yes"/>
      <point x="1095.6" y="67.10000000000001"/>
      <point x="1058.2" y="186.2"/>
      <point x="1058.2" y="361.2" type="curve" smooth="yes"/>
      <point x="1058.2" y="537.8"/>
      <point x="1094.9" y="655.3"/>
      <point x="1139.8" y="655.3" type="curve" smooth="yes"/>
      <point x="1183.3" y="655.3"/>
      <point x="1221.7" y="535.5"/>
      <point x="1221.7" y="361.2" type="curve" smooth="yes"/>
      <point x="1221.7" y="188.6"/>
      <point x="1183.6" y="67.10000000000001"/>
    </contour>
    <contour>
      <point x="454.1" y="665.8" type="curve" smooth="yes"/>
      <point x="659.5" y="665.8"/>
      <point x="782.1" y="831.4"/>
      <point x="782.1" y="1062.6" type="curve" smooth="yes"/>
      <point x="782.1" y="1281.8"/>
      <point x="651.6" y="1459.1"/>
      <point x="454.1" y="1459.1" type="curve" smooth="yes"/>
      <point x="258.7" y="1459.1"/>
      <point x="124.1" y="1281.2"/>
      <point x="124.1" y="1062.6" type="curve" smooth="yes"/>
      <point x="124.1" y="838.7"/>
      <point x="242.1" y="665.8"/>
    </contour>
    <contour>
      <point x="454.1" y="768.5" type="curve" smooth="yes"/>
      <point x="409.6" y="768.5"/>
      <point x="372.5" y="886.7"/>
      <point x="372.5" y="1062.6" type="curve" smooth="yes"/>
      <point x="372.5" y="1239.8"/>
      <point x="408.9" y="1356.7"/>
      <point x="454.1" y="1356.7" type="curve" smooth="yes"/>
      <point x="497.3" y="1356.7"/>
      <point x="535.7" y="1236.3"/>
      <point x="535.7" y="1062.6" type="curve" smooth="yes"/>
      <point x="535.7" y="890.6"/>
      <point x="497.3" y="768.5"/>
    </contour>
  </outline>
</glyph>
<glyph name="ampersand" format="2">
  <advance width="1542.8"/>
  <unicode hex="0026"/>
  <note>
ampersand
</note>
  <outline>
    <contour>
      <point x="681.0" y="-34.7" type="curve" smooth="yes"/>
      <point x="815.8" y="-34.7"/>
      <point x="934.5" y="-9.3"/>
      <point x="1006.3" y="35.900000000000006" type="curve"/>
      <point x="908.8" y="147.7" type="line"/>
      <point x="882.7" y="108.1"/>
      <point x="734.9" y="69.4"/>
      <point x="675.0" y="69.4" type="curve" smooth="yes"/>
      <point x="531.7" y="69.4"/>
      <point x="478.2" y="230.1"/>
      <point x="478.2" y="402.4" type="curve" smooth="yes"/>
      <point x="478.2" y="611.7"/>
      <point x="564.4" y="724.7"/>
      <point x="694.9" y="723.2" type="curve"/>
      <point x="700.4" y="831.6" type="line"/>
      <point x="612.7" y="828.3"/>
      <point x="556.8" y="941.0"/>
      <point x="556.8" y="1087.7" type="curve" smooth="yes"/>
      <point x="556.8" y="1250.8"/>
      <point x="629.9" y="1367.6"/>
      <point x="711.3" y="1367.6" type="curve" smooth="yes"/>
      <point x="926.1" y="1367.6" type="line"/>
      <point x="926.1" y="1471.7" type="line"/>
      <point x="707.3" y="1471.7" type="line" smooth="yes"/>
      <point x="390.0" y="1471.7"/>
      <point x="224.1" y="1353.4"/>
      <point x="224.1" y="1087.7" type="curve" smooth="yes"/>
      <point x="224.1" y="950.5"/>
      <point x="271.2" y="841.5"/>
      <point x="370.4" y="787.7" type="curve"/>
      <point x="220.2" y="726.9"/>
      <point x="124.9" y="568.8"/>
      <point x="124.9" y="396.4" type="curve" smooth="yes"/>
      <point x="124.9" y="124.4"/>
      <point x="356.2" y="-34.7"/>
    </contour>
    <contour>
      <point x="1156.3" y="-32.7" type="curve" smooth="yes"/>
      <point x="1285.6" y="-32.7"/>
      <point x="1372.8" y="-12.2"/>
      <point x="1426.7" y="17.900000000000002" type="curve"/>
      <point x="1426.7" y="177.7" type="line"/>
      <point x="1278.2" y="92.6"/>
      <point x="1257.2" y="79.4"/>
      <point x="1222.5" y="79.4" type="curve" smooth="yes"/>
      <point x="1200.7" y="79.4"/>
      <point x="1227.9" y="290.79999999999995"/>
      <point x="1227.9" y="488.1" type="curve" smooth="yes"/>
      <point x="1227.9" y="723.2" type="line"/>
      <point x="1369.4" y="723.2" type="line"/>
      <point x="1369.4" y="831.3" type="line"/>
      <point x="1227.9" y="831.3" type="line"/>
      <point x="1227.9" y="1146.1" type="line"/>
      <point x="1042.0" y="1146.1" type="line"/>
      <point x="1054.6" y="943.5"/>
      <point x="924.4" y="831.3"/>
      <point x="741.9" y="831.3" type="curve" smooth="yes"/>
      <point x="684.3" y="831.3" type="line"/>
      <point x="673.8" y="723.2" type="line"/>
      <point x="880.9" y="723.2" type="line"/>
      <point x="880.9" y="215.5" type="line" smooth="yes"/>
      <point x="880.9" y="64.5"/>
      <point x="990.1" y="-32.7"/>
    </contour>
  </outline>
</glyph>
<glyph name="quotesingle" format="2">
  <advance width="476.5"/>
  <unicode hex="0027"/>
  <note>
quotesingle
</note>
  <outline>
    <contour>
      <point x="147.1" y="814.4" type="line"/>
      <point x="325.8" y="814.4" type="line"/>
      <point x="347.9" y="1368.7" type="line"/>
      <point x="129.6" y="1368.7" type="line"/>
    </contour>
  </outline>
</glyph>
<glyph name="parenleft" format="2">
  <advance width="649.0"/>
  <unicode hex="0028"/>
  <note>
parenleft
</note>
  <outline>
    <contour>
      <point x="465.4" y="-415.7" type="curve"/>
      <point x="574.3" y="-365.8" type="line"/>
      <point x="419.5" y="-46.099999999999994"/>
      <point x="336.4" y="263.9"/>
      <point x="336.4" y="590.8" type="curve" smooth="yes"/>
      <point x="336.4" y="911.2"/>
      <point x="415.1" y="1210.5"/>
      <point x="574.0" y="1563.8" type="curve"/>
      <point x="463.4" y="1601.2" type="line"/>
      <point x="210.2" y="1288.0"/>
      <point x="92.9" y="968.7"/>
      <point x="92.9" y="601.4" type="curve" smooth="yes"/>
      <point x="92.9" y="241.9"/>
      <point x="205.6" y="-69.5"/>
    </contour>
  </outline>
</glyph>
<glyph name="parenright" format="2">
  <advance width="649.3"/>
  <unicode hex="0029"/>
  <note>
parenright
</note>
  <outline>
    <contour>
      <point x="183.9" y="-415.7" type="line"/>
      <point x="444.0" y="-69.5"/>
      <point x="556.4" y="241.9"/>
      <point x="556.4" y="601.4" type="curve" smooth="yes"/>
      <point x="556.4" y="968.4"/>
      <point x="438.8" y="1288.0"/>
      <point x="185.6" y="1601.2" type="curve"/>
      <point x="75.0" y="1563.8" type="line"/>
      <point x="234.2" y="1210.5"/>
      <point x="312.6" y="910.0"/>
      <point x="312.6" y="590.8" type="curve" smooth="yes"/>
      <point x="312.6" y="263.3"/>
      <point x="229.2" y="-47.0"/>
      <point x="74.69999999999999" y="-365.8" type="curve"/>
    </contour>
  </outline>
</glyph>
<glyph name="asterisk" format="2">
  <advance width="862.4"/>
  <unicode hex="002A"/>
  <note>
asterisk
</note>
  <outline>
    <contour>
      <point x="446.3" y="1118.5" type="line"/>
      <point x="589.4" y="1201.3"/>
      <point x="637.2" y="1175.3"/>
      <point x="698.7" y="1211.3" type="curve" smooth="yes"/>
      <point x="725.4" y="1226.8"/>
      <point x="706.6" y="1262.1"/>
      <point x="743.9" y="1284.2" type="curve"/>
      <point x="709.1" y="1344.8" type="line"/>
      <point x="671.8" y="1323.4"/>
      <point x="638.6" y="1348.3"/>
      <point x="624.5" y="1339.5" type="curve" smooth="yes"/>
      <point x="563.0" y="1303.5"/>
      <point x="559.9" y="1251.8"/>
      <point x="417.1" y="1169.3" type="curve"/>
    </contour>
    <contour>
      <point x="153.6" y="943.0" type="line"/>
      <point x="190.9" y="964.4"/>
      <point x="227.2" y="938.6"/>
      <point x="239.20000000000002" y="946.0" type="curve" smooth="yes"/>
      <point x="301.4" y="981.3"/>
      <point x="303.2" y="1036.0"/>
      <point x="446.3" y="1118.5" type="curve"/>
      <point x="417.1" y="1169.3" type="line"/>
      <point x="274.0" y="1086.5"/>
      <point x="213.20000000000002" y="1101.8"/>
      <point x="165.0" y="1074.2" type="curve" smooth="yes"/>
      <point x="139.0" y="1058.7"/>
      <point x="155.8" y="1025.0"/>
      <point x="118.5" y="1003.6" type="curve"/>
    </contour>
    <contour>
      <point x="396.1" y="801.9" type="curve"/>
      <point x="466.0" y="801.9" type="line"/>
      <point x="466.0" y="844.7"/>
      <point x="506.4" y="854.9"/>
      <point x="506.4" y="877.1" type="curve" smooth="yes"/>
      <point x="506.4" y="940.0"/>
      <point x="459.7" y="977.1"/>
      <point x="459.7" y="1142.4" type="curve"/>
      <point x="401.7" y="1142.4" type="line"/>
      <point x="401.7" y="977.1"/>
      <point x="358.0" y="940.0"/>
      <point x="358.0" y="877.1" type="curve" smooth="yes"/>
      <point x="358.0" y="854.9"/>
      <point x="396.1" y="844.7"/>
    </contour>
    <contour>
      <point x="417.5" y="1118.5" type="curve"/>
      <point x="446.3" y="1168.3" type="line"/>
      <point x="303.2" y="1251.1"/>
      <point x="293.1" y="1307.7"/>
      <point x="238.9" y="1338.8" type="curve" smooth="yes"/>
      <point x="228.7" y="1344.8"/>
      <point x="191.3" y="1322.4"/>
      <point x="154.0" y="1343.8" type="curve"/>
      <point x="119.2" y="1283.5" type="line"/>
      <point x="156.5" y="1262.1"/>
      <point x="144.7" y="1221.9"/>
      <point x="164.7" y="1210.6" type="curve" smooth="yes"/>
      <point x="218.9" y="1179.5"/>
      <point x="274.4" y="1201.0"/>
    </contour>
    <contour>
      <point x="623.9" y="945.3" type="curve" smooth="yes"/>
      <point x="639.7" y="935.8"/>
      <point x="672.5" y="964.4"/>
      <point x="709.5" y="943.0" type="curve"/>
      <point x="744.6" y="1003.3" type="line"/>
      <point x="707.3" y="1024.7"/>
      <point x="710.4" y="1067.1"/>
      <point x="698.1" y="1074.2" type="curve" smooth="yes"/>
      <point x="636.2" y="1109.5"/>
      <point x="589.4" y="1085.8"/>
      <point x="446.3" y="1168.3" type="curve"/>
      <point x="417.5" y="1118.5" type="line"/>
      <point x="559.9" y="1035.7"/>
      <point x="569.0" y="977.1"/>
    </contour>
    <contour>
      <point x="401.7" y="1142.4" type="curve"/>
      <point x="459.7" y="1142.4" type="line"/>
      <point x="459.7" y="1307.7"/>
      <point x="506.4" y="1344.8"/>
      <point x="506.4" y="1407.7" type="curve" smooth="yes"/>
      <point x="506.4" y="1430.6"/>
      <point x="466.0" y="1440.8"/>
      <point x="466.0" y="1483.6" type="curve"/>
      <point x="396.1" y="1483.6" type="line"/>
      <point x="396.1" y="1440.8"/>
      <point x="358.0" y="1430.6"/>
      <point x="358.0" y="1407.7" type="curve" smooth="yes"/>
      <point x="358.0" y="1344.8"/>
      <point x="401.7" y="1307.7"/>
    </contour>
  </outline>
</glyph>
<glyph name="plus" format="2">
  <advance width="1118.0"/>
  <unicode hex="002B"/>
  <note>
plus
</note>
  <outline>
    <contour>
      <point x="127.3" y="544.5" type="line"/>
      <point x="990.7" y="544.5" type="line"/>
      <point x="990.7" y="790.9" type="line"/>
      <point x="127.3" y="790.9" type="line"/>
    </contour>
    <contour>
      <point x="451.1" y="236.0" type="line"/>
      <point x="666.6" y="236.0" type="line"/>
      <point x="666.6" y="1099.4" type="line"/>
      <point x="451.1" y="1099.4" type="line"/>
    </contour>
  </outline>
</glyph>
<glyph name="comma" format="2">
  <advance width="645.0"/>
  <unicode hex="002C"/>
  <note>
comma
</note>
  <outline>
    <contour>
      <point x="125.4" y="-197.4" type="curve"/>
      <point x="367.6" y="-197.4" type="line"/>
      <point x="439.4" y="-67.8"/>
      <point x="499.9" y="82.2"/>
      <point x="525.8" y="185.20000000000002" type="curve"/>
      <point x="244.2" y="185.20000000000002" type="line"/>
      <point x="197.2" y="82.4"/>
      <point x="141.9" y="-92.0"/>
    </contour>
  </outline>
</glyph>
<glyph name="hyphen" format="2">
  <advance width="813.9"/>
  <unicode hex="002D"/>
  <note>
hyphen
</note>
  <outline>
    <contour>
      <point x="69.4" y="432.0" type="line"/>
      <point x="673.0" y="432.0" type="line"/>
      <point x="751.5" y="643.7" type="line"/>
      <point x="147.3" y="643.7" type="line"/>
    </contour>
  </outline>
</glyph>
<glyph name="period" format="2">
  <advance width="642.4"/>
  <unicode hex="002E"/>
  <note>
period
</note>
  <outline>
    <contour>
      <point x="321.20000000000005" y="-27.0" type="curve" smooth="yes"/>
      <point x="423.6" y="-27.0"/>
      <point x="502.5" y="51.9"/>
      <point x="502.5" y="154.3" type="curve" smooth="yes"/>
      <point x="502.5" y="256.70000000000005"/>
      <point x="423.6" y="335.6"/>
      <point x="321.20000000000005" y="335.6" type="curve" smooth="yes"/>
      <point x="218.8" y="335.6"/>
      <point x="139.9" y="256.7"/>
      <point x="139.9" y="154.3" type="curve" smooth="yes"/>
      <point x="139.9" y="51.9"/>
      <point x="218.8" y="-27.0"/>
    </contour>
  </outline>
</glyph>
<glyph name="slash" format="2">
  <advance width="763.5"/>
  <unicode hex="002F"/>
  <note>
slash
</note>
  <outline>
    <contour>
      <point x="41.300000000000004" y="-408.2" type="line"/>
      <point x="224.6" y="-408.2" type="line"/>
      <point x="722.2" y="1506.5" type="line"/>
      <point x="538.9" y="1506.5" type="line"/>
    </contour>
  </outline>
</glyph>
<glyph name="zero" format="2">
  <advance width="1463.7"/>
  <unicode hex="0030"/>
  <note>
zero
</note>
  <anchor x="714.7" y="716.8" name="center"/>
  <outline>
    <contour>
      <point x="731.7" y="-35.1" type="curve" smooth="yes"/>
      <point x="1112.9" y="-35.1"/>
      <point x="1379.9" y="306.3"/>
      <point x="1379.9" y="716.8" type="curve" smooth="yes"/>
      <point x="1379.9" y="1097.2"/>
      <point x="1094.3" y="1472.0"/>
      <point x="731.7" y="1472.0" type="curve" smooth="yes"/>
      <point x="371.4" y="1472.0"/>
      <point x="83.8" y="1107.5"/>
      <point x="83.8" y="716.8" type="curve" smooth="yes"/>
      <point x="83.8" y="318.1"/>
      <point x="352.9" y="-35.1"/>
    </contour>
    <contour>
      <point x="731.7" y="72.0" type="curve" smooth="yes"/>
      <point x="586.0" y="72.0"/>
      <point x="435.1" y="321.6"/>
      <point x="435.1" y="716.8" type="curve" smooth="yes"/>
      <point x="435.1" y="1110.6"/>
      <point x="584.6" y="1364.6"/>
      <point x="731.7" y="1364.6" type="curve" smooth="yes"/>
      <point x="878.1" y="1364.6"/>
      <point x="1028.9" y="1109.3"/>
      <point x="1028.9" y="716.8" type="curve" smooth="yes"/>
      <point x="1028.9" y="325.3"/>
      <point x="879.1" y="72.0"/>
    </contour>
  </outline>
</glyph>
<glyph name="one" format="2">
  <advance width="752.5"/>
  <unicode hex="0031"/>
  <note>
one
</note>
  <outline>
    <contour>
      <point x="263.7" y="0.0" type="line"/>
      <point x="596.7" y="0.0" type="line"/>
      <point x="596.7" y="1427.7" type="line"/>
      <point x="430.6" y="1427.7" type="line"/>
      <point x="44.7" y="896.6" type="line"/>
      <point x="143.3" y="826.4" type="line"/>
      <point x="303.8" y="1023.5" type="line"/>
      <point x="263.7" y="1050.5" type="line"/>
    </contour>
  </outline>
</glyph>
<glyph name="two" format="2">
  <advance width="1238.1"/>
  <unicode hex="0032"/>
  <note>
two
</note>
  <outline>
    <contour>
      <point x="60.1" y="0.0" type="line"/>
      <point x="1132.6" y="0.0" type="line"/>
      <point x="1132.6" y="223.3" type="line"/>
      <point x="367.0" y="223.3" type="line"/>
      <point x="354.4" y="153.4" type="line"/>
      <point x="633.2" y="354.7"/>
      <point x="812.5" y="504.5"/>
      <point x="914.2" y="611.4" type="curve" smooth="yes"/>
      <point x="1014.7" y="715.9"/>
      <point x="1136.2" y="826.0"/>
      <point x="1136.2" y="1019.2" type="curve" smooth="yes"/>
      <point x="1136.2" y="1315.4"/>
      <point x="951.8" y="1471.7"/>
      <point x="641.6" y="1471.7" type="curve" smooth="yes"/>
      <point x="322.5" y="1471.7"/>
      <point x="118.80000000000001" y="1294.7"/>
      <point x="118.80000000000001" y="1048.1" type="curve" smooth="yes"/>
      <point x="118.80000000000001" y="1038.6"/>
      <point x="119.4" y="1016.6"/>
      <point x="125.5" y="977.7" type="curve"/>
      <point x="433.20000000000005" y="984.0" type="line"/>
      <point x="433.20000000000005" y="1030.0" type="line" smooth="yes"/>
      <point x="433.20000000000005" y="1190.3"/>
      <point x="500.1" y="1382.6"/>
      <point x="623.0" y="1382.6" type="curve" smooth="yes"/>
      <point x="714.3" y="1382.6"/>
      <point x="810.5" y="1285.9"/>
      <point x="810.5" y="1102.9" type="curve" smooth="yes"/>
      <point x="810.5" y="889.7"/>
      <point x="678.6" y="638.9"/>
      <point x="471.5" y="425.1" type="curve" smooth="yes"/>
    </contour>
  </outline>
</glyph>
<glyph name="three" format="2">
  <advance width="1224.2"/>
  <unicode hex="0033"/>
  <note>
three
</note>
  <outline>
    <contour>
      <point x="581.0" y="-24.5" type="curve" smooth="yes"/>
      <point x="910.4" y="-24.5"/>
      <point x="1136.8" y="129.3"/>
      <point x="1136.8" y="394.5" type="curve" smooth="yes"/>
      <point x="1136.8" y="596.4"/>
      <point x="1003.8" y="730.5"/>
      <point x="796.1" y="784.5" type="curve"/>
      <point x="795.4000000000001" y="727.4" type="line"/>
      <point x="983.1" y="772.1"/>
      <point x="1098.2" y="917.8"/>
      <point x="1098.2" y="1094.7" type="curve" smooth="yes"/>
      <point x="1098.2" y="1323.4"/>
      <point x="913.8" y="1472.0"/>
      <point x="615.3" y="1472.0" type="curve" smooth="yes"/>
      <point x="298.6" y="1472.0"/>
      <point x="105.9" y="1303.2"/>
      <point x="101.4" y="1065.8" type="curve"/>
      <point x="392.70000000000005" y="1069.4" type="line"/>
      <point x="395.2" y="1191.5"/>
      <point x="465.8" y="1381.5"/>
      <point x="611.0" y="1381.5" type="curve" smooth="yes"/>
      <point x="730.1" y="1381.5"/>
      <point x="795.4" y="1248.6"/>
      <point x="795.4" y="1080.3" type="curve" smooth="yes"/>
      <point x="795.4" y="890.8"/>
      <point x="708.1" y="792.6"/>
      <point x="566.7" y="792.6" type="curve" smooth="yes"/>
      <point x="327.6" y="792.6" type="line"/>
      <point x="327.6" y="713.4" type="line"/>
      <point x="570.7" y="713.4" type="line" smooth="yes"/>
      <point x="698.5" y="713.4"/>
      <point x="804.1" y="605.9"/>
      <point x="804.1" y="400.5" type="curve" smooth="yes"/>
      <point x="804.1" y="230.0"/>
      <point x="728.3" y="58.40000000000001"/>
      <point x="587.0" y="58.40000000000001" type="curve" smooth="yes"/>
      <point x="459.4" y="58.40000000000001"/>
      <point x="380.6" y="204.0"/>
      <point x="380.6" y="358.0" type="curve" smooth="yes"/>
      <point x="380.6" y="387.2" type="line"/>
      <point x="74.19999999999999" y="391.4" type="line"/>
      <point x="74.19999999999999" y="354.9" type="line" smooth="yes"/>
      <point x="74.19999999999999" y="118.7"/>
      <point x="263.8" y="-24.5"/>
    </contour>
  </outline>
</glyph>
<glyph name="four" format="2">
  <advance width="1195.4"/>
  <unicode hex="0034"/>
  <note>
four
</note>
  <outline>
    <contour>
      <point x="676.6" y="0.0" type="line"/>
      <point x="965.0" y="0.0" type="line"/>
      <point x="965.0" y="444.0" type="line"/>
      <point x="847.0" y="337.3" type="line"/>
      <point x="1140.5" y="337.3" type="line"/>
      <point x="1140.5" y="496.3" type="line"/>
      <point x="847.0" y="496.3" type="line"/>
      <point x="965.0" y="411.9" type="line"/>
      <point x="965.0" y="772.6" type="line"/>
      <point x="676.6" y="772.6" type="line"/>
      <point x="676.6" y="411.9" type="line"/>
      <point x="782.6" y="496.3" type="line"/>
      <point x="241.7" y="496.3" type="line"/>
      <point x="300.4" y="456.6" type="line"/>
      <point x="497.7" y="783.4"/>
      <point x="700.9" y="1123.2"/>
      <point x="820.5" y="1467.5" type="curve"/>
      <point x="601.5999999999999" y="1467.5" type="line"/>
      <point x="459.0" y="1079.0"/>
      <point x="254.8" y="711.1"/>
      <point x="46.400000000000006" y="337.3" type="curve"/>
      <point x="782.6" y="337.3" type="line"/>
      <point x="676.6" y="444.0" type="line"/>
    </contour>
  </outline>
</glyph>
<glyph name="five" format="2">
  <advance width="1120.7"/>
  <unicode hex="0035"/>
  <note>
five
</note>
  <outline>
    <contour>
      <point x="504.2" y="-36.9" type="curve" smooth="yes"/>
      <point x="856.9" y="-36.9"/>
      <point x="1038.5" y="215.7"/>
      <point x="1038.5" y="482.1" type="curve" smooth="yes"/>
      <point x="1038.5" y="797.0"/>
      <point x="731.1" y="877.3"/>
      <point x="519.0" y="877.3" type="curve" smooth="yes"/>
      <point x="436.6" y="877.3"/>
      <point x="314.6" y="845.0"/>
      <point x="234.2" y="752.8" type="curve"/>
      <point x="271.4" y="757.5" type="line"/>
      <point x="381.90000000000003" y="1333.5" type="line"/>
      <point x="262.0" y="1199.4" type="line"/>
      <point x="949.9" y="1199.4" type="line"/>
      <point x="949.9" y="1439.8" type="line"/>
      <point x="248.9" y="1439.8" type="line"/>
      <point x="118.6" y="724.4" type="line"/>
      <point x="244.5" y="682.2" type="line"/>
      <point x="321.5" y="761.7"/>
      <point x="419.4" y="774.2"/>
      <point x="467.4" y="774.2" type="curve" smooth="yes"/>
      <point x="656.3" y="774.2"/>
      <point x="722.6" y="677.6"/>
      <point x="722.6" y="452.3" type="curve" smooth="yes"/>
      <point x="722.6" y="269.1"/>
      <point x="683.0" y="64.20000000000002"/>
      <point x="496.4" y="64.20000000000002" type="curve" smooth="yes"/>
      <point x="365.4" y="64.20000000000002"/>
      <point x="190.7" y="150.9"/>
      <point x="111.9" y="230.9" type="curve"/>
      <point x="67.4" y="148.7" type="line"/>
      <point x="151.7" y="69.0"/>
      <point x="280.3" y="-36.9"/>
    </contour>
  </outline>
</glyph>
<glyph name="six" format="2">
  <advance width="1201.2"/>
  <unicode hex="0036"/>
  <note>
six
</note>
  <outline>
    <contour>
      <point x="601.5" y="-34.8" type="curve" smooth="yes"/>
      <point x="928.6" y="-34.8"/>
      <point x="1132.4" y="144.8"/>
      <point x="1132.4" y="435.3" type="curve" smooth="yes"/>
      <point x="1132.4" y="709.0"/>
      <point x="937.4" y="903.9"/>
      <point x="629.5" y="903.9" type="curve" smooth="yes"/>
      <point x="515.0" y="903.9"/>
      <point x="410.6" y="865.3"/>
      <point x="330.1" y="759.2" type="curve"/>
      <point x="385.1" y="768.6" type="line"/>
      <point x="414.0" y="897.1"/>
      <point x="454.4" y="985.7"/>
      <point x="504.7" y="1065.3" type="curve" smooth="yes"/>
      <point x="603.0" y="1216.2"/>
      <point x="740.5" y="1324.3"/>
      <point x="895.2" y="1351.8" type="curve"/>
      <point x="894.0" y="1487.0" type="line"/>
      <point x="576.3" y="1419.8"/>
      <point x="361.8" y="1251.5"/>
      <point x="239.6" y="1051.3" type="curve" smooth="yes"/>
      <point x="126.4" y="861.9"/>
      <point x="82.3" y="652.4"/>
      <point x="82.3" y="487.7" type="curve" smooth="yes"/>
      <point x="82.3" y="134.4"/>
      <point x="284.0" y="-34.8"/>
    </contour>
    <contour>
      <point x="613.5" y="68.6" type="curve" smooth="yes"/>
      <point x="480.1" y="68.60000000000002"/>
      <point x="385.70000000000005" y="225.4"/>
      <point x="385.70000000000005" y="437.0" type="curve" smooth="yes"/>
      <point x="385.7" y="666.5"/>
      <point x="509.7" y="795.5"/>
      <point x="627.2" y="795.5" type="curve" smooth="yes"/>
      <point x="749.7" y="795.5"/>
      <point x="829.7" y="628.3"/>
      <point x="829.7" y="431.9" type="curve" smooth="yes"/>
      <point x="829.7" y="197.8"/>
      <point x="725.5" y="68.60000000000001"/>
    </contour>
  </outline>
</glyph>
<glyph name="seven" format="2">
  <advance width="1122.3"/>
  <unicode hex="0037"/>
  <note>
seven
</note>
  <outline>
    <contour>
      <point x="301.0" y="0.0" type="curve"/>
      <point x="555.2" y="0.0" type="line"/>
      <point x="633.0" y="570.0"/>
      <point x="865.6" y="1054.1"/>
      <point x="1074.8" y="1428.9" type="curve"/>
      <point x="62.5" y="1428.9" type="line"/>
      <point x="62.5" y="1166.2" type="line"/>
      <point x="856.7" y="1166.2" type="line"/>
      <point x="817.5" y="1284.7" type="line"/>
      <point x="646.8" y="1036.2"/>
      <point x="417.3" y="585.2"/>
    </contour>
  </outline>
</glyph>
<glyph name="eight" format="2">
  <advance width="1195.3"/>
  <unicode hex="0038"/>
  <note>
eight
</note>
  <outline>
    <contour>
      <point x="579.1" y="-34.1" type="curve" smooth="yes"/>
      <point x="909.1" y="-34.1"/>
      <point x="1121.5" y="131.1"/>
      <point x="1121.5" y="388.0" type="curve" smooth="yes"/>
      <point x="1121.5" y="607.7"/>
      <point x="962.6" y="768.1"/>
      <point x="639.8" y="877.9" type="curve" smooth="yes"/>
      <point x="524.2" y="917.2"/>
      <point x="439.29999999999995" y="988.0"/>
      <point x="439.29999999999995" y="1104.2" type="curve" smooth="yes"/>
      <point x="439.29999999999995" y="1273.3"/>
      <point x="511.79999999999995" y="1370.8"/>
      <point x="648.6" y="1370.8" type="curve" smooth="yes"/>
      <point x="788.6" y="1370.8"/>
      <point x="892.2" y="1266.2"/>
      <point x="892.2" y="1128.1" type="curve" smooth="yes"/>
      <point x="892.2" y="995.0"/>
      <point x="829.0" y="885.4"/>
      <point x="593.8" y="819.0" type="curve"/>
      <point x="750.6" y="782.1" type="line"/>
      <point x="923.2" y="843.5"/>
      <point x="1022.0" y="965.5"/>
      <point x="1022.0" y="1122.6" type="curve" smooth="yes"/>
      <point x="1022.0" y="1318.7"/>
      <point x="845.4" y="1459.3"/>
      <point x="605.4" y="1458.3" type="curve" smooth="yes"/>
      <point x="337.3" y="1457.3"/>
      <point x="147.8" y="1310.0"/>
      <point x="147.8" y="1091.8" type="curve" smooth="yes"/>
      <point x="147.8" y="895.4"/>
      <point x="287.8" y="745.0"/>
      <point x="511.5" y="668.1" type="curve" smooth="yes"/>
      <point x="750.9" y="585.5"/>
      <point x="816.4" y="528.0"/>
      <point x="816.4" y="366.8" type="curve" smooth="yes"/>
      <point x="816.4" y="170.1"/>
      <point x="725.2" y="58.800000000000004"/>
      <point x="551.2" y="58.800000000000004" type="curve" smooth="yes"/>
      <point x="370.4" y="58.800000000000004"/>
      <point x="243.7" y="187.2"/>
      <point x="242.7" y="354.8" type="curve" smooth="yes"/>
      <point x="241.7" y="497.4"/>
      <point x="321.7" y="634.9"/>
      <point x="497.9" y="734.6" type="curve"/>
      <point x="391.4" y="771.8" type="line"/>
      <point x="190.7" y="693.4"/>
      <point x="81.5" y="544.0"/>
      <point x="81.5" y="356.0" type="curve" smooth="yes"/>
      <point x="81.5" y="111.5"/>
      <point x="266.7" y="-34.1"/>
    </contour>
  </outline>
</glyph>
<glyph name="nine" format="2">
  <advance width="1197.0"/>
  <unicode hex="0039"/>
  <note>
nine
</note>
  <outline>
    <contour>
      <point x="242.5" y="-47.8" type="line"/>
      <point x="501.3" y="-21.900000000000002"/>
      <point x="654.1" y="48.60000000000001"/>
      <point x="769.2" y="136.7" type="curve" smooth="yes"/>
      <point x="862.0" y="208.6"/>
      <point x="915.0" y="281.7"/>
      <point x="974.2" y="384.9" type="curve" smooth="yes"/>
      <point x="1074.9" y="560.4"/>
      <point x="1117.5" y="787.5"/>
      <point x="1117.5" y="951.5" type="curve" smooth="yes"/>
      <point x="1117.5" y="1305.5"/>
      <point x="915.1" y="1474.0"/>
      <point x="598.3" y="1474.0" type="curve" smooth="yes"/>
      <point x="280.4" y="1474.0"/>
      <point x="67.4" y="1288.2"/>
      <point x="67.4" y="1000.9" type="curve" smooth="yes"/>
      <point x="67.4" y="715.6"/>
      <point x="279.2" y="526.3"/>
      <point x="570.3" y="526.3" type="curve" smooth="yes"/>
      <point x="695.3" y="526.3"/>
      <point x="780.2" y="569.7"/>
      <point x="869.7" y="680.0" type="curve"/>
      <point x="811.7" y="670.6" type="line"/>
      <point x="786.1" y="555.0"/>
      <point x="788.7" y="488.1"/>
      <point x="721.2" y="384.70000000000005" type="curve" smooth="yes"/>
      <point x="640.7" y="257.6"/>
      <point x="486.9" y="126.30000000000001"/>
      <point x="254.2" y="101.8" type="curve"/>
    </contour>
    <contour>
      <point x="572.9" y="639.5" type="curve" smooth="yes"/>
      <point x="445.4" y="639.5"/>
      <point x="373.1" y="804.6"/>
      <point x="373.1" y="1004.3" type="curve" smooth="yes"/>
      <point x="373.1" y="1233.3"/>
      <point x="470.8" y="1368.8"/>
      <point x="586.6" y="1368.8" type="curve" smooth="yes"/>
      <point x="712.9" y="1368.8"/>
      <point x="811.1" y="1206.1"/>
      <point x="811.1" y="999.2" type="curve" smooth="yes"/>
      <point x="811.1" y="767.1"/>
      <point x="681.8" y="639.5"/>
    </contour>
  </outline>
</glyph>
<glyph name="greater" format="2">
  <advance width="1118.0"/>
  <unicode hex="003E"/>
  <note>
greater
</note>
  <outline>
    <contour>
      <point x="127.3" y="176.60000000000002" type="line"/>
      <point x="1045.1" y="595.7" type="line"/>
      <point x="1045.1" y="768.8" type="line"/>
      <point x="127.3" y="1187.6" type="line"/>
      <point x="127.3" y="988.6" type="line"/>
      <point x="799.0" y="683.4" type="line"/>
      <point x="127.3" y="375.9" type="line"/>
    </contour>
  </outline>
</glyph>
<glyph name="question" format="2">
  <advance width="1144.3"/>
  <unicode hex="003F"/>
  <note>
question
</note>
  <outline>
    <contour>
      <point x="458.6" y="459.6" type="curve"/>
      <point x="625.4" y="459.6" type="line"/>
      <point x="591.8" y="503.7"/>
      <point x="568.2" y="583.4"/>
      <point x="568.2" y="640.8" type="curve" smooth="yes"/>
      <point x="568.2" y="898.6"/>
      <point x="1044.3" y="864.8"/>
      <point x="1044.3" y="1164.7" type="curve" smooth="yes"/>
      <point x="1044.3" y="1371.6"/>
      <point x="820.8" y="1472.1"/>
      <point x="523.2" y="1472.1" type="curve" smooth="yes"/>
      <point x="209.3" y="1472.1"/>
      <point x="95.2" y="1360.1"/>
      <point x="95.2" y="1177.9" type="curve" smooth="yes"/>
      <point x="95.2" y="1163.5"/>
      <point x="95.2" y="1151.5"/>
      <point x="95.2" y="1127.2" type="curve"/>
      <point x="338.20000000000005" y="1127.2" type="line"/>
      <point x="331.4" y="1145.7"/>
      <point x="330.1" y="1189.4"/>
      <point x="330.1" y="1201.2" type="curve" smooth="yes"/>
      <point x="330.1" y="1292.3"/>
      <point x="407.2" y="1365.7"/>
      <point x="521.5" y="1365.7" type="curve" smooth="yes"/>
      <point x="637.6" y="1365.7"/>
      <point x="739.9" y="1311.9"/>
      <point x="739.9" y="1158.9" type="curve" smooth="yes"/>
      <point x="739.9" y="892.0"/>
      <point x="430.5" y="1008.5"/>
      <point x="430.5" y="629.1" type="curve" smooth="yes"/>
      <point x="430.5" y="587.3"/>
      <point x="435.8" y="525.1"/>
    </contour>
    <contour>
      <point x="544.9" y="-27.0" type="curve" smooth="yes"/>
      <point x="631.2" y="-27.0"/>
      <point x="696.8000000000001" y="38.6"/>
      <point x="696.8000000000001" y="124.9" type="curve" smooth="yes"/>
      <point x="696.8000000000001" y="210.5"/>
      <point x="631.2" y="276.1"/>
      <point x="544.9" y="276.1" type="curve" smooth="yes"/>
      <point x="458.6" y="276.1"/>
      <point x="393.0" y="210.5"/>
      <point x="393.0" y="124.9" type="curve" smooth="yes"/>
      <point x="393.0" y="38.6"/>
      <point x="458.6" y="-27.0"/>
    </contour>
  </outline>
</glyph>
<glyph name="at" format="2">
  <advance width="1825.1"/>
  <unicode hex="0040"/>
  <note>
at
</note>
  <outline>
    <contour>
      <point x="952.2" y="-44.7" type="curve" smooth="yes"/>
      <point x="1269.8" y="-44.7"/>
      <point x="1555.9" y="131.7"/>
      <point x="1694.0" y="387.6" type="curve"/>
      <point x="1509.5" y="385.8" type="line"/>
      <point x="1380.2" y="173.9"/>
      <point x="1182.9" y="58.50000000000001"/>
      <point x="952.2" y="58.50000000000001" type="curve" smooth="yes"/>
      <point x="596.2" y="58.50000000000001"/>
      <point x="306.3" y="352.7"/>
      <point x="306.3" y="714.2" type="curve" smooth="yes"/>
      <point x="306.3" y="1074.3"/>
      <point x="596.2" y="1368.2"/>
      <point x="952.2" y="1368.2" type="curve" smooth="yes"/>
      <point x="1269.5" y="1368.2"/>
      <point x="1490.9" y="1139.0"/>
      <point x="1490.9" y="836.9" type="curve" smooth="yes"/>
      <point x="1490.9" y="734.1"/>
      <point x="1460.0" y="622.6"/>
      <point x="1414.2" y="559.8" type="curve" smooth="yes"/>
      <point x="1377.2" y="507.5"/>
      <point x="1291.7" y="404.0"/>
      <point x="1279.4" y="383.3" type="curve" smooth="yes"/>
      <point x="1256.2" y="386.3"/>
      <point x="1260.7" y="394.8"/>
      <point x="1253.1" y="423.7" type="curve"/>
      <point x="1427.6" y="1103.4" type="line"/>
      <point x="1114.3" y="1103.4" type="line"/>
      <point x="1110.9" y="1098.3" type="line"/>
      <point x="1070.0" y="1115.5"/>
      <point x="1015.5" y="1124.8"/>
      <point x="947.3" y="1124.8" type="curve" smooth="yes"/>
      <point x="657.8" y="1124.8"/>
      <point x="399.2" y="855.3"/>
      <point x="399.2" y="555.1" type="curve" smooth="yes"/>
      <point x="399.2" y="363.4"/>
      <point x="533.3" y="244.3"/>
      <point x="745.2" y="244.3" type="curve" smooth="yes"/>
      <point x="850.0" y="244.3"/>
      <point x="923.3" y="270.0"/>
      <point x="998.9" y="334.5" type="curve"/>
      <point x="1043.0" y="281.5"/>
      <point x="1097.4" y="258.0"/>
      <point x="1179.4" y="258.0" type="curve" smooth="yes"/>
      <point x="1257.2" y="258.0"/>
      <point x="1344.5" y="291.1"/>
      <point x="1415.2" y="344.4" type="curve" smooth="yes"/>
      <point x="1497.6" y="407.7"/>
      <point x="1552.9" y="467.4"/>
      <point x="1594.4" y="543.1" type="curve" smooth="yes"/>
      <point x="1647.7" y="641.7"/>
      <point x="1669.2" y="723.8"/>
      <point x="1669.2" y="832.6" type="curve" smooth="yes"/>
      <point x="1669.2" y="1220.5"/>
      <point x="1363.4" y="1471.4"/>
      <point x="952.2" y="1471.4" type="curve" smooth="yes"/>
      <point x="496.8" y="1471.4"/>
      <point x="128.3" y="1132.8"/>
      <point x="128.3" y="714.2" type="curve" smooth="yes"/>
      <point x="128.3" y="292.9"/>
      <point x="495.5" y="-44.7"/>
    </contour>
    <contour>
      <point x="783.5" y="352.4" type="curve" smooth="yes"/>
      <point x="745.6" y="352.4"/>
      <point x="718.8" y="425.0"/>
      <point x="718.8" y="537.1" type="curve" smooth="yes"/>
      <point x="718.8" y="758.5"/>
      <point x="855.7" y="1021.0"/>
      <point x="967.6" y="1021.0" type="curve" smooth="yes"/>
      <point x="1005.7" y="1021.0"/>
      <point x="1030.1" y="957.1"/>
      <point x="1030.1" y="854.0" type="curve" smooth="yes"/>
      <point x="1030.1" y="627.2"/>
      <point x="891.2" y="352.4"/>
    </contour>
  </outline>
</glyph>
<glyph name="A" format="2">
  <advance width="1523.4"/>
  <unicode hex="0041"/>
  <note>
A
</note>
  <anchor x="743.2" y="-41.0" name="bottom"/>
  <anchor x="1149.8" y="0.0" name="ogonek"/>
  <anchor x="760.0" y="1374.0" name="top"/>
  <outline>
    <contour>
      <point x="73.8" y="0.0" type="line"/>
      <point x="209.8" y="0.0" type="line"/>
      <point x="680.9" y="1033.0" type="line"/>
      <point x="643.0" y="995.2" type="line"/>
      <point x="1093.2" y="0.0" type="line"/>
      <point x="1450.3" y="0.0" type="line"/>
      <point x="759.4" y="1493.7" type="line"/>
    </contour>
    <contour>
      <point x="288.8" y="367.59999999999997" type="line"/>
      <point x="1044.0" y="367.59999999999997" type="line"/>
      <point x="1001.8" y="475.6" type="line"/>
      <point x="335.1" y="475.6" type="line"/>
    </contour>
  </outline>
</glyph>
<glyph name="B" format="2">
  <advance width="1392.2"/>
  <unicode hex="0042"/>
  <note>
B
</note>
  <anchor x="705.0" y="15.0" name="bottom"/>
  <anchor x="705.0" y="1430.0" name="top"/>
  <outline>
    <contour>
      <point x="158.3" y="0.0" type="line"/>
      <point x="625.5" y="0.0" type="line" smooth="yes"/>
      <point x="1074.7" y="0.0"/>
      <point x="1299.1" y="124.3"/>
      <point x="1299.1" y="423.1" type="curve" smooth="yes"/>
      <point x="1299.1" y="627.9"/>
      <point x="1176.9" y="738.8"/>
      <point x="954.8" y="783.4" type="curve"/>
      <point x="948.8" y="747.2" type="line"/>
      <point x="1136.8" y="808.4"/>
      <point x="1226.2" y="896.1"/>
      <point x="1226.2" y="1047.0" type="curve" smooth="yes"/>
      <point x="1226.2" y="1309.0"/>
      <point x="1000.0" y="1442.6"/>
      <point x="625.5" y="1442.6" type="curve" smooth="yes"/>
      <point x="158.3" y="1442.6" type="line"/>
    </contour>
    <contour>
      <point x="509.6" y="13.1" type="line"/>
      <point x="509.6" y="773.8" type="line"/>
      <point x="391.29999999999995" y="710.4" type="line"/>
      <point x="676.1" y="710.4" type="line" smooth="yes"/>
      <point x="830.4" y="710.4"/>
      <point x="915.2" y="580.3"/>
      <point x="915.2" y="422.8" type="curve" smooth="yes"/>
      <point x="915.2" y="230.7"/>
      <point x="792.8" y="104.10000000000002"/>
      <point x="625.5" y="104.10000000000002" type="curve" smooth="yes"/>
      <point x="204.6" y="104.10000000000002" type="line"/>
    </contour>
    <contour>
      <point x="509.6" y="750.8" type="line"/>
      <point x="509.6" y="1418.3" type="line"/>
      <point x="204.89999999999998" y="1338.5" type="line"/>
      <point x="625.5" y="1338.5" type="line" smooth="yes"/>
      <point x="817.3" y="1338.5"/>
      <point x="852.6" y="1143.8"/>
      <point x="852.6" y="1027.3" type="curve" smooth="yes"/>
      <point x="852.6" y="869.8"/>
      <point x="792.1" y="814.8"/>
      <point x="625.5" y="814.8" type="curve" smooth="yes"/>
      <point x="430.5" y="814.8" type="line"/>
    </contour>
  </outline>
</glyph>
<glyph name="C" format="2">
  <advance width="1619.1"/>
  <unicode hex="0043"/>
  <note>
C
</note>
  <anchor x="807.2" y="1.000000000000007" name="bottom"/>
  <anchor x="853.0" y="1430.0" name="top"/>
  <outline>
    <contour>
      <point x="860.4" y="-41.9" type="curve" smooth="yes"/>
      <point x="1158.4" y="-41.9"/>
      <point x="1418.5" y="116.5"/>
      <point x="1539.1" y="373.0" type="curve"/>
      <point x="1207.8" y="373.0" type="line"/>
      <point x="1127.7" y="170.0"/>
      <point x="1007.5" y="66.80000000000001"/>
      <point x="854.7" y="66.80000000000001" type="curve" smooth="yes"/>
      <point x="612.5" y="66.80000000000001"/>
      <point x="446.8" y="326.6"/>
      <point x="446.8" y="713.2" type="curve" smooth="yes"/>
      <point x="446.8" y="1102.2"/>
      <point x="614.9" y="1363.9"/>
      <point x="855.4" y="1363.9" type="curve" smooth="yes"/>
      <point x="1007.8" y="1363.9"/>
      <point x="1127.0" y="1260.7"/>
      <point x="1202.8" y="1059.4" type="curve"/>
      <point x="1529.2" y="1059.4" type="line"/>
      <point x="1446.2" y="1283.4"/>
      <point x="1157.6" y="1472.3"/>
      <point x="853.4" y="1472.3" type="curve" smooth="yes"/>
      <point x="448.9" y="1472.3"/>
      <point x="95.8" y="1145.8"/>
      <point x="95.8" y="716.2" type="curve" smooth="yes"/>
      <point x="95.8" y="297.9"/>
      <point x="428.6" y="-41.9"/>
    </contour>
  </outline>
</glyph>
<glyph name="D" format="2">
  <advance width="1606.1"/>
  <unicode hex="0044"/>
  <note>
D
</note>
  <anchor x="827.7" y="0.0" name="bottom"/>
  <anchor x="343.5" y="715.0" name="center"/>
  <anchor x="827.7" y="1430.0" name="top"/>
  <outline>
    <contour>
      <point x="159.0" y="0.30000000000000004" type="line"/>
      <point x="618.2" y="0.30000000000000004" type="line" smooth="yes"/>
      <point x="906.7" y="0.30000000000000004"/>
      <point x="1053.8" y="4.199999999999999"/>
      <point x="1234.5" y="137.9" type="curve" smooth="yes"/>
      <point x="1373.9" y="241.1"/>
      <point x="1509.3" y="436.4"/>
      <point x="1509.3" y="720.8" type="curve" smooth="yes"/>
      <point x="1509.3" y="954.0"/>
      <point x="1411.2" y="1156.3"/>
      <point x="1269.4" y="1280.0" type="curve" smooth="yes"/>
      <point x="1078.8" y="1445.3"/>
      <point x="905.5" y="1442.3"/>
      <point x="555.6" y="1442.3" type="curve" smooth="yes"/>
      <point x="159.0" y="1442.3" type="line"/>
    </contour>
    <contour>
      <point x="518.3" y="2.8000000000000007" type="line"/>
      <point x="518.3" y="1439.8" type="line"/>
      <point x="213.3" y="1338.2" type="line"/>
      <point x="561.3" y="1338.2" type="line" smooth="yes"/>
      <point x="968.7" y="1338.2"/>
      <point x="1140.0" y="1176.2"/>
      <point x="1140.0" y="727.8" type="curve" smooth="yes"/>
      <point x="1140.0" y="280.6"/>
      <point x="968.0" y="104.4"/>
      <point x="561.6" y="104.4" type="curve" smooth="yes"/>
      <point x="213.3" y="104.4" type="line"/>
    </contour>
  </outline>
</glyph>
<glyph name="E" format="2">
  <advance width="1259.9"/>
  <unicode hex="0045"/>
  <note>
E
</note>
  <anchor x="621.9" y="15.0" name="bottom"/>
  <anchor x="1104.7" y="0.0" name="ogonek"/>
  <anchor x="664.9" y="1440.5" name="top"/>
  <anchor x="38.599999999999994" y="1440.5" name="topleft"/>
  <outline>
    <contour>
      <point x="159.0" y="0.0" type="line"/>
      <point x="1159.7" y="0.0" type="line"/>
      <point x="1159.7" y="104.10000000000002" type="line"/>
      <point x="320.6" y="104.10000000000002" type="line"/>
      <point x="510.3" y="11.2" type="line"/>
      <point x="510.3" y="773.6" type="line"/>
      <point x="317.7" y="677.0" type="line"/>
      <point x="1159.7" y="677.0" type="line"/>
      <point x="1159.7" y="781.1" type="line"/>
      <point x="320.6" y="781.1" type="line"/>
      <point x="510.3" y="688.2" type="line"/>
      <point x="510.3" y="1429.5" type="line"/>
      <point x="205.3" y="1338.5" type="line"/>
      <point x="1159.7" y="1338.5" type="line"/>
      <point x="1159.7" y="1442.6" type="line"/>
      <point x="159.0" y="1442.6" type="line"/>
    </contour>
  </outline>
</glyph>
<glyph name="F" format="2">
  <advance width="1185.6"/>
  <unicode hex="0046"/>
  <note>
F
</note>
  <anchor x="589.2" y="15.0" name="bottom"/>
  <anchor x="589.2" y="1430.0" name="top"/>
  <outline>
    <contour>
      <point x="159.0" y="0.0" type="line"/>
      <point x="510.3" y="0.0" type="line"/>
      <point x="510.3" y="764.0" type="line"/>
      <point x="205.3" y="673.0" type="line"/>
      <point x="1099.1" y="673.0" type="line"/>
      <point x="1099.1" y="775.1" type="line"/>
      <point x="205.3" y="775.1" type="line"/>
      <point x="510.3" y="676.5" type="line"/>
      <point x="510.3" y="1418.3" type="line"/>
      <point x="205.3" y="1338.5" type="line"/>
      <point x="1099.1" y="1338.5" type="line"/>
      <point x="1099.1" y="1442.6" type="line"/>
      <point x="159.0" y="1442.6" type="line"/>
    </contour>
  </outline>
</glyph>
<glyph name="G" format="2">
  <advance width="1699.2"/>
  <unicode hex="0047"/>
  <note>
G
</note>
  <anchor x="849.9" y="15.0" name="bottom"/>
  <anchor x="855.5" y="1430.0" name="top"/>
  <outline>
    <contour>
      <point x="861.7" y="-41.9" type="curve" smooth="yes"/>
      <point x="1270.7" y="-41.9"/>
      <point x="1588.4" y="248.3"/>
      <point x="1619.6" y="649.5" type="curve"/>
      <point x="1265.0" y="649.5" type="line"/>
      <point x="1248.5" y="292.3"/>
      <point x="1084.5" y="56.20000000000001"/>
      <point x="858.7" y="56.2" type="curve"/>
      <point x="618.5" y="56.20000000000001"/>
      <point x="450.8" y="324.0"/>
      <point x="450.8" y="712.2" type="curve" smooth="yes"/>
      <point x="450.8" y="1102.1"/>
      <point x="620.2" y="1374.2"/>
      <point x="859.7" y="1374.2" type="curve"/>
      <point x="1012.8" y="1374.2"/>
      <point x="1131.0" y="1271.3"/>
      <point x="1206.8" y="1070.3" type="curve"/>
      <point x="1533.6" y="1070.3" type="line"/>
      <point x="1429.2" y="1300.8"/>
      <point x="1135.8" y="1472.3"/>
      <point x="858.7" y="1472.3" type="curve" smooth="yes"/>
      <point x="437.5" y="1472.3"/>
      <point x="96.8" y="1132.5"/>
      <point x="96.8" y="716.5" type="curve" smooth="yes"/>
      <point x="96.8" y="280.5"/>
      <point x="420.9" y="-41.9"/>
    </contour>
    <contour>
      <point x="872.4" y="545.4" type="line"/>
      <point x="1453.8" y="545.4" type="line"/>
      <point x="1453.8" y="649.5" type="line"/>
      <point x="872.4" y="649.5" type="line"/>
    </contour>
  </outline>
</glyph>
<glyph name="H" format="2">
  <advance width="1621.6"/>
  <unicode hex="0048"/>
  <note>
H
</note>
  <anchor x="810.8" y="15.0" name="bottom"/>
  <anchor x="810.8" y="715.0" name="center"/>
  <anchor x="810.8" y="1430.0" name="top"/>
  <anchor x="35.800000000000004" y="1430.0" name="topleft"/>
  <outline>
    <contour>
      <point x="159.0" y="0.0" type="line"/>
      <point x="500.0" y="0.0" type="line"/>
      <point x="500.0" y="801.7" type="line"/>
      <point x="197.1" y="688.0" type="line"/>
      <point x="1424.8" y="688.0" type="line"/>
      <point x="1121.6" y="801.7" type="line"/>
      <point x="1121.6" y="0.0" type="line"/>
      <point x="1462.6" y="0.0" type="line"/>
      <point x="1462.6" y="1442.6" type="line"/>
      <point x="1121.6" y="1442.6" type="line"/>
      <point x="1121.6" y="679.3" type="line"/>
      <point x="1424.8" y="793.0" type="line"/>
      <point x="197.1" y="793.0" type="line"/>
      <point x="500.0" y="679.3" type="line"/>
      <point x="500.0" y="1442.6" type="line"/>
      <point x="159.0" y="1442.6" type="line"/>
    </contour>
  </outline>
</glyph>
<glyph name="I" format="2">
  <advance width="669.3"/>
  <unicode hex="0049"/>
  <note>
I
</note>
  <anchor x="334.8" y="15.0" name="bottom"/>
  <anchor x="354.1" y="0.0" name="ogonek"/>
  <anchor x="334.8" y="1430.0" name="top"/>
  <anchor x="19.099999999999998" y="1430.0" name="topleft"/>
  <outline>
    <contour>
      <point x="159.0" y="0.0" type="line"/>
      <point x="510.3" y="0.0" type="line"/>
      <point x="510.3" y="1442.6" type="line"/>
      <point x="159.0" y="1442.6" type="line"/>
    </contour>
  </outline>
</glyph>
<glyph name="J" format="2">
  <advance width="1023.0999999999999"/>
  <unicode hex="004A"/>
  <note>
J
</note>
  <anchor x="544.3" y="15.000000000000007" name="bottom"/>
  <anchor x="544.3" y="1430.0" name="top"/>
  <outline>
    <contour>
      <point x="84.7" y="-7.299999999999997" type="line"/>
      <point x="129.8" y="-87.0"/>
      <point x="305.5" y="-163.4"/>
      <point x="463.3" y="-163.4" type="curve" smooth="yes"/>
      <point x="722.0999999999999" y="-163.4"/>
      <point x="872.9" y="41.39999999999999"/>
      <point x="872.9" y="394.4" type="curve" smooth="yes"/>
      <point x="872.9" y="1442.6" type="line"/>
      <point x="521.9" y="1442.6" type="line"/>
      <point x="521.9" y="352.2" type="line" smooth="yes"/>
      <point x="521.9" y="21.3"/>
      <point x="499.4" y="-41.300000000000004"/>
      <point x="422.2" y="-41.300000000000004" type="curve" smooth="yes"/>
      <point x="343.4" y="-41.300000000000004"/>
      <point x="204.6" y="14.700000000000017"/>
      <point x="84.7" y="241.5" type="curve"/>
    </contour>
  </outline>
</glyph>
<glyph name="K" format="2">
  <advance width="1527.1"/>
  <unicode hex="004B"/>
  <note>
K
</note>
  <anchor x="740.5" y="15.0" name="bottom"/>
  <anchor x="740.5" y="1430.0" name="top"/>
  <outline>
    <contour>
      <point x="159.0" y="0.0" type="line"/>
      <point x="510.3" y="0.0" type="line"/>
      <point x="510.3" y="1442.6" type="line"/>
      <point x="159.0" y="1442.6" type="line"/>
    </contour>
    <contour>
      <point x="447.4" y="470.1" type="line"/>
      <point x="1332.4" y="1442.6" type="line"/>
      <point x="1131.4" y="1442.6" type="line"/>
      <point x="320.9" y="545.1" type="line"/>
    </contour>
    <contour>
      <point x="1063.4" y="0.0" type="line"/>
      <point x="1457.5" y="0.0" type="line"/>
      <point x="738.2" y="925.1" type="line"/>
      <point x="521.8" y="700.8" type="line"/>
    </contour>
  </outline>
</glyph>
<glyph name="L" format="2">
  <advance width="1222.9"/>
  <unicode hex="004C"/>
  <note>
L
</note>
  <anchor x="613.2" y="15.0" name="bottom"/>
  <anchor x="333.2" y="715.0" name="center"/>
  <anchor x="909.7" y="764.7" name="dot"/>
  <anchor x="1119.2" y="10.0" name="ogonek"/>
  <anchor x="433.2" y="1430.0" name="top"/>
  <anchor x="-11.400000000000006" y="1430.0" name="topleft"/>
  <anchor x="869.1" y="1430.0" name="topright"/>
  <outline>
    <contour>
      <point x="159.0" y="0.0" type="line"/>
      <point x="1150.7" y="0.0" type="line"/>
      <point x="1150.7" y="87.0" type="line"/>
      <point x="207.1" y="87.0" type="line"/>
      <point x="511.2" y="23.7" type="line"/>
      <point x="511.2" y="1442.6" type="line"/>
      <point x="159.0" y="1442.6" type="line"/>
    </contour>
  </outline>
</glyph>
<glyph name="M" format="2">
  <advance width="1861.3"/>
  <unicode hex="004D"/>
  <note>
M
</note>
  <anchor x="930.8" y="15.0" name="bottom"/>
  <anchor x="930.8" y="1430.0" name="top"/>
  <outline>
    <contour>
      <point x="159.0" y="0.0" type="line"/>
      <point x="307.8" y="0.0" type="line"/>
      <point x="307.8" y="1310.1" type="line"/>
      <point x="222.8" y="1166.5" type="line"/>
      <point x="859.9" y="-2.0" type="line"/>
      <point x="1494.3" y="1260.5" type="line"/>
      <point x="1361.3" y="1120.2" type="line"/>
      <point x="1361.3" y="0.0" type="line"/>
      <point x="1702.3" y="0.0" type="line"/>
      <point x="1702.3" y="1442.6" type="line"/>
      <point x="1422.9" y="1442.6" type="line"/>
      <point x="855.3" y="314.2" type="line"/>
      <point x="993.4" y="384.9" type="line"/>
      <point x="418.1" y="1442.6" type="line"/>
      <point x="159.0" y="1442.6" type="line"/>
    </contour>
  </outline>
</glyph>
<glyph name="N" format="2">
  <advance width="1567.7"/>
  <unicode hex="004E"/>
  <note>
N
</note>
  <anchor x="784.0" y="15.0" name="bottom"/>
  <anchor x="784.0" y="1430.0" name="top"/>
  <outline>
    <contour>
      <point x="169.9" y="0.0" type="line"/>
      <point x="316.1" y="0.0" type="line"/>
      <point x="316.1" y="1205.0" type="line"/>
      <point x="208.1" y="1079.9" type="line"/>
      <point x="1305.7" y="0.0" type="line"/>
      <point x="1408.7" y="0.0" type="line"/>
      <point x="1408.7" y="1442.6" type="line"/>
      <point x="1261.6" y="1442.6" type="line"/>
      <point x="1261.6" y="179.8" type="line"/>
      <point x="1363.9" y="353.2" type="line"/>
      <point x="263.3" y="1442.6" type="line"/>
      <point x="159.0" y="1442.6" type="line"/>
    </contour>
  </outline>
</glyph>
<glyph name="O" format="2">
  <advance width="1716.2"/>
  <unicode hex="004F"/>
  <note>
O
</note>
  <anchor x="858.1" y="0.0" name="bottom"/>
  <anchor x="858.1" y="715.0" name="center"/>
  <anchor x="1017.6" y="0.0" name="ogonek"/>
  <anchor x="858.1" y="1430.0" name="top"/>
  <anchor x="48.599999999999994" y="1430.0" name="topleft"/>
  <anchor x="1453.6" y="1430.0" name="topright"/>
  <outline>
    <contour>
      <point x="858.8" y="-41.9" type="curve" smooth="yes"/>
      <point x="1292.8" y="-41.9"/>
      <point x="1619.7" y="286.4"/>
      <point x="1619.7" y="712.0" type="curve" smooth="yes"/>
      <point x="1619.7" y="1141.5"/>
      <point x="1285.4" y="1472.6"/>
      <point x="859.1" y="1472.6" type="curve" smooth="yes"/>
      <point x="429.3" y="1472.6"/>
      <point x="96.8" y="1138.7"/>
      <point x="96.8" y="711.7" type="curve" smooth="yes"/>
      <point x="96.8" y="287.1"/>
      <point x="424.1" y="-41.9"/>
    </contour>
    <contour>
      <point x="858.8" y="56.800000000000004" type="curve"/>
      <point x="620.9" y="56.80000000000001"/>
      <point x="451.1" y="323.0"/>
      <point x="451.1" y="712.0" type="curve" smooth="yes"/>
      <point x="451.1" y="1100.3"/>
      <point x="619.9" y="1373.9"/>
      <point x="859.1" y="1373.9" type="curve"/>
      <point x="1097.0" y="1373.9"/>
      <point x="1265.4" y="1100.0"/>
      <point x="1265.4" y="711.7" type="curve" smooth="yes"/>
      <point x="1265.4" y="323.4"/>
      <point x="1098.0" y="56.80000000000001"/>
    </contour>
  </outline>
</glyph>
<glyph name="P" format="2">
  <advance width="1294.0"/>
  <unicode hex="0050"/>
  <note>
P
</note>
  <anchor x="638.8" y="15.0" name="bottom"/>
  <anchor x="638.8" y="1430.0" name="top"/>
  <outline>
    <contour>
      <point x="158.3" y="0.0" type="line"/>
      <point x="499.3" y="0.0" type="line"/>
      <point x="499.3" y="577.0" type="line"/>
      <point x="340.79999999999995" y="529.1" type="line"/>
      <point x="685.2" y="529.1" type="line" smooth="yes"/>
      <point x="836.8" y="529.1"/>
      <point x="942.5" y="567.5"/>
      <point x="1029.7" y="626.3" type="curve" smooth="yes"/>
      <point x="1166.1" y="720.6"/>
      <point x="1206.5" y="887.4"/>
      <point x="1206.5" y="986.4" type="curve" smooth="yes"/>
      <point x="1206.5" y="1114.9"/>
      <point x="1156.4" y="1225.5"/>
      <point x="1070.1" y="1301.0" type="curve" smooth="yes"/>
      <point x="965.5" y="1392.4"/>
      <point x="823.9" y="1442.6"/>
      <point x="636.7" y="1442.6" type="curve" smooth="yes"/>
      <point x="158.3" y="1442.6" type="line"/>
    </contour>
    <contour>
      <point x="499.3" y="557.1" type="line"/>
      <point x="499.3" y="1424.6" type="line"/>
      <point x="194.3" y="1343.6" type="line"/>
      <point x="637.9" y="1343.6" type="line" smooth="yes"/>
      <point x="813.5" y="1343.6"/>
      <point x="863.8" y="1117.7"/>
      <point x="863.8" y="966.1" type="curve" smooth="yes"/>
      <point x="863.8" y="833.8"/>
      <point x="802.1" y="639.7"/>
      <point x="637.9" y="639.7" type="curve" smooth="yes"/>
      <point x="420.5" y="639.7" type="line"/>
    </contour>
  </outline>
</glyph>
<glyph name="Q" format="2">
  <advance width="1716.2"/>
  <unicode hex="0051"/>
  <note>
Q
</note>
  <anchor x="833.7" y="33.60000000000001" name="bottom"/>
  <anchor x="833.7" y="1408.1" name="top"/>
  <anchor x="858.1" y="733.6" name="center"/>
  <anchor x="1017.6" y="18.6" name="ogonek"/>
  <anchor x="48.599999999999994" y="1448.6" name="topleft"/>
  <anchor x="1453.6" y="1448.6" name="topright"/>
  <outline>
    <contour>
      <point x="1114.7" y="-413.7" type="curve" smooth="yes"/>
      <point x="1264.3" y="-413.7"/>
      <point x="1311.8" y="-398.8"/>
      <point x="1307.3" y="-287.29999999999995" type="curve"/>
      <point x="1251.2" y="-287.29999999999995"/>
      <point x="1194.1" y="-287.29999999999995"/>
      <point x="1137.7" y="-287.29999999999995" type="curve" smooth="yes"/>
      <point x="1044.4" y="-287.29999999999995"/>
      <point x="993.2" y="-247.0"/>
      <point x="993.2" y="-173.5" type="curve" smooth="yes"/>
      <point x="993.2" y="44.50000000000001" type="line"/>
      <point x="654.2" y="44.50000000000001" type="line"/>
      <point x="654.2" y="-158.6" type="line" smooth="yes"/>
      <point x="654.2" y="-262.6"/>
      <point x="741.1" y="-337.9"/>
      <point x="848.2" y="-376.0" type="curve" smooth="yes"/>
      <point x="939.4" y="-408.5"/>
      <point x="1019.6" y="-413.7"/>
    </contour>
    <component base="O" yOffset="18.6"/>
  </outline>
</glyph>
<glyph name="R" format="2">
  <advance width="1362.3"/>
  <unicode hex="0052"/>
  <note>
R
</note>
  <anchor x="676.1" y="15.0" name="bottom"/>
  <anchor x="676.1" y="1430.0" name="top"/>
  <outline>
    <contour>
      <point x="159.0" y="0.0" type="line"/>
      <point x="507.0" y="0.0" type="line"/>
      <point x="507.0" y="745.7" type="line"/>
      <point x="327.5" y="668.4" type="line"/>
      <point x="598.4000000000001" y="668.4" type="line"/>
      <point x="801.4" y="669.1" type="line"/>
      <point x="1023.7" y="677.5"/>
      <point x="1207.2" y="817.0"/>
      <point x="1207.2" y="1049.5" type="curve" smooth="yes"/>
      <point x="1207.2" y="1303.9"/>
      <point x="992.3" y="1442.6"/>
      <point x="630.4" y="1442.6" type="curve" smooth="yes"/>
      <point x="159.0" y="1442.6" type="line"/>
    </contour>
    <contour>
      <point x="353.3" y="768.3" type="line"/>
      <point x="507.0" y="685.9" type="line"/>
      <point x="507.0" y="1428.1" type="line"/>
      <point x="280.4" y="1343.6" type="line"/>
      <point x="631.6" y="1343.6" type="line" smooth="yes"/>
      <point x="781.3" y="1343.6"/>
      <point x="850.5" y="1257.8"/>
      <point x="850.5" y="1055.0" type="curve" smooth="yes"/>
      <point x="850.5" y="857.3"/>
      <point x="790.9" y="768.3"/>
      <point x="631.6" y="768.3" type="curve" smooth="yes"/>
    </contour>
    <contour>
      <point x="548.0" y="668.4" type="line"/>
      <point x="655.0" y="668.4"/>
      <point x="694.6" y="672.6"/>
      <point x="760.8" y="572.1" type="curve" smooth="yes"/>
      <point x="781.8" y="539.5"/>
      <point x="805.3" y="501.1"/>
      <point x="872.0" y="207.8" type="curve" smooth="yes"/>
      <point x="889.6" y="129.3"/>
      <point x="902.8" y="78.0"/>
      <point x="921.7" y="0.0" type="curve"/>
      <point x="1273.2" y="0.0" type="line"/>
      <point x="1251.3" y="79.4"/>
      <point x="1227.8" y="166.8"/>
      <point x="1205.6" y="269.5" type="curve" smooth="yes"/>
      <point x="1141.1" y="565.7"/>
      <point x="1116.7" y="594.1"/>
      <point x="1061.7" y="650.5" type="curve" smooth="yes"/>
      <point x="1015.7" y="696.6"/>
      <point x="939.1" y="718.4"/>
      <point x="881.7" y="720.5" type="curve"/>
    </contour>
  </outline>
</glyph>
<glyph name="S" format="2">
  <advance width="1309.4"/>
  <unicode hex="0053"/>
  <note>
S
</note>
  <anchor x="655.2" y="15.0" name="bottom"/>
  <anchor x="655.2" y="1430.0" name="top"/>
  <outline>
    <contour>
      <point x="658.6" y="-41.0" type="curve" smooth="yes"/>
      <point x="1047.1" y="-41.0"/>
      <point x="1216.7" y="100.5"/>
      <point x="1216.7" y="424.4" type="curve" smooth="yes"/>
      <point x="1216.7" y="657.4"/>
      <point x="1041.6" y="791.0"/>
      <point x="702.4" y="885.2" type="curve" smooth="yes"/>
      <point x="502.4" y="940.9"/>
      <point x="441.8" y="1016.9"/>
      <point x="441.8" y="1124.8" type="curve" smooth="yes"/>
      <point x="441.8" y="1270.7"/>
      <point x="530.4" y="1371.3"/>
      <point x="626.6" y="1371.3" type="curve" smooth="yes"/>
      <point x="762.0" y="1371.3"/>
      <point x="851.3" y="1217.9"/>
      <point x="852.4" y="1092.4" type="curve"/>
      <point x="1158.2" y="1092.4" type="line"/>
      <point x="1131.5" y="1322.7"/>
      <point x="932.6" y="1475.1"/>
      <point x="643.6" y="1475.1" type="curve" smooth="yes"/>
      <point x="290.1" y="1475.1"/>
      <point x="133.1" y="1340.0"/>
      <point x="133.1" y="1049.8" type="curve" smooth="yes"/>
      <point x="133.1" y="869.7"/>
      <point x="272.2" y="751.5"/>
      <point x="597.9" y="647.0" type="curve" smooth="yes"/>
      <point x="826.2" y="573.3"/>
      <point x="922.0" y="500.3"/>
      <point x="922.0" y="363.7" type="curve" smooth="yes"/>
      <point x="922.0" y="196.3"/>
      <point x="813.4" y="69.10000000000001"/>
      <point x="672.6" y="69.10000000000001" type="curve" smooth="yes"/>
      <point x="521.8" y="69.10000000000001"/>
      <point x="417.2" y="219.4"/>
      <point x="401.6" y="424.2" type="curve"/>
      <point x="92.9" y="424.2" type="line"/>
      <point x="108.9" y="132.3"/>
      <point x="302.5" y="-41.0"/>
    </contour>
  </outline>
</glyph>
<glyph name="T" format="2">
  <advance width="1379.3"/>
  <unicode hex="0054"/>
  <note>
T
</note>
  <anchor x="689.8" y="15.0" name="bottom"/>
  <anchor x="689.8" y="715.0" name="center"/>
  <anchor x="689.8" y="1430.0" name="top"/>
  <outline>
    <contour>
      <point x="515.4000000000001" y="0.0" type="line"/>
      <point x="866.7" y="0.0" type="line"/>
      <point x="866.7" y="1408.0" type="line"/>
      <point x="562.0" y="1308.5" type="line"/>
      <point x="1304.5" y="1308.5" type="line"/>
      <point x="1304.5" y="1442.6" type="line"/>
      <point x="74.80000000000001" y="1442.6" type="line"/>
      <point x="74.80000000000001" y="1308.5" type="line"/>
      <point x="820.1" y="1308.5" type="line"/>
      <point x="515.4000000000001" y="1408.0" type="line"/>
    </contour>
  </outline>
</glyph>
<glyph name="U" format="2">
  <advance width="1588.1"/>
  <unicode hex="0055"/>
  <note>
U
</note>
  <anchor x="792.8" y="24.1" name="bottom"/>
  <anchor x="934.3" y="0.0" name="ogonek"/>
  <anchor x="792.8" y="1439.1" name="top"/>
  <anchor x="1472.2" y="1439.1" name="topright"/>
  <outline>
    <contour>
      <point x="793.9" y="-41.3" type="curve" smooth="yes"/>
      <point x="1156.2" y="-41.3"/>
      <point x="1452.7" y="226.2"/>
      <point x="1452.7" y="528.2" type="curve" smooth="yes"/>
      <point x="1452.7" y="1442.6" type="line"/>
      <point x="1245.6" y="1442.6" type="line"/>
      <point x="1242.9" y="511.2" type="line" smooth="yes"/>
      <point x="1242.3" y="246.10000000000002"/>
      <point x="1034.7" y="63.10000000000001"/>
      <point x="795.9" y="63.10000000000001" type="curve" smooth="yes"/>
      <point x="568.5" y="63.10000000000001"/>
      <point x="475.6" y="228.0"/>
      <point x="475.6" y="542.4" type="curve" smooth="yes"/>
      <point x="475.6" y="1442.6" type="line"/>
      <point x="135.4" y="1442.6" type="line"/>
      <point x="135.4" y="550.7" type="line" smooth="yes"/>
      <point x="135.4" y="228.3"/>
      <point x="430.1" y="-41.3"/>
    </contour>
  </outline>
</glyph>
<glyph name="V" format="2">
  <advance width="1420.9"/>
  <unicode hex="0056"/>
  <note>
V
</note>
  <anchor x="710.6" y="15.0" name="bottom"/>
  <anchor x="710.6" y="1430.0" name="top"/>
  <outline>
    <contour>
      <point x="711.3" y="-35.8" type="line"/>
      <point x="1346.1" y="1442.6" type="line"/>
      <point x="1157.7" y="1442.6" type="line"/>
      <point x="675.4" y="307.1" type="line"/>
      <point x="868.3" y="437.8" type="line"/>
      <point x="444.7" y="1442.6" type="line"/>
      <point x="74.8" y="1442.6" type="line"/>
    </contour>
  </outline>
</glyph>
<glyph name="W" format="2">
  <advance width="1973.6"/>
  <unicode hex="0057"/>
  <note>
W
</note>
  <anchor x="991.7" y="0.0" name="bottom"/>
  <anchor x="991.7" y="1432.1" name="top"/>
  <outline>
    <contour>
      <point x="1341.0" y="-24.5" type="line"/>
      <point x="1898.1" y="1442.6" type="line"/>
      <point x="1739.2" y="1442.6" type="line"/>
      <point x="1340.6" y="379.0" type="line"/>
      <point x="1484.8" y="477.0" type="line"/>
      <point x="1080.4" y="1442.6" type="line"/>
      <point x="706.9" y="1442.6" type="line"/>
    </contour>
    <contour>
      <point x="703.3" y="-24.5" type="line"/>
      <point x="1053.5" y="898.8" type="line"/>
      <point x="979.9" y="1123.0" type="line"/>
      <point x="703.5" y="379.9" type="line"/>
      <point x="850.1" y="473.1" type="line"/>
      <point x="443.7" y="1442.6" type="line"/>
      <point x="74.8" y="1442.6" type="line"/>
    </contour>
    <contour>
      <point x="1086.5" y="881.1" type="line"/>
      <point x="1295.6" y="1442.6" type="line"/>
      <point x="1135.0" y="1442.6" type="line"/>
      <point x="1012.6" y="1105.9" type="line"/>
    </contour>
  </outline>
</glyph>
<glyph name="X" format="2">
  <advance width="1481.0"/>
  <unicode hex="0058"/>
  <note>
X
</note>
  <anchor x="739.3" y="15.0" name="bottom"/>
  <anchor x="739.3" y="1430.0" name="top"/>
  <outline>
    <contour>
      <point x="1004.0" y="0.0" type="line"/>
      <point x="1410.0" y="0.0" type="line"/>
      <point x="484.0" y="1439.6" type="line"/>
      <point x="78.3" y="1439.6" type="line"/>
    </contour>
    <contour>
      <point x="98.3" y="0.0" type="line"/>
      <point x="293.9" y="0.0" type="line"/>
      <point x="789.0" y="748.6" type="line"/>
      <point x="673.4" y="874.0" type="line"/>
    </contour>
    <contour>
      <point x="755.6" y="663.4" type="line"/>
      <point x="1266.8" y="1449.6" type="line"/>
      <point x="1071.5" y="1449.6" type="line"/>
      <point x="638.7" y="788.8" type="line"/>
    </contour>
  </outline>
</glyph>
<glyph name="Y" format="2">
  <advance width="1290.5"/>
  <unicode hex="0059"/>
  <note>
Y
</note>
  <anchor x="654.1" y="15.0" name="bottom"/>
  <anchor x="645.1" y="1430.0" name="top"/>
  <anchor x="24.5" y="1430.0" name="topleft"/>
  <outline>
    <contour>
      <point x="478.1" y="0.0" type="line"/>
      <point x="829.1" y="0.0" type="line"/>
      <point x="829.1" y="610.1" type="line"/>
      <point x="1217.1" y="1442.6" type="line"/>
      <point x="1029.2" y="1442.6" type="line"/>
      <point x="566.2" y="439.29999999999995" type="line"/>
      <point x="823.7" y="690.5" type="line"/>
      <point x="462.79999999999995" y="1442.6" type="line"/>
      <point x="73.1" y="1442.6" type="line"/>
      <point x="478.1" y="608.7" type="line"/>
    </contour>
  </outline>
</glyph>
<glyph name="Z" format="2">
  <advance width="1395.7"/>
  <unicode hex="005A"/>
  <note>
Z
</note>
  <anchor x="697.5" y="15.0" name="bottom"/>
  <anchor x="697.5" y="715.0" name="center"/>
  <anchor x="697.5" y="1430.0" name="top"/>
  <outline>
    <contour>
      <point x="71.7" y="0.0" type="line"/>
      <point x="1305.5" y="0.0" type="line"/>
      <point x="1305.5" y="125.10000000000001" type="line"/>
      <point x="173.3" y="125.10000000000001" type="line"/>
      <point x="419.0" y="13.599999999999998" type="line"/>
      <point x="1298.6" y="1442.6" type="line"/>
      <point x="176.6" y="1442.6" type="line"/>
      <point x="176.6" y="1317.5" type="line"/>
      <point x="1185.3" y="1317.5" type="line"/>
      <point x="952.9" y="1422.6" type="line"/>
    </contour>
  </outline>
</glyph>
<glyph name="bracketleft" format="2">
  <advance width="695.0"/>
  <unicode hex="005B"/>
  <note>
bracketleft
</note>
  <outline>
    <contour>
      <point x="155.0" y="-406.8" type="line"/>
      <point x="616.9" y="-406.8" type="line"/>
      <point x="616.9" y="-268.4" type="line"/>
      <point x="368.79999999999995" y="-268.4" type="line"/>
      <point x="368.79999999999995" y="1335.6" type="line"/>
      <point x="616.9" y="1335.6" type="line"/>
      <point x="616.9" y="1473.7" type="line"/>
      <point x="155.0" y="1473.7" type="line"/>
    </contour>
  </outline>
</glyph>
<glyph name="bracketright" format="2">
  <advance width="695.0"/>
  <unicode hex="005D"/>
  <note>
bracketright
</note>
  <outline>
    <contour>
      <point x="78.1" y="-406.8" type="line"/>
      <point x="540.0" y="-406.8" type="line"/>
      <point x="540.0" y="1473.7" type="line"/>
      <point x="78.1" y="1473.7" type="line"/>
      <point x="78.1" y="1335.6" type="line"/>
      <point x="326.2" y="1335.6" type="line"/>
      <point x="326.2" y="-268.4" type="line"/>
      <point x="78.1" y="-268.4" type="line"/>
    </contour>
  </outline>
</glyph>
<glyph name="asciicircum" format="2">
  <advance width="1202.2"/>
  <unicode hex="005E"/>
  <note>
asciicircum
</note>
  <outline>
    <contour>
      <point x="116.0" y="805.8" type="line"/>
      <point x="352.8" y="805.8" type="line"/>
      <point x="646.1" y="1296.7" type="line"/>
      <point x="553.2" y="1298.2" type="line"/>
      <point x="849.4" y="805.8" type="line"/>
      <point x="1086.2" y="805.8" type="line"/>
      <point x="712.1" y="1441.4" type="line"/>
      <point x="490.1" y="1441.4" type="line"/>
    </contour>
  </outline>
</glyph>
<glyph name="underscore" format="2">
  <advance width="1726.6"/>
  <unicode hex="005F"/>
  <note>
underscore
</note>
  <outline>
    <contour>
      <point x="83.0" y="-442.1" type="line"/>
      <point x="1643.6" y="-442.1" type="line"/>
      <point x="1643.6" y="-303.7" type="line"/>
      <point x="83.0" y="-303.7" type="line"/>
    </contour>
  </outline>
</glyph>
<glyph name="a" format="2">
  <advance width="1348.7"/>
  <unicode hex="0061"/>
  <note>
a
</note>
  <anchor x="590.2" y="6.0" name="bottom"/>
  <anchor x="1098.8" y="0.0" name="ogonek"/>
  <anchor x="593.2" y="972.1" name="top"/>
  <outline>
    <contour>
      <point x="560.1" y="-37.8" type="curve" smooth="yes"/>
      <point x="785.1" y="-37.8"/>
      <point x="928.3" y="75.0"/>
      <point x="978.5" y="292.1" type="curve"/>
      <point x="888.4" y="354.2" type="line"/>
      <point x="888.4" y="0.0" type="line"/>
      <point x="1229.4" y="0.0" type="line"/>
      <point x="1229.4" y="965.6" type="line"/>
      <point x="884.4" y="965.6" type="line"/>
      <point x="884.4" y="592.9" type="line"/>
      <point x="973.6" y="653.0" type="line"/>
      <point x="928.6" y="871.2"/>
      <point x="779.6" y="991.9"/>
      <point x="554.1" y="991.9" type="curve" smooth="yes"/>
      <point x="260.1" y="991.9"/>
      <point x="68.1" y="785.4"/>
      <point x="68.1" y="470.2" type="curve" smooth="yes"/>
      <point x="68.1" y="164.1"/>
      <point x="261.7" y="-37.8"/>
    </contour>
    <contour>
      <point x="598.9" y="74.10000000000001" type="curve" smooth="yes"/>
      <point x="479.9" y="74.10000000000001"/>
      <point x="407.4" y="221.5"/>
      <point x="407.4" y="474.9" type="curve" smooth="yes"/>
      <point x="407.4" y="732.8"/>
      <point x="478.9" y="880.0"/>
      <point x="593.9" y="880.0" type="curve" smooth="yes"/>
      <point x="721.5" y="880.0"/>
      <point x="830.5" y="687.8"/>
      <point x="830.5" y="466.9" type="curve" smooth="yes"/>
      <point x="830.5" y="258.0"/>
      <point x="726.5" y="74.10000000000001"/>
    </contour>
  </outline>
</glyph>
<glyph name="b" format="2">
  <advance width="1306.4"/>
  <unicode hex="0062"/>
  <note>
b
</note>
  <anchor x="667.4" y="21.000000000000007" name="bottom"/>
  <anchor x="667.4" y="1524.0" name="top"/>
  <outline>
    <contour>
      <point x="760.3" y="-35.1" type="curve" smooth="yes"/>
      <point x="1057.3" y="-35.1"/>
      <point x="1238.3" y="166.1"/>
      <point x="1238.3" y="471.7" type="curve" smooth="yes"/>
      <point x="1238.3" y="792.3"/>
      <point x="1041.4" y="984.9"/>
      <point x="752.3" y="984.9" type="curve" smooth="yes"/>
      <point x="521.9" y="984.9"/>
      <point x="426.79999999999995" y="864.5"/>
      <point x="381.79999999999995" y="647.2" type="curve"/>
      <point x="471.0" y="585.9" type="line"/>
      <point x="471.0" y="1524.0" type="line"/>
      <point x="128.8" y="1524.0" type="line"/>
      <point x="128.8" y="0.0" type="line"/>
      <point x="467.0" y="0.0" type="line"/>
      <point x="467.0" y="347.2" type="line"/>
      <point x="369.9" y="294.2" type="line"/>
      <point x="420.1" y="78.0"/>
      <point x="533.9" y="-35.1"/>
    </contour>
    <contour>
      <point x="707.5" y="76.20000000000002" type="curve" smooth="yes"/>
      <point x="582.7" y="76.20000000000002"/>
      <point x="475.90000000000003" y="247.5"/>
      <point x="475.90000000000003" y="461.4" type="curve" smooth="yes"/>
      <point x="475.90000000000003" y="683.4"/>
      <point x="585.6" y="873.6"/>
      <point x="712.5" y="873.6" type="curve" smooth="yes"/>
      <point x="828.2" y="873.6"/>
      <point x="899.0" y="735.1"/>
      <point x="899.0" y="476.4" type="curve" smooth="yes"/>
      <point x="899.0" y="218.3"/>
      <point x="829.3" y="76.20000000000002"/>
    </contour>
  </outline>
</glyph>
<glyph name="c" format="2">
  <advance width="1066.2"/>
  <unicode hex="0063"/>
  <note>
c
</note>
  <anchor x="532.9" y="-20.0" name="bottom"/>
  <anchor x="608.9" y="979.1" name="top"/>
  <outline>
    <contour>
      <point x="608.8" y="-44.8" type="curve" smooth="yes"/>
      <point x="745.6" y="-44.8"/>
      <point x="896.8" y="0.0"/>
      <point x="978.5" y="69.4" type="curve"/>
      <point x="978.5" y="321.29999999999995" type="line"/>
      <point x="864.9" y="150.0"/>
      <point x="725.6" y="66.5"/>
      <point x="625.1" y="66.5" type="curve" smooth="yes"/>
      <point x="476.5" y="66.5"/>
      <point x="410.8" y="256.0"/>
      <point x="410.8" y="470.1" type="curve" smooth="yes"/>
      <point x="410.8" y="695.2"/>
      <point x="482.4" y="880.6"/>
      <point x="632.8" y="880.6" type="curve" smooth="yes"/>
      <point x="723.1" y="880.6"/>
      <point x="833.4" y="818.1"/>
      <point x="967.3" y="637.0" type="curve"/>
      <point x="967.3" y="883.3" type="line"/>
      <point x="852.7" y="955.5"/>
      <point x="726.8" y="991.9"/>
      <point x="606.0" y="991.9" type="curve" smooth="yes"/>
      <point x="291.6" y="991.9"/>
      <point x="68.1" y="768.3"/>
      <point x="68.1" y="463.8" type="curve" smooth="yes"/>
      <point x="68.1" y="162.9"/>
      <point x="288.0" y="-44.8"/>
    </contour>
  </outline>
</glyph>
<glyph name="d" format="2">
  <advance width="1306.4"/>
  <unicode hex="0064"/>
  <note>
d
</note>
  <anchor x="591.0" y="21.000000000000007" name="bottom"/>
  <anchor x="1001.8" y="1305.7" name="center"/>
  <anchor x="640.0" y="1524.0" name="top"/>
  <anchor x="1319.2" y="1520.5" name="topright"/>
  <outline>
    <contour>
      <point x="546.1" y="-35.1" type="curve" smooth="yes"/>
      <point x="772.5" y="-35.1"/>
      <point x="886.3" y="78.0"/>
      <point x="936.5" y="294.2" type="curve"/>
      <point x="839.4" y="347.2" type="line"/>
      <point x="839.4" y="0.0" type="line"/>
      <point x="1177.6" y="0.0" type="line"/>
      <point x="1177.6" y="1524.0" type="line"/>
      <point x="835.4" y="1524.0" type="line"/>
      <point x="835.4" y="585.9" type="line"/>
      <point x="924.6" y="647.2" type="line"/>
      <point x="879.6" y="864.5"/>
      <point x="784.5" y="984.9"/>
      <point x="554.1" y="984.9" type="curve" smooth="yes"/>
      <point x="265.0" y="984.9"/>
      <point x="68.1" y="793.7"/>
      <point x="68.1" y="471.7" type="curve" smooth="yes"/>
      <point x="68.1" y="167.5"/>
      <point x="249.1" y="-35.1"/>
    </contour>
    <contour>
      <point x="598.9" y="76.2" type="curve" smooth="yes"/>
      <point x="477.8" y="76.2"/>
      <point x="407.4" y="216.9"/>
      <point x="407.4" y="476.4" type="curve" smooth="yes"/>
      <point x="407.4" y="733.7"/>
      <point x="477.5" y="873.6"/>
      <point x="593.9" y="873.6" type="curve" smooth="yes"/>
      <point x="720.1" y="873.6"/>
      <point x="830.5" y="683.4"/>
      <point x="830.5" y="461.4" type="curve" smooth="yes"/>
      <point x="830.5" y="247.5"/>
      <point x="724.4" y="76.2"/>
    </contour>
  </outline>
</glyph>
<glyph name="e" format="2">
  <advance width="1183.8"/>
  <unicode hex="0065"/>
  <note>
e
</note>
  <anchor x="585.3" y="-16.0" name="bottom"/>
  <anchor x="753.2" y="10.0" name="ogonek"/>
  <anchor x="599.3" y="965.1" name="top"/>
  <outline>
    <contour>
      <point x="605.1" y="-34.3" type="curve" smooth="yes"/>
      <point x="853.6" y="-34.3"/>
      <point x="1019.4" y="80.3"/>
      <point x="1098.8" y="300.8" type="curve"/>
      <point x="867.1" y="300.8" type="line"/>
      <point x="846.6" y="189.8"/>
      <point x="715.5" y="76.30000000000001"/>
      <point x="614.4" y="76.30000000000001" type="curve" smooth="yes"/>
      <point x="482.9" y="76.30000000000001"/>
      <point x="411.7" y="264.0"/>
      <point x="411.7" y="469.3" type="curve" smooth="yes"/>
      <point x="411.7" y="638.7"/>
      <point x="494.0" y="870.5"/>
      <point x="605.1" y="870.5" type="curve" smooth="yes"/>
      <point x="690.3" y="870.5"/>
      <point x="758.1" y="730.2"/>
      <point x="781.3" y="495.9" type="curve"/>
      <point x="1125.2" y="495.9" type="line"/>
      <point x="1082.6" y="811.1"/>
      <point x="900.1" y="981.4"/>
      <point x="599.1" y="981.4" type="curve" smooth="yes"/>
      <point x="280.1" y="981.4"/>
      <point x="66.7" y="777.8"/>
      <point x="66.7" y="471.9" type="curve" smooth="yes"/>
      <point x="66.7" y="167.3"/>
      <point x="277.3" y="-34.3"/>
    </contour>
    <contour>
      <point x="387.7" y="494.9" type="line"/>
      <point x="1057.0" y="495.9" type="line"/>
      <point x="1057.0" y="589.8" type="line"/>
      <point x="349.5" y="589.8" type="line"/>
    </contour>
  </outline>
</glyph>
<glyph name="f" format="2">
  <advance width="864.5"/>
  <unicode hex="0066"/>
  <note>
f
</note>
  <anchor x="432.4" y="21.000000000000007" name="bottom"/>
  <anchor x="432.4" y="1524.0" name="top"/>
  <outline>
    <contour>
      <point x="230.70000000000002" y="0.0" type="line"/>
      <point x="571.7" y="0.0" type="line"/>
      <point x="571.7" y="1029.8" type="line" smooth="yes"/>
      <point x="571.7" y="1170.9"/>
      <point x="496.7" y="1410.1"/>
      <point x="604.2" y="1447.2" type="curve" smooth="yes"/>
      <point x="668.6" y="1436.0"/>
      <point x="678.0" y="1417.3"/>
      <point x="678.0" y="1360.0" type="curve" smooth="yes"/>
      <point x="678.0" y="1334.1"/>
      <point x="671.5" y="1285.8"/>
      <point x="661.2" y="1244.3" type="curve"/>
      <point x="878.8" y="1244.3" type="line"/>
      <point x="888.6" y="1289.1"/>
      <point x="893.1" y="1330.3"/>
      <point x="893.1" y="1354.1" type="curve" smooth="yes"/>
      <point x="893.1" y="1496.8"/>
      <point x="742.2" y="1576.6"/>
      <point x="556.6" y="1576.6" type="curve" smooth="yes"/>
      <point x="330.5" y="1576.6"/>
      <point x="230.70000000000002" y="1458.4"/>
      <point x="230.70000000000002" y="1134.3" type="curve" smooth="yes"/>
    </contour>
    <contour>
      <point x="44.1" y="837.7" type="line"/>
      <point x="782.3" y="837.7" type="line"/>
      <point x="782.3" y="947.6" type="line"/>
      <point x="44.1" y="947.6" type="line"/>
    </contour>
  </outline>
</glyph>
<glyph name="g" format="2">
  <advance width="1306.2"/>
  <unicode hex="0067"/>
  <note>
g
</note>
  <anchor x="653.1" y="-505.0" name="bottom"/>
  <anchor x="620.1" y="965.1" name="top"/>
  <outline>
    <contour>
      <point x="599.6" y="-574.3" type="curve" smooth="yes"/>
      <point x="972.9" y="-574.3"/>
      <point x="1180.0" y="-329.8"/>
      <point x="1180.0" y="101.30000000000001" type="curve" smooth="yes"/>
      <point x="1180.0" y="955.1" type="line"/>
      <point x="837.8" y="955.1" type="line"/>
      <point x="837.8" y="679.7" type="line"/>
      <point x="958.6" y="706.8" type="line"/>
      <point x="901.9" y="883.2"/>
      <point x="759.9" y="981.4"/>
      <point x="556.5" y="981.4" type="curve" smooth="yes"/>
      <point x="263.9" y="981.4"/>
      <point x="70.5" y="774.9"/>
      <point x="70.5" y="459.7" type="curve" smooth="yes"/>
      <point x="70.5" y="146.6"/>
      <point x="265.5" y="-55.9"/>
      <point x="562.5" y="-55.9" type="curve" smooth="yes"/>
      <point x="766.8" y="-55.9"/>
      <point x="904.5" y="37.3"/>
      <point x="961.9" y="210.8" type="curve"/>
      <point x="841.8" y="268.4" type="line"/>
      <point x="841.8" y="34.400000000000006" type="line"/>
      <point x="841.8" y="-264.6"/>
      <point x="735.6" y="-463.0"/>
      <point x="573.4" y="-463.0" type="curve" smooth="yes"/>
      <point x="436.8" y="-463.0"/>
      <point x="347.3" y="-355.5"/>
      <point x="330.9" y="-207.7" type="curve"/>
      <point x="76.6" y="-207.7" type="line"/>
      <point x="133.8" y="-448.2"/>
      <point x="307.8" y="-574.3"/>
    </contour>
    <contour>
      <point x="597.4" y="56.000000000000014" type="curve" smooth="yes"/>
      <point x="479.7" y="56.000000000000014"/>
      <point x="409.79999999999995" y="204.0"/>
      <point x="409.79999999999995" y="464.4" type="curve" smooth="yes"/>
      <point x="409.79999999999995" y="722.3"/>
      <point x="478.0" y="869.8"/>
      <point x="592.4" y="869.8" type="curve" smooth="yes"/>
      <point x="715.5" y="869.8"/>
      <point x="824.8" y="679.4"/>
      <point x="824.8" y="456.4" type="curve" smooth="yes"/>
      <point x="824.8" y="242.6"/>
      <point x="721.2" y="56.000000000000014"/>
    </contour>
  </outline>
</glyph>
<glyph name="h" format="2">
  <advance width="1251.6"/>
  <unicode hex="0068"/>
  <note>
h
</note>
  <anchor x="625.1" y="0.0" name="bottom"/>
  <anchor x="314.29999999999995" y="1333.7" name="center"/>
  <anchor x="625.1" y="1524.0" name="top"/>
  <outline>
    <contour>
      <point x="128.8" y="0.0" type="line"/>
      <point x="476.0" y="0.0" type="line"/>
      <point x="476.0" y="499.5" type="line" smooth="yes"/>
      <point x="476.0" y="702.0"/>
      <point x="585.6" y="868.3"/>
      <point x="693.3" y="868.3" type="curve" smooth="yes"/>
      <point x="774.8" y="868.3"/>
      <point x="804.6" y="773.2"/>
      <point x="804.6" y="531.1" type="curve" smooth="yes"/>
      <point x="804.6" y="0.0" type="line"/>
      <point x="1150.4" y="0.0" type="line"/>
      <point x="1150.4" y="616.4" type="line" smooth="yes"/>
      <point x="1150.4" y="837.8"/>
      <point x="985.8" y="980.8"/>
      <point x="738.7" y="980.8" type="curve" smooth="yes"/>
      <point x="533.3" y="980.8"/>
      <point x="400.8" y="882.5"/>
      <point x="341.0" y="687.4" type="curve"/>
      <point x="474.3" y="456.9" type="line"/>
      <point x="475.5" y="1527.5" type="line"/>
      <point x="128.8" y="1527.5" type="line"/>
    </contour>
  </outline>
</glyph>
<glyph name="k" format="2">
  <advance width="1224.5"/>
  <unicode hex="006B"/>
  <note>
k
</note>
  <guideline x="823.5" y="680.0" angle="49.455600000000004"/>
  <anchor x="615.1" y="0.0" name="bottom"/>
  <anchor x="615.1" y="1524.0" name="top"/>
  <outline>
    <contour>
      <point x="128.8" y="0.0" type="line"/>
      <point x="469.5" y="0.0" type="line"/>
      <point x="469.5" y="1527.5" type="line"/>
      <point x="128.8" y="1527.5" type="line"/>
    </contour>
    <contour>
      <point x="836.1" y="0.0" type="line"/>
      <point x="1185.3" y="0.0" type="line"/>
      <point x="694.3" y="604.6" type="line"/>
      <point x="518.6" y="381.8" type="line"/>
    </contour>
    <contour>
      <point x="406.4" y="196.70000000000002" type="line"/>
      <point x="1093.2" y="966.3" type="line"/>
      <point x="866.1" y="966.3" type="line"/>
      <point x="442.0" y="481.5" type="line"/>
    </contour>
  </outline>
</glyph>
<glyph name="l" format="2">
  <advance width="598.3"/>
  <unicode hex="006C"/>
  <note>
l
</note>
  <anchor x="269.3" y="0.0" name="bottom"/>
  <anchor x="299.3" y="788.3" name="center"/>
  <anchor x="801.4000000000001" y="789.0" name="dot"/>
  <anchor x="389.3" y="1522.1" name="top"/>
  <anchor x="583.1" y="1492.9" name="topright"/>
  <outline>
    <contour>
      <point x="128.8" y="0.0" type="line"/>
      <point x="469.5" y="0.0" type="line"/>
      <point x="469.5" y="1527.5" type="line"/>
      <point x="128.8" y="1527.5" type="line"/>
    </contour>
  </outline>
</glyph>
<glyph name="m" format="2">
  <advance width="1846.1"/>
  <unicode hex="006D"/>
  <note>
m
</note>
  <anchor x="937.2" y="0.0" name="bottom"/>
  <anchor x="951.2" y="979.1" name="top"/>
  <outline>
    <contour>
      <point x="117.9" y="0.0" type="line"/>
      <point x="462.5" y="0.0" type="line"/>
      <point x="462.5" y="499.5" type="line" smooth="yes"/>
      <point x="462.5" y="685.2"/>
      <point x="553.0" y="868.9"/>
      <point x="644.1" y="868.9" type="curve" smooth="yes"/>
      <point x="719.8" y="868.9"/>
      <point x="774.5" y="741.0"/>
      <point x="774.5" y="531.1" type="curve" smooth="yes"/>
      <point x="774.5" y="0.0" type="line"/>
      <point x="1119.1" y="0.0" type="line"/>
      <point x="1119.1" y="499.5" type="line" smooth="yes"/>
      <point x="1119.1" y="698.5"/>
      <point x="1192.0" y="859.1"/>
      <point x="1279.6" y="859.1" type="curve" smooth="yes"/>
      <point x="1352.5" y="859.1"/>
      <point x="1400.3" y="747.3"/>
      <point x="1400.3" y="531.1" type="curve" smooth="yes"/>
      <point x="1400.3" y="0.0" type="line"/>
      <point x="1744.9" y="0.0" type="line"/>
      <point x="1744.9" y="616.4" type="line" smooth="yes"/>
      <point x="1744.9" y="838.4"/>
      <point x="1593.8" y="981.4"/>
      <point x="1353.2" y="981.4" type="curve" smooth="yes"/>
      <point x="1166.3" y="981.4"/>
      <point x="1082.6" y="895.0"/>
      <point x="986.6" y="675.7" type="curve"/>
      <point x="1104.4" y="689.8" type="line"/>
      <point x="1068.1" y="867.1"/>
      <point x="923.0" y="981.4"/>
      <point x="719.8" y="981.4" type="curve" smooth="yes"/>
      <point x="546.7" y="981.4"/>
      <point x="453.2" y="896.9"/>
      <point x="377.20000000000005" y="731.5" type="curve"/>
      <point x="463.0" y="604.0" type="line"/>
      <point x="463.9" y="966.3" type="line"/>
      <point x="117.9" y="966.3" type="line"/>
    </contour>
  </outline>
</glyph>
<glyph name="n" format="2">
  <advance width="1232.3"/>
  <unicode hex="006E"/>
  <note>
n
</note>
  <anchor x="633.8" y="0.0" name="bottom"/>
  <anchor x="663.2" y="961.6" name="top"/>
  <outline>
    <contour>
      <point x="117.9" y="0.0" type="line"/>
      <point x="463.7" y="0.0" type="line"/>
      <point x="463.7" y="499.5" type="line" smooth="yes"/>
      <point x="463.7" y="692.2"/>
      <point x="575.4" y="865.5"/>
      <point x="674.0" y="865.5" type="curve" smooth="yes"/>
      <point x="751.3" y="865.5"/>
      <point x="785.3" y="757.8"/>
      <point x="785.3" y="538.1" type="curve" smooth="yes"/>
      <point x="785.3" y="0.0" type="line"/>
      <point x="1131.1" y="0.0" type="line"/>
      <point x="1131.1" y="609.4" type="line" smooth="yes"/>
      <point x="1131.1" y="837.8"/>
      <point x="976.3" y="981.4"/>
      <point x="729.9" y="981.4" type="curve" smooth="yes"/>
      <point x="524.5" y="981.4"/>
      <point x="429.8" y="881.1"/>
      <point x="370.70000000000005" y="684.6" type="curve"/>
      <point x="460.4" y="477.20000000000005" type="line"/>
      <point x="463.7" y="966.3" type="line"/>
      <point x="117.9" y="966.3" type="line"/>
    </contour>
  </outline>
</glyph>
<glyph name="o" format="2">
  <advance width="1217.0"/>
  <unicode hex="006F"/>
  <note>
o
</note>
  <anchor x="609.0" y="6.0" name="bottom"/>
  <anchor x="609.0" y="472.9" name="center"/>
  <anchor x="749.0" y="0.0" name="ogonek"/>
  <anchor x="609.0" y="972.1" name="top"/>
  <anchor x="1190.7" y="945.1" name="topright"/>
  <outline>
    <contour>
      <point x="609.0" y="-37.8" type="curve" smooth="yes"/>
      <point x="934.2" y="-37.8"/>
      <point x="1148.9" y="158.2"/>
      <point x="1148.9" y="471.5" type="curve" smooth="yes"/>
      <point x="1148.9" y="785.1"/>
      <point x="932.7" y="991.2"/>
      <point x="609.0" y="991.2" type="curve" smooth="yes"/>
      <point x="283.6" y="991.2"/>
      <point x="68.1" y="783.7"/>
      <point x="68.1" y="471.5" type="curve" smooth="yes"/>
      <point x="68.1" y="158.2"/>
      <point x="283.8" y="-37.8"/>
    </contour>
    <contour>
      <point x="609.0" y="73.2" type="curve" smooth="yes"/>
      <point x="510.8" y="73.2"/>
      <point x="419.9" y="258.1"/>
      <point x="419.9" y="471.2" type="curve" smooth="yes"/>
      <point x="419.9" y="686.9"/>
      <point x="511.79999999999995" y="880.2"/>
      <point x="609.0" y="880.2" type="curve" smooth="yes"/>
      <point x="706.5" y="880.2"/>
      <point x="800.1" y="683.4"/>
      <point x="800.1" y="471.5" type="curve" smooth="yes"/>
      <point x="800.1" y="259.4"/>
      <point x="707.2" y="73.2"/>
    </contour>
  </outline>
</glyph>
<glyph name="p" format="2">
  <advance width="1307.8"/>
  <unicode hex="0070"/>
  <note>
p
</note>
  <anchor x="698.9" y="21.000000000000007" name="bottom"/>
  <anchor x="698.9" y="945.1" name="top"/>
  <outline>
    <contour>
      <point x="130.2" y="-526.0" type="line"/>
      <point x="472.4" y="-526.0" type="line"/>
      <point x="472.4" y="359.2" type="line"/>
      <point x="383.20000000000005" y="297.9" type="line"/>
      <point x="428.20000000000005" y="80.6"/>
      <point x="525.4" y="-40.1"/>
      <point x="753.7" y="-40.1" type="curve" smooth="yes"/>
      <point x="1044.9" y="-40.1"/>
      <point x="1239.7" y="159.1"/>
      <point x="1239.7" y="480.4" type="curve" smooth="yes"/>
      <point x="1239.7" y="786.5"/>
      <point x="1060.8" y="995.4"/>
      <point x="761.7" y="995.4" type="curve" smooth="yes"/>
      <point x="537.4" y="995.4"/>
      <point x="421.5" y="882.3"/>
      <point x="371.3" y="666.1" type="curve"/>
      <point x="468.40000000000003" y="599.1" type="line"/>
      <point x="468.40000000000003" y="966.3" type="line"/>
      <point x="130.2" y="966.3" type="line"/>
    </contour>
    <contour>
      <point x="713.9" y="71.19999999999999" type="curve" smooth="yes"/>
      <point x="588.4" y="71.19999999999999"/>
      <point x="477.3" y="261.7"/>
      <point x="477.3" y="483.7" type="curve" smooth="yes"/>
      <point x="477.3" y="698.8"/>
      <point x="582.7" y="884.1"/>
      <point x="708.9" y="884.1" type="curve" smooth="yes"/>
      <point x="829.3" y="884.1"/>
      <point x="900.4" y="736.4"/>
      <point x="900.4" y="475.7" type="curve" smooth="yes"/>
      <point x="900.4" y="218.4"/>
      <point x="831.0" y="71.19999999999999"/>
    </contour>
  </outline>
</glyph>
<glyph name="q" format="2">
  <advance width="1296.9"/>
  <unicode hex="0071"/>
  <note>
q
</note>
  <anchor x="625.2" y="21.000000000000007" name="bottom"/>
  <anchor x="625.2" y="945.1" name="top"/>
  <outline>
    <contour>
      <point x="835.4" y="-526.0" type="line"/>
      <point x="1177.6" y="-526.0" type="line"/>
      <point x="1177.6" y="966.3" type="line"/>
      <point x="839.4" y="966.3" type="line"/>
      <point x="839.4" y="597.9" type="line"/>
      <point x="936.5" y="664.9" type="line"/>
      <point x="886.3" y="881.1"/>
      <point x="770.4" y="995.4"/>
      <point x="546.1" y="995.4" type="curve" smooth="yes"/>
      <point x="247.0" y="995.4"/>
      <point x="68.1" y="786.0"/>
      <point x="68.1" y="480.4" type="curve" smooth="yes"/>
      <point x="68.1" y="159.8"/>
      <point x="262.9" y="-40.1"/>
      <point x="554.1" y="-40.1" type="curve" smooth="yes"/>
      <point x="782.4" y="-40.1"/>
      <point x="879.6" y="80.6"/>
      <point x="924.6" y="297.9" type="curve"/>
      <point x="835.4" y="359.2" type="line"/>
    </contour>
    <contour>
      <point x="593.9" y="71.19999999999999" type="curve" smooth="yes"/>
      <point x="476.8" y="71.19999999999999"/>
      <point x="407.4" y="218.4"/>
      <point x="407.4" y="475.7" type="curve" smooth="yes"/>
      <point x="407.4" y="735.2"/>
      <point x="478.5" y="884.1"/>
      <point x="598.9" y="884.1" type="curve" smooth="yes"/>
      <point x="725.1" y="884.1"/>
      <point x="830.5" y="697.6"/>
      <point x="830.5" y="483.7" type="curve" smooth="yes"/>
      <point x="830.5" y="261.7"/>
      <point x="719.4" y="71.19999999999999"/>
    </contour>
  </outline>
</glyph>
<glyph name="r" format="2">
  <advance width="1002.5"/>
  <unicode hex="0072"/>
  <note>
r
</note>
  <anchor x="253.20000000000002" y="0.0" name="bottom"/>
  <anchor x="686.0" y="961.6" name="top"/>
  <outline>
    <contour>
      <point x="117.9" y="0.0" type="line"/>
      <point x="463.7" y="0.0" type="line"/>
      <point x="463.7" y="583.5" type="line" smooth="yes"/>
      <point x="463.7" y="722.3"/>
      <point x="560.0" y="867.2"/>
      <point x="647.4" y="867.2" type="curve" smooth="yes"/>
      <point x="674.7" y="867.2"/>
      <point x="729.1" y="844.7"/>
      <point x="716.8" y="756.1" type="curve" smooth="yes"/>
      <point x="715.6" y="705.4"/>
      <point x="701.9" y="674.5"/>
      <point x="683.3" y="650.6" type="curve"/>
      <point x="920.8" y="601.2" type="line"/>
      <point x="944.3" y="671.4"/>
      <point x="949.3" y="734.7"/>
      <point x="949.3" y="765.2" type="curve" smooth="yes"/>
      <point x="949.3" y="918.4"/>
      <point x="802.7" y="981.4"/>
      <point x="679.5" y="981.4" type="curve" smooth="yes"/>
      <point x="497.9" y="981.4"/>
      <point x="444.2" y="854.1"/>
      <point x="381.6" y="597.4" type="curve"/>
      <point x="462.5" y="580.8" type="line"/>
      <point x="463.7" y="966.3" type="line"/>
      <point x="117.9" y="966.3" type="line"/>
    </contour>
  </outline>
</glyph>
<glyph name="s" format="2">
  <advance width="1006.6"/>
  <unicode hex="0073"/>
  <note>
s
</note>
  <anchor x="465.5" y="-7.0" name="bottom"/>
  <anchor x="506.8" y="965.6" name="top"/>
  <outline>
    <contour>
      <point x="495.0" y="-35.1" type="curve" smooth="yes"/>
      <point x="767.6" y="-34.2"/>
      <point x="939.3" y="55.5"/>
      <point x="938.7" y="268.9" type="curve" smooth="yes"/>
      <point x="938.1" y="506.7"/>
      <point x="698.2" y="581.4"/>
      <point x="516.7" y="617.1" type="curve" smooth="yes"/>
      <point x="369.3" y="646.1"/>
      <point x="341.7" y="685.2"/>
      <point x="341.7" y="748.6" type="curve" smooth="yes"/>
      <point x="341.7" y="841.0"/>
      <point x="392.0" y="875.8"/>
      <point x="497.2" y="876.1" type="curve" smooth="yes"/>
      <point x="605.0" y="876.4"/>
      <point x="730.5" y="845.0"/>
      <point x="882.3" y="680.3" type="curve"/>
      <point x="881.7" y="876.8" type="line"/>
      <point x="766.0" y="949.2"/>
      <point x="652.9" y="991.5"/>
      <point x="497.6" y="991.2" type="curve" smooth="yes"/>
      <point x="271.5" y="990.9"/>
      <point x="92.9" y="903.4"/>
      <point x="93.5" y="707.0" type="curve" smooth="yes"/>
      <point x="94.1" y="548.9"/>
      <point x="210.9" y="456.6"/>
      <point x="444.2" y="404.2" type="curve" smooth="yes"/>
      <point x="607.4" y="367.1"/>
      <point x="654.5" y="330.6"/>
      <point x="654.5" y="231.6" type="curve" smooth="yes"/>
      <point x="654.5" y="115.4"/>
      <point x="551.7" y="85.0"/>
      <point x="483.1" y="85.0" type="curve" smooth="yes"/>
      <point x="358.5" y="84.4"/>
      <point x="250.1" y="133.2"/>
      <point x="78.1" y="340.7" type="curve"/>
      <point x="79.0" y="107.0" type="line"/>
      <point x="145.1" y="35.8"/>
      <point x="256.9" y="-35.7"/>
    </contour>
  </outline>
</glyph>
<glyph name="t" format="2">
  <advance width="788.3"/>
  <unicode hex="0074"/>
  <note>
t
</note>
  <anchor x="426.3" y="-10.0" name="bottom"/>
  <anchor x="400.3" y="584.9" name="center"/>
  <anchor x="400.3" y="945.1" name="top"/>
  <anchor x="761.8" y="1400.1" name="topright"/>
  <outline>
    <contour>
      <point x="460.6" y="-32.7" type="curve" smooth="yes"/>
      <point x="580.0" y="-32.7"/>
      <point x="686.7" y="-10.7"/>
      <point x="733.7" y="13.399999999999999" type="curve"/>
      <point x="733.7" y="160.0" type="line"/>
      <point x="599.0" y="90.80000000000001"/>
      <point x="567.2" y="80.60000000000001"/>
      <point x="536.1" y="80.60000000000001" type="curve" smooth="yes"/>
      <point x="486.1" y="80.60000000000001"/>
      <point x="519.9" y="218.5"/>
      <point x="519.9" y="488.1" type="curve" smooth="yes"/>
      <point x="519.9" y="857.5" type="line"/>
      <point x="669.5" y="857.5" type="line"/>
      <point x="669.5" y="966.8" type="line"/>
      <point x="519.9" y="966.8" type="line"/>
      <point x="519.9" y="1283.7" type="line"/>
      <point x="351.4" y="1283.7" type="line"/>
      <point x="366.7" y="1082.0"/>
      <point x="229.3" y="966.2"/>
      <point x="44.1" y="966.8" type="curve"/>
      <point x="44.1" y="857.5" type="line"/>
      <point x="187.6" y="857.5" type="line"/>
      <point x="187.6" y="217.9" type="line" smooth="yes"/>
      <point x="187.6" y="64.19999999999999"/>
      <point x="285.7" y="-32.7"/>
    </contour>
  </outline>
</glyph>
<glyph name="u" format="2">
  <advance width="1229.1"/>
  <unicode hex="0075"/>
  <note>
u
</note>
  <anchor x="549.2" y="0.0" name="bottom"/>
  <anchor x="976.7" y="0.0" name="ogonek"/>
  <anchor x="612.2" y="966.3" name="top"/>
  <anchor x="1370.6" y="958.6" name="topright"/>
  <outline>
    <contour>
      <point x="491.3" y="-36.2" type="curve" smooth="yes"/>
      <point x="663.4" y="-36.2"/>
      <point x="746.2" y="80.1"/>
      <point x="806.0" y="257.2" type="curve"/>
      <point x="767.3" y="486.3" type="line"/>
      <point x="764.0" y="0.0" type="line"/>
      <point x="1109.8" y="0.0" type="line"/>
      <point x="1109.8" y="965.6" type="line"/>
      <point x="764.0" y="965.6" type="line"/>
      <point x="764.0" y="445.1" type="line" smooth="yes"/>
      <point x="764.0" y="256.6"/>
      <point x="638.6" y="76.30000000000001"/>
      <point x="535.7" y="76.30000000000001" type="curve" smooth="yes"/>
      <point x="464.0" y="76.30000000000001"/>
      <point x="449.5" y="188.9"/>
      <point x="449.5" y="427.5" type="curve" smooth="yes"/>
      <point x="449.5" y="965.6" type="line"/>
      <point x="103.7" y="965.6" type="line"/>
      <point x="103.7" y="307.2" type="line" smooth="yes"/>
      <point x="103.7" y="103.30000000000001"/>
      <point x="284.5" y="-36.2"/>
    </contour>
  </outline>
</glyph>
<glyph name="v" format="2">
  <advance width="1129.1"/>
  <unicode hex="0076"/>
  <note>
v
</note>
  <anchor x="565.4" y="21.000000000000007" name="bottom"/>
  <anchor x="565.4" y="945.1" name="top"/>
  <outline>
    <contour>
      <point x="500.8" y="-25.700000000000003" type="line"/>
      <point x="624.4" y="-25.700000000000003" type="line"/>
      <point x="1082.1" y="966.3" type="line"/>
      <point x="896.2" y="966.3" type="line"/>
      <point x="625.1" y="365.2" type="line"/>
      <point x="669.3" y="363.1" type="line"/>
      <point x="397.5" y="966.3" type="line"/>
      <point x="47.7" y="966.3" type="line"/>
    </contour>
  </outline>
</glyph>
<glyph name="w" format="2">
  <advance width="1700.9"/>
  <unicode hex="0077"/>
  <note>
w
</note>
  <anchor x="850.6" y="0.0" name="bottom"/>
  <anchor x="850.6" y="965.6" name="top"/>
  <outline>
    <contour>
      <point x="1076.9" y="-11.000000000000002" type="line"/>
      <point x="1200.1" y="-11.000000000000002" type="line"/>
      <point x="1657.2" y="966.3" type="line"/>
      <point x="1471.3" y="966.3" type="line"/>
      <point x="1204.1" y="386.3" type="line"/>
      <point x="1257.6" y="375.2" type="line"/>
      <point x="979.2" y="966.3" type="line"/>
      <point x="629.4" y="966.3" type="line"/>
    </contour>
    <contour>
      <point x="491.20000000000005" y="-11.000000000000002" type="line"/>
      <point x="614.8" y="-11.000000000000002" type="line"/>
      <point x="899.0" y="604.6" type="line"/>
      <point x="803.1" y="798.9000000000001" type="line"/>
      <point x="617.0" y="386.3" type="line"/>
      <point x="659.6" y="374.9" type="line"/>
      <point x="393.5" y="966.3" type="line"/>
      <point x="44.400000000000006" y="966.3" type="line"/>
    </contour>
    <contour>
      <point x="1008.5" y="743.7" type="line"/>
      <point x="1112.3" y="966.3" type="line"/>
      <point x="990.7" y="966.3" type="line"/>
      <point x="932.3" y="834.4" type="line"/>
    </contour>
  </outline>
</glyph>
<glyph name="x" format="2">
  <advance width="1113.5"/>
  <unicode hex="0078"/>
  <note>
x
</note>
  <anchor x="549.9" y="21.000000000000007" name="bottom"/>
  <anchor x="549.9" y="962.6" name="top"/>
  <outline>
    <contour>
      <point x="680.2" y="0.0" type="line"/>
      <point x="1057.5" y="0.0" type="line"/>
      <point x="422.79999999999995" y="966.3" type="line"/>
      <point x="44.8" y="966.3" type="line"/>
    </contour>
    <contour>
      <point x="63.900000000000006" y="0.0" type="line"/>
      <point x="262.8" y="0.0" type="line"/>
      <point x="566.3000000000001" y="389.9" type="line"/>
      <point x="481.3" y="532.4" type="line"/>
    </contour>
    <contour>
      <point x="628.5" y="433.6" type="line"/>
      <point x="1027.7" y="966.3" type="line"/>
      <point x="831.2" y="966.3" type="line"/>
      <point x="535.2" y="567.2" type="line"/>
    </contour>
  </outline>
</glyph>
<glyph name="y" format="2">
  <advance width="1088.6"/>
  <unicode hex="0079"/>
  <note>
y
</note>
  <guideline x="683.8" y="634.0" angle="250.697"/>
  <anchor x="855.0" y="0.0" name="bottom"/>
  <anchor x="594.0" y="965.6" name="top"/>
  <outline>
    <contour>
      <point x="302.8" y="-569.0" type="curve" smooth="yes"/>
      <point x="475.0" y="-569.0"/>
      <point x="523.5" y="-431.1"/>
      <point x="570.0" y="-297.1" type="curve" smooth="yes"/>
      <point x="642.0" y="-89.39999999999998"/>
      <point x="717.1" y="118.19999999999999"/>
      <point x="793.9" y="325.3" type="curve"/>
      <point x="1041.4" y="966.3" type="line"/>
      <point x="852.7" y="966.3" type="line"/>
      <point x="612.8" y="324.79999999999995" type="line"/>
      <point x="688.9" y="325.8" type="line"/>
      <point x="392.29999999999995" y="966.3" type="line"/>
      <point x="44.1" y="966.3" type="line"/>
      <point x="532.7" y="-89.80000000000001" type="line"/>
      <point x="514.9" y="59.000000000000014" type="line"/>
      <point x="426.8" y="-214.5" type="line" smooth="yes"/>
      <point x="410.5" y="-266.9"/>
      <point x="362.1" y="-484.4"/>
      <point x="297.5" y="-484.4" type="curve" smooth="yes"/>
      <point x="257.9" y="-484.4"/>
      <point x="229.1" y="-458.5"/>
      <point x="217.7" y="-419.3" type="curve"/>
      <point x="81.9" y="-419.3" type="line"/>
      <point x="92.0" y="-519.3"/>
      <point x="172.6" y="-569.0"/>
    </contour>
  </outline>
</glyph>
<glyph name="z" format="2">
  <advance width="1075.8"/>
  <unicode hex="007A"/>
  <note>
z
</note>
  <anchor x="538.9" y="0.0" name="bottom"/>
  <anchor x="538.9" y="482.8" name="center"/>
  <anchor x="538.9" y="965.6" name="top"/>
  <outline>
    <contour>
      <point x="50.7" y="0.0" type="line"/>
      <point x="1003.5" y="0.0" type="line"/>
      <point x="1003.5" y="111.9" type="line"/>
      <point x="425.4" y="111.9" type="line"/>
      <point x="432.4" y="40.800000000000004" type="line"/>
      <point x="1020.5" y="966.3" type="line"/>
      <point x="90.0" y="966.3" type="line"/>
      <point x="90.0" y="855.0" type="line"/>
      <point x="646.4" y="855.0" type="line"/>
      <point x="638.8" y="925.5" type="line"/>
    </contour>
  </outline>
</glyph>
<glyph name="braceleft" format="2">
  <advance width="741.5"/>
  <unicode hex="007B"/>
  <note>
braceleft
</note>
  <outline>
    <contour>
      <point x="663.4" y="-402.6" type="curve"/>
      <point x="663.4" y="-259.2" type="line"/>
      <point x="492.5" y="-300.4"/>
      <point x="415.0" y="-217.0"/>
      <point x="415.0" y="26.3" type="curve" smooth="yes"/>
      <point x="415.0" y="339.0" type="line" smooth="yes"/>
      <point x="415.0" y="393.9"/>
      <point x="385.70000000000005" y="433.5"/>
      <point x="322.1" y="483.1" type="curve"/>
      <point x="387.8" y="536.2"/>
      <point x="415.0" y="572.7"/>
      <point x="415.0" y="626.9" type="curve" smooth="yes"/>
      <point x="415.0" y="1041.2" type="line" smooth="yes"/>
      <point x="415.0" y="1284.8"/>
      <point x="492.5" y="1367.9"/>
      <point x="663.4" y="1326.1" type="curve"/>
      <point x="663.4" y="1470.1" type="line"/>
      <point x="381.6" y="1500.1"/>
      <point x="201.5" y="1357.7"/>
      <point x="201.5" y="1109.1" type="curve" smooth="yes"/>
      <point x="201.5" y="626.9" type="line" smooth="yes"/>
      <point x="201.5" y="569.9"/>
      <point x="177.70000000000002" y="541.9"/>
      <point x="79.0" y="483.7" type="curve"/>
      <point x="177.70000000000002" y="423.7"/>
      <point x="201.5" y="396.0"/>
      <point x="201.5" y="339.0" type="curve" smooth="yes"/>
      <point x="201.5" y="-41.599999999999994" type="line" smooth="yes"/>
      <point x="201.5" y="-291.8"/>
      <point x="380.3" y="-432.2"/>
    </contour>
  </outline>
</glyph>
<glyph name="braceright" format="2">
  <advance width="741.5"/>
  <unicode hex="007D"/>
  <note>
braceright
</note>
  <outline>
    <contour>
      <point x="78.1" y="-402.6" type="line"/>
      <point x="361.2" y="-432.2"/>
      <point x="540.0" y="-291.8"/>
      <point x="540.0" y="-41.599999999999994" type="curve" smooth="yes"/>
      <point x="540.0" y="339.0" type="line" smooth="yes"/>
      <point x="540.0" y="396.3"/>
      <point x="563.2" y="423.4"/>
      <point x="662.5" y="483.4" type="curve"/>
      <point x="562.9" y="542.2"/>
      <point x="540.0" y="570.5"/>
      <point x="540.0" y="626.9" type="curve" smooth="yes"/>
      <point x="540.0" y="1109.1" type="line" smooth="yes"/>
      <point x="540.0" y="1357.7"/>
      <point x="359.9" y="1500.1"/>
      <point x="78.1" y="1470.1" type="curve"/>
      <point x="78.1" y="1326.1" type="line"/>
      <point x="249.3" y="1367.9"/>
      <point x="326.2" y="1285.1"/>
      <point x="326.2" y="1041.2" type="curve" smooth="yes"/>
      <point x="326.2" y="626.9" type="line" smooth="yes"/>
      <point x="326.2" y="572.1"/>
      <point x="353.4" y="536.5"/>
      <point x="419.1" y="483.1" type="curve"/>
      <point x="355.5" y="433.2"/>
      <point x="326.2" y="394.2"/>
      <point x="326.2" y="339.0" type="curve" smooth="yes"/>
      <point x="326.2" y="26.3" type="line" smooth="yes"/>
      <point x="326.2" y="-217.0"/>
      <point x="248.7" y="-300.4"/>
      <point x="78.1" y="-259.2" type="curve"/>
    </contour>
  </outline>
</glyph>
<glyph name="asciitilde" format="2">
  <advance width="1454.6"/>
  <unicode hex="007E"/>
  <note>
asciitilde
</note>
  <outline>
    <contour>
      <point x="941.7" y="527.4" type="curve" smooth="yes"/>
      <point x="1089.1" y="527.4"/>
      <point x="1266.0" y="626.8"/>
      <point x="1332.7" y="661.1" type="curve"/>
      <point x="1226.7" y="830.6" type="line"/>
      <point x="1082.0" y="748.8"/>
      <point x="996.8" y="732.4"/>
      <point x="942.0" y="732.4" type="curve" smooth="yes"/>
      <point x="870.0" y="732.4"/>
      <point x="816.7" y="768.5"/>
      <point x="762.0" y="797.1" type="curve" smooth="yes"/>
      <point x="655.0" y="852.6"/>
      <point x="566.9" y="873.7"/>
      <point x="510.3" y="873.7" type="curve" smooth="yes"/>
      <point x="405.7" y="873.7"/>
      <point x="233.8" y="798.0"/>
      <point x="121.9" y="712.4" type="curve"/>
      <point x="225.60000000000002" y="548.0" type="line"/>
      <point x="383.8" y="646.9"/>
      <point x="462.1" y="668.1"/>
      <point x="509.29999999999995" y="668.1" type="curve" smooth="yes"/>
      <point x="568.2" y="668.1"/>
      <point x="659.5" y="623.7"/>
      <point x="708.6" y="598.4" type="curve" smooth="yes"/>
      <point x="835.4" y="531.3"/>
      <point x="907.5" y="527.4"/>
    </contour>
  </outline>
</glyph>
<glyph name=".notdef" format="2">
  <advance width="1405.1"/>
  <unicode hex="007F"/>
  <note>
.notdef
</note>
  <outline>
    <contour>
      <point x="126.6" y="-359.4" type="line"/>
      <point x="1278.5" y="-359.4" type="line"/>
      <point x="1278.5" y="1423.2" type="line"/>
      <point x="126.6" y="1423.2" type="line"/>
    </contour>
    <contour>
      <point x="383.0" y="-179.3" type="line"/>
      <point x="383.0" y="1243.1" type="line"/>
      <point x="1022.7" y="1243.1" type="line"/>
      <point x="1022.7" y="-179.3" type="line"/>
    </contour>
  </outline>
</glyph>
<glyph name="Euro" format="2">
  <advance width="1729.9"/>
  <unicode hex="0080"/>
  <note>
Euro
</note>
  <outline>
    <contour>
      <point x="1035.5" y="-53.9" type="curve" smooth="yes"/>
      <point x="1345.4" y="-53.9"/>
      <point x="1536.8" y="130.3"/>
      <point x="1599.1" y="321.9" type="curve"/>
      <point x="1336.6" y="321.9" type="line"/>
      <point x="1249.3" y="141.7"/>
      <point x="1116.0" y="49.60000000000001"/>
      <point x="1045.5" y="49.60000000000001" type="curve" smooth="yes"/>
      <point x="822.7" y="49.60000000000001"/>
      <point x="640.9" y="366.7"/>
      <point x="640.9" y="701.9" type="curve" smooth="yes"/>
      <point x="640.9" y="1054.6"/>
      <point x="830.9000000000001" y="1352.8"/>
      <point x="1043.2" y="1352.8" type="curve" smooth="yes"/>
      <point x="1112.0" y="1352.8"/>
      <point x="1254.4" y="1247.4"/>
      <point x="1331.2" y="1067.6" type="curve"/>
      <point x="1593.1" y="1067.6" type="line"/>
      <point x="1536.5" y="1260.0"/>
      <point x="1346.4" y="1456.3"/>
      <point x="1035.5" y="1456.3" type="curve" smooth="yes"/>
      <point x="623.9" y="1456.3"/>
      <point x="317.9" y="1147.8"/>
      <point x="317.9" y="702.5" type="curve" smooth="yes"/>
      <point x="331.9" y="245.8"/>
      <point x="620.4" y="-53.9"/>
    </contour>
    <contour>
      <point x="124.5" y="501.1" type="line"/>
      <point x="1132.8" y="501.1" type="line"/>
      <point x="1158.3" y="605.2" type="line"/>
      <point x="151.2" y="605.2" type="line"/>
    </contour>
    <contour>
      <point x="172.8" y="792.4" type="line"/>
      <point x="1181.4" y="792.4" type="line"/>
      <point x="1206.3" y="896.5" type="line"/>
      <point x="199.5" y="896.5" type="line"/>
    </contour>
  </outline>
</glyph>
<glyph name="sterling" format="2">
  <advance width="1387.5"/>
  <unicode hex="00A3"/>
  <note>
sterling
</note>
  <outline>
    <contour>
      <point x="495.1" y="127.0" type="curve" smooth="yes"/>
      <point x="661.7" y="127.0"/>
      <point x="850.5" y="290.6"/>
      <point x="850.5" y="482.6" type="curve" smooth="yes"/>
      <point x="850.5" y="602.4"/>
      <point x="767.6" y="697.7"/>
      <point x="647.7" y="796.3" type="curve" smooth="yes"/>
      <point x="488.8" y="928.5"/>
      <point x="467.2" y="1032.9"/>
      <point x="467.2" y="1132.6" type="curve" smooth="yes"/>
      <point x="467.2" y="1290.4"/>
      <point x="558.6" y="1377.9"/>
      <point x="650.7" y="1377.9" type="curve" smooth="yes"/>
      <point x="777.8" y="1377.9"/>
      <point x="891.1" y="1220.0"/>
      <point x="893.1" y="1066.0" type="curve"/>
      <point x="1183.0" y="1066.0" type="line"/>
      <point x="1158.1" y="1315.9"/>
      <point x="956.4" y="1475.7"/>
      <point x="667.7" y="1475.7" type="curve" smooth="yes"/>
      <point x="368.1" y="1475.7"/>
      <point x="164.2" y="1301.7"/>
      <point x="164.2" y="1045.0" type="curve" smooth="yes"/>
      <point x="164.2" y="889.0"/>
      <point x="261.7" y="765.0"/>
      <point x="390.7" y="675.2" type="curve" smooth="yes"/>
      <point x="488.7" y="607.4"/>
      <point x="542.1" y="564.9"/>
      <point x="542.1" y="475.5" type="curve" smooth="yes"/>
      <point x="542.1" y="334.7"/>
      <point x="370.7" y="194.7"/>
      <point x="224.1" y="196.3" type="curve"/>
      <point x="321.2" y="136.2"/>
      <point x="412.1" y="134.0"/>
    </contour>
    <contour>
      <point x="166.7" y="0.0" type="line"/>
      <point x="1255.6" y="0.0" type="line"/>
      <point x="1255.6" y="206.8" type="line"/>
      <point x="166.7" y="206.8" type="line"/>
    </contour>
    <contour>
      <point x="166.7" y="635.6" type="line"/>
      <point x="1053.5" y="635.6" type="line"/>
      <point x="1053.5" y="743.3" type="line"/>
      <point x="166.7" y="743.3" type="line"/>
    </contour>
  </outline>
</glyph>
<glyph name="currency" format="2">
  <advance width="1507.3"/>
  <unicode hex="00A4"/>
  <note>
currency
</note>
  <outline>
    <contour>
      <point x="263.7" y="78.9" type="line"/>
      <point x="448.9" y="262.70000000000005" type="line"/>
      <point x="534.8" y="202.0"/>
      <point x="639.7" y="167.0"/>
      <point x="752.6" y="167.0" type="curve" smooth="yes"/>
      <point x="867.6" y="167.0"/>
      <point x="973.9000000000001" y="203.4"/>
      <point x="1060.5" y="265.5" type="curve"/>
      <point x="1249.2" y="78.20000000000002" type="line"/>
      <point x="1374.4" y="205.5" type="line"/>
      <point x="1186.4" y="392.8" type="line"/>
      <point x="1246.4" y="478.7"/>
      <point x="1281.4" y="582.9"/>
      <point x="1281.4" y="695.8" type="curve" smooth="yes"/>
      <point x="1281.4" y="808.7"/>
      <point x="1246.4" y="912.9"/>
      <point x="1187.1" y="998.1" type="curve"/>
      <point x="1374.4" y="1184.7" type="line"/>
      <point x="1247.8" y="1313.4" type="line"/>
      <point x="1059.8" y="1126.8" type="line"/>
      <point x="973.2" y="1188.2"/>
      <point x="866.9" y="1224.6"/>
      <point x="752.6" y="1224.6" type="curve" smooth="yes"/>
      <point x="637.6" y="1224.6"/>
      <point x="532.0" y="1188.2"/>
      <point x="445.4" y="1126.8" type="curve"/>
      <point x="258.8" y="1314.1" type="line"/>
      <point x="132.2" y="1184.7" type="line"/>
      <point x="318.1" y="998.8" type="line"/>
      <point x="258.8" y="912.9"/>
      <point x="223.8" y="808.7"/>
      <point x="223.8" y="695.8" type="curve" smooth="yes"/>
      <point x="223.8" y="581.5"/>
      <point x="260.2" y="475.2"/>
      <point x="321.6" y="388.6" type="curve"/>
      <point x="136.4" y="205.5" type="line"/>
    </contour>
    <contour>
      <point x="752.6" y="336.0" type="curve" smooth="yes"/>
      <point x="553.3" y="336.0"/>
      <point x="392.8" y="496.5"/>
      <point x="392.8" y="695.8" type="curve" smooth="yes"/>
      <point x="392.8" y="895.1"/>
      <point x="553.3" y="1055.6"/>
      <point x="752.6" y="1055.6" type="curve" smooth="yes"/>
      <point x="951.9" y="1055.6"/>
      <point x="1112.4" y="895.1"/>
      <point x="1112.4" y="695.8" type="curve" smooth="yes"/>
      <point x="1112.4" y="496.5"/>
      <point x="951.9" y="336.0"/>
    </contour>
  </outline>
</glyph>
<glyph name="section" format="2">
  <advance width="1339.1"/>
  <unicode hex="00A7"/>
  <note>
section
</note>
  <outline>
    <contour>
      <point x="657.1" y="-444.7" type="curve" smooth="yes"/>
      <point x="956.1" y="-444.7"/>
      <point x="1143.3" y="-314.3"/>
      <point x="1143.3" y="-100.6" type="curve" smooth="yes"/>
      <point x="1143.3" y="88.3"/>
      <point x="1028.4" y="173.60000000000002"/>
      <point x="768.4" y="218.0" type="curve"/>
      <point x="760.2" y="133.0" type="line"/>
      <point x="1070.2" y="186.3"/>
      <point x="1215.9" y="306.1"/>
      <point x="1215.9" y="522.8" type="curve" smooth="yes"/>
      <point x="1215.9" y="710.0"/>
      <point x="1108.7" y="832.8"/>
      <point x="831.7" y="925.9" type="curve" smooth="yes"/>
      <point x="625.9" y="994.6"/>
      <point x="505.1" y="1040.7"/>
      <point x="505.1" y="1131.3" type="curve" smooth="yes"/>
      <point x="505.1" y="1255.5"/>
      <point x="545.6" y="1365.3"/>
      <point x="667.2" y="1365.3" type="curve" smooth="yes"/>
      <point x="772.8" y="1365.3"/>
      <point x="827.0" y="1285.1"/>
      <point x="827.3" y="1068.5" type="curve"/>
      <point x="1134.0" y="1068.5" type="line"/>
      <point x="1134.0" y="1122.7" type="line" smooth="yes"/>
      <point x="1134.0" y="1350.1"/>
      <point x="968.9" y="1475.7"/>
      <point x="678.5" y="1475.7" type="curve" smooth="yes"/>
      <point x="382.2" y="1475.7"/>
      <point x="185.0" y="1341.6"/>
      <point x="185.0" y="1133.3" type="curve" smooth="yes"/>
      <point x="185.0" y="960.4"/>
      <point x="297.0" y="887.6"/>
      <point x="604.6" y="806.1" type="curve"/>
      <point x="562.0" y="899.1" type="line"/>
      <point x="288.8" y="870.9"/>
      <point x="127.4" y="723.5"/>
      <point x="127.4" y="508.2" type="curve" smooth="yes"/>
      <point x="127.4" y="303.6"/>
      <point x="237.5" y="205.3"/>
      <point x="599.0" y="82.1" type="curve" smooth="yes"/>
      <point x="736.4" y="35.8"/>
      <point x="828.2" y="-17.7"/>
      <point x="828.2" y="-94.6" type="curve" smooth="yes"/>
      <point x="828.2" y="-230.9"/>
      <point x="780.1" y="-334.29999999999995"/>
      <point x="661.1" y="-334.29999999999995" type="curve" smooth="yes"/>
      <point x="548.4" y="-334.29999999999995"/>
      <point x="482.4" y="-249.5"/>
      <point x="483.7" y="-29.800000000000004" type="curve"/>
      <point x="174.0" y="-29.800000000000004" type="line"/>
      <point x="174.0" y="-84.0" type="line" smooth="yes"/>
      <point x="174.0" y="-302.0"/>
      <point x="367.8" y="-444.7"/>
    </contour>
    <contour>
      <point x="668.5" y="248.10000000000002" type="curve" smooth="yes"/>
      <point x="537.5" y="248.10000000000002"/>
      <point x="427.5" y="383.1"/>
      <point x="427.5" y="522.2" type="curve" smooth="yes"/>
      <point x="427.5" y="663.3"/>
      <point x="536.9" y="794.9"/>
      <point x="668.8" y="794.9" type="curve" smooth="yes"/>
      <point x="801.4" y="794.9"/>
      <point x="916.1" y="662.4"/>
      <point x="916.1" y="521.9" type="curve" smooth="yes"/>
      <point x="916.1" y="384.4"/>
      <point x="799.1" y="248.10000000000002"/>
    </contour>
  </outline>
</glyph>
<glyph name="copyright" format="2">
  <advance width="1824.3"/>
  <unicode hex="00A9"/>
  <note>
copyright
</note>
  <outline>
    <contour>
      <point x="910.5" y="-25.6" type="curve" smooth="yes"/>
      <point x="1123.3" y="-25.6"/>
      <point x="1332.1" y="61.8"/>
      <point x="1467.2" y="190.9" type="curve" smooth="yes"/>
      <point x="1621.7" y="338.4"/>
      <point x="1695.0" y="505.7"/>
      <point x="1695.0" y="706.5" type="curve" smooth="yes"/>
      <point x="1695.0" y="907.8"/>
      <point x="1620.0" y="1077.3"/>
      <point x="1469.1" y="1225.2" type="curve" smooth="yes"/>
      <point x="1334.9" y="1355.4"/>
      <point x="1127.6" y="1438.6"/>
      <point x="910.5" y="1438.6" type="curve" smooth="yes"/>
      <point x="710.1" y="1438.6"/>
      <point x="505.3" y="1369.9"/>
      <point x="361.9" y="1226.2" type="curve" smooth="yes"/>
      <point x="209.3" y="1073.6"/>
      <point x="128.3" y="905.7"/>
      <point x="128.3" y="706.5" type="curve" smooth="yes"/>
      <point x="128.3" y="510.7"/>
      <point x="205.1" y="340.3"/>
      <point x="360.2" y="189.5" type="curve" smooth="yes"/>
      <point x="499.0" y="55.0"/>
      <point x="703.2" y="-25.6"/>
    </contour>
    <contour>
      <point x="907.9" y="280.6" type="curve" smooth="yes"/>
      <point x="1134.5" y="280.6"/>
      <point x="1296.9" y="411.0"/>
      <point x="1300.4" y="587.9" type="curve"/>
      <point x="1061.1" y="587.9" type="line"/>
      <point x="1046.9" y="474.8"/>
      <point x="1000.0" y="421.9"/>
      <point x="913.9" y="421.9" type="curve" smooth="yes"/>
      <point x="804.8" y="421.9"/>
      <point x="743.2" y="529.2"/>
      <point x="743.2" y="704.5" type="curve" smooth="yes"/>
      <point x="743.2" y="884.3"/>
      <point x="801.0" y="994.8"/>
      <point x="913.9" y="994.8" type="curve" smooth="yes"/>
      <point x="996.7" y="994.8"/>
      <point x="1035.1" y="950.6"/>
      <point x="1053.0" y="845.9" type="curve"/>
      <point x="1290.7" y="845.9" type="line"/>
      <point x="1287.9" y="1008.7"/>
      <point x="1132.6" y="1134.4"/>
      <point x="917.3" y="1134.4" type="curve" smooth="yes"/>
      <point x="656.8" y="1134.4"/>
      <point x="486.7" y="966.7"/>
      <point x="486.7" y="703.1" type="curve" smooth="yes"/>
      <point x="486.7" y="444.7"/>
      <point x="649.3" y="280.6"/>
    </contour>
    <contour>
      <point x="910.5" y="115.8" type="curve" smooth="yes"/>
      <point x="755.6" y="115.8"/>
      <point x="625.1" y="175.8"/>
      <point x="506.2" y="292.4" type="curve" smooth="yes"/>
      <point x="405.0" y="391.0"/>
      <point x="338.3" y="546.3"/>
      <point x="338.3" y="706.5" type="curve" smooth="yes"/>
      <point x="338.3" y="865.1"/>
      <point x="400.7" y="1021.7"/>
      <point x="508.5" y="1126.9" type="curve" smooth="yes"/>
      <point x="627.4" y="1244.2"/>
      <point x="748.1" y="1299.5"/>
      <point x="910.5" y="1299.5" type="curve" smooth="yes"/>
      <point x="1069.6" y="1299.5"/>
      <point x="1199.1" y="1243.3"/>
      <point x="1320.5" y="1125.2" type="curve" smooth="yes"/>
      <point x="1424.2" y="1024.8"/>
      <point x="1487.0" y="863.6"/>
      <point x="1487.0" y="706.5" type="curve" smooth="yes"/>
      <point x="1487.0" y="542.3"/>
      <point x="1424.4" y="389.7"/>
      <point x="1323.8" y="294.4" type="curve" smooth="yes"/>
      <point x="1202.5" y="179.10000000000002"/>
      <point x="1066.2" y="115.8"/>
    </contour>
  </outline>
</glyph>
<glyph name="ordfeminine" format="2">
  <advance width="945.6"/>
  <unicode hex="00AA"/>
  <note>
ordfeminine
</note>
  <outline>
    <contour>
      <point x="430.4" y="798.9" type="curve" smooth="yes"/>
      <point x="482.3" y="798.9"/>
      <point x="538.5" y="817.2"/>
      <point x="577.6" y="842.3" type="curve"/>
      <point x="577.6" y="805.4" type="line"/>
      <point x="820.0" y="805.4" type="line"/>
      <point x="820.0" y="1452.6" type="line"/>
      <point x="575.6" y="1452.6" type="line"/>
      <point x="575.6" y="1420.6" type="line"/>
      <point x="538.0" y="1448.2"/>
      <point x="480.5" y="1468.0"/>
      <point x="426.1" y="1468.0" type="curve" smooth="yes"/>
      <point x="223.1" y="1468.0"/>
      <point x="88.4" y="1333.5"/>
      <point x="88.4" y="1131.3" type="curve" smooth="yes"/>
      <point x="88.4" y="931.7"/>
      <point x="225.4" y="798.9"/>
    </contour>
    <contour>
      <point x="443.7" y="893.0" type="curve" smooth="yes"/>
      <point x="388.6" y="893.0"/>
      <point x="341.8" y="1001.0"/>
      <point x="341.8" y="1143.9" type="curve" smooth="yes"/>
      <point x="341.8" y="1270.7"/>
      <point x="389.0" y="1373.9"/>
      <point x="441.4" y="1373.9" type="curve" smooth="yes"/>
      <point x="500.1" y="1373.9"/>
      <point x="562.6" y="1252.5"/>
      <point x="562.6" y="1129.3" type="curve" smooth="yes"/>
      <point x="562.6" y="1007.6"/>
      <point x="502.5" y="893.0"/>
    </contour>
    <contour>
      <point x="81.1" y="612.5" type="line"/>
      <point x="849.0" y="612.5" type="line"/>
      <point x="849.0" y="728.5" type="line"/>
      <point x="81.1" y="728.5" type="line"/>
    </contour>
  </outline>
</glyph>
<glyph name="logicalnot" format="2">
  <advance width="1118.0"/>
  <unicode hex="00AC"/>
  <note>
logicalnot
</note>
  <outline>
    <contour>
      <point x="1199.0" y="322.5" type="line"/>
      <point x="1455.1" y="322.5" type="line"/>
      <point x="1455.1" y="866.2" type="line"/>
      <point x="131.1" y="866.2" type="line"/>
      <point x="131.1" y="683.2" type="line"/>
      <point x="1199.0" y="683.2" type="line"/>
    </contour>
  </outline>
</glyph>
<glyph name="registered" format="2">
  <advance width="1824.3"/>
  <unicode hex="00AE"/>
  <note>
registered
</note>
  <outline>
    <contour>
      <point x="910.5" y="-25.6" type="curve" smooth="yes"/>
      <point x="1114.9" y="-25.6"/>
      <point x="1323.0" y="54.8"/>
      <point x="1465.8" y="190.9" type="curve" smooth="yes"/>
      <point x="1620.3" y="338.4"/>
      <point x="1695.0" y="502.9"/>
      <point x="1695.0" y="706.5" type="curve" smooth="yes"/>
      <point x="1695.0" y="906.4"/>
      <point x="1619.3" y="1075.9"/>
      <point x="1469.1" y="1223.8" type="curve" smooth="yes"/>
      <point x="1330.0" y="1359.6"/>
      <point x="1124.1" y="1438.6"/>
      <point x="910.5" y="1438.6" type="curve" smooth="yes"/>
      <point x="706.6" y="1438.6"/>
      <point x="503.9" y="1367.8"/>
      <point x="363.3" y="1228.3" type="curve" smooth="yes"/>
      <point x="205.1" y="1071.5"/>
      <point x="128.3" y="904.3"/>
      <point x="128.3" y="706.5" type="curve" smooth="yes"/>
      <point x="128.3" y="511.4"/>
      <point x="203.7" y="342.4"/>
      <point x="358.8" y="190.9" type="curve" smooth="yes"/>
      <point x="496.2" y="56.4"/>
      <point x="702.5" y="-25.6"/>
    </contour>
    <contour>
      <point x="909.1" y="115.8" type="curve" smooth="yes"/>
      <point x="756.3" y="115.8"/>
      <point x="626.5" y="173.7"/>
      <point x="506.2" y="292.4" type="curve" smooth="yes"/>
      <point x="400.1" y="396.6"/>
      <point x="338.3" y="552.6"/>
      <point x="338.3" y="706.5" type="curve" smooth="yes"/>
      <point x="338.3" y="865.1"/>
      <point x="402.1" y="1022.4"/>
      <point x="509.9" y="1128.3" type="curve" smooth="yes"/>
      <point x="629.5" y="1246.3"/>
      <point x="750.2" y="1299.5"/>
      <point x="910.5" y="1299.5" type="curve" smooth="yes"/>
      <point x="1070.3" y="1299.5"/>
      <point x="1199.1" y="1244.0"/>
      <point x="1321.9" y="1123.8" type="curve" smooth="yes"/>
      <point x="1425.6" y="1023.4"/>
      <point x="1487.0" y="863.6"/>
      <point x="1487.0" y="703.7" type="curve" smooth="yes"/>
      <point x="1487.0" y="545.8"/>
      <point x="1425.8" y="391.8"/>
      <point x="1321.7" y="293.0" type="curve" smooth="yes"/>
      <point x="1197.6" y="173.5"/>
      <point x="1066.2" y="115.8"/>
    </contour>
    <contour>
      <point x="591.5" y="334.3" type="line"/>
      <point x="826.2" y="334.3" type="line"/>
      <point x="826.2" y="643.0" type="line"/>
      <point x="889.3" y="643.0" type="line"/>
      <point x="1043.5" y="334.3" type="line"/>
      <point x="1291.6" y="334.3" type="line"/>
      <point x="1116.2" y="675.1" type="line"/>
      <point x="1222.0" y="714.7"/>
      <point x="1281.8" y="784.9"/>
      <point x="1281.8" y="878.0" type="curve" smooth="yes"/>
      <point x="1281.8" y="1025.3"/>
      <point x="1149.1" y="1103.9"/>
      <point x="911.9" y="1103.9" type="curve" smooth="yes"/>
      <point x="591.5" y="1103.9" type="line"/>
    </contour>
    <contour>
      <point x="826.2" y="763.2" type="line"/>
      <point x="826.2" y="980.0" type="line"/>
      <point x="898.7" y="979.7" type="line" smooth="yes"/>
      <point x="1014.5" y="979.4"/>
      <point x="1047.0" y="960.3"/>
      <point x="1047.0" y="869.3" type="curve" smooth="yes"/>
      <point x="1047.0" y="786.1"/>
      <point x="1019.3" y="763.2"/>
      <point x="902.3" y="763.2" type="curve" smooth="yes"/>
    </contour>
  </outline>
</glyph>
<glyph name="degree" format="2">
  <advance width="888.8"/>
  <unicode hex="00B0"/>
  <note>
degree
</note>
  <outline>
    <contour>
      <point x="444.9" y="816.3" type="curve" smooth="yes"/>
      <point x="614.9" y="816.3"/>
      <point x="753.6" y="955.0"/>
      <point x="753.6" y="1126.0" type="curve" smooth="yes"/>
      <point x="753.6" y="1296.0"/>
      <point x="614.9" y="1434.7"/>
      <point x="444.9" y="1434.7" type="curve" smooth="yes"/>
      <point x="273.9" y="1434.7"/>
      <point x="135.2" y="1296.0"/>
      <point x="135.2" y="1126.0" type="curve" smooth="yes"/>
      <point x="135.2" y="955.0"/>
      <point x="273.9" y="816.3"/>
    </contour>
    <contour>
      <point x="444.9" y="921.6" type="curve" smooth="yes"/>
      <point x="331.7" y="921.6"/>
      <point x="240.5" y="1012.8"/>
      <point x="240.5" y="1126.0" type="curve" smooth="yes"/>
      <point x="240.5" y="1238.2"/>
      <point x="331.7" y="1329.4"/>
      <point x="444.9" y="1329.4" type="curve" smooth="yes"/>
      <point x="557.1" y="1329.4"/>
      <point x="648.3" y="1238.2"/>
      <point x="648.3" y="1126.0" type="curve" smooth="yes"/>
      <point x="648.3" y="1012.8"/>
      <point x="557.1" y="921.6"/>
    </contour>
  </outline>
</glyph>
<glyph name="plusminus" format="2">
  <advance width="1118.0"/>
  <unicode hex="00B1"/>
  <note>
plusminus
</note>
  <outline>
    <contour>
      <point x="478.7" y="333.6" type="line"/>
      <point x="694.2" y="333.6" type="line"/>
      <point x="694.2" y="544.5" type="line"/>
      <point x="1018.3" y="544.5" type="line"/>
      <point x="1018.3" y="790.9" type="line"/>
      <point x="694.2" y="790.9" type="line"/>
      <point x="694.2" y="1001.5" type="line"/>
      <point x="478.7" y="1001.5" type="line"/>
      <point x="478.7" y="790.9" type="line"/>
      <point x="154.6" y="790.9" type="line"/>
      <point x="154.6" y="544.5" type="line"/>
      <point x="478.7" y="544.5" type="line"/>
    </contour>
    <contour>
      <point x="153.6" y="12.0" type="line"/>
      <point x="1017.3" y="12.0" type="line"/>
      <point x="1017.3" y="258.4" type="line"/>
      <point x="153.6" y="258.4" type="line"/>
    </contour>
  </outline>
</glyph>
<glyph name="paragraph" format="2">
  <advance width="1337.0"/>
  <unicode hex="00B6"/>
  <note>
paragraph
</note>
  <outline>
    <contour>
      <point x="490.7" y="0.0" type="line"/>
      <point x="728.8" y="0.0" type="line"/>
      <point x="728.8" y="1311.9" type="line"/>
      <point x="858.1" y="1311.9" type="line"/>
      <point x="858.1" y="0.0" type="line"/>
      <point x="1094.2" y="0.0" type="line"/>
      <point x="1094.2" y="1311.9" type="line"/>
      <point x="1217.4" y="1311.9" type="line"/>
      <point x="1217.4" y="1456.3" type="line"/>
      <point x="580.6" y="1456.3" type="line" smooth="yes"/>
      <point x="312.1" y="1456.3"/>
      <point x="121.7" y="1272.4"/>
      <point x="121.7" y="1031.4" type="curve" smooth="yes"/>
      <point x="121.7" y="815.2"/>
      <point x="272.2" y="613.9"/>
      <point x="490.7" y="611.5" type="curve"/>
    </contour>
  </outline>
</glyph>
<glyph name="ordmasculine" format="2">
  <advance width="948.6"/>
  <unicode hex="00BA"/>
  <note>
ordmasculine
</note>
  <outline>
    <contour>
      <point x="474.5" y="797.7" type="curve" smooth="yes"/>
      <point x="699.4" y="797.7"/>
      <point x="853.1" y="931.5"/>
      <point x="853.1" y="1131.3" type="curve" smooth="yes"/>
      <point x="853.1" y="1332.8"/>
      <point x="700.1" y="1468.9"/>
      <point x="474.5" y="1468.9" type="curve" smooth="yes"/>
      <point x="248.9" y="1468.9"/>
      <point x="96.2" y="1332.8"/>
      <point x="96.2" y="1131.3" type="curve" smooth="yes"/>
      <point x="96.2" y="931.2"/>
      <point x="249.9" y="797.7"/>
    </contour>
    <contour>
      <point x="472.8" y="891.8" type="curve" smooth="yes"/>
      <point x="413.5" y="891.8"/>
      <point x="348.2" y="1015.5"/>
      <point x="348.2" y="1131.3" type="curve" smooth="yes"/>
      <point x="348.2" y="1248.1"/>
      <point x="414.20000000000005" y="1374.8"/>
      <point x="472.8" y="1374.8" type="curve" smooth="yes"/>
      <point x="532.1" y="1374.8"/>
      <point x="599.7" y="1247.4"/>
      <point x="599.7" y="1131.3" type="curve" smooth="yes"/>
      <point x="599.7" y="1015.5"/>
      <point x="532.8" y="891.8"/>
    </contour>
    <contour>
      <point x="90.0" y="612.5" type="line"/>
      <point x="857.9" y="612.5" type="line"/>
      <point x="857.9" y="728.5" type="line"/>
      <point x="90.0" y="728.5" type="line"/>
    </contour>
  </outline>
</glyph>
<glyph name="AE" format="2">
  <advance width="2091.6"/>
  <unicode hex="00C6"/>
  <note>
AE
</note>
  <anchor x="1082.3" y="15.0" name="bottom"/>
  <anchor x="1082.3" y="1430.0" name="top"/>
  <outline>
    <contour>
      <point x="71.0" y="0.0" type="line"/>
      <point x="254.0" y="0.0" type="line"/>
      <point x="1167.1" y="1442.6" type="line"/>
      <point x="984.4" y="1442.6" type="line"/>
    </contour>
    <contour>
      <point x="487.4" y="437.2" type="line"/>
      <point x="1259.1" y="437.2" type="line"/>
      <point x="1259.1" y="541.3" type="line"/>
      <point x="487.4" y="541.3" type="line"/>
    </contour>
    <contour>
      <point x="990.4" y="0.0" type="line"/>
      <point x="1991.4" y="0.0" type="line"/>
      <point x="1991.4" y="104.10000000000002" type="line"/>
      <point x="1036.7" y="104.10000000000002" type="line"/>
      <point x="1341.7" y="13.100000000000001" type="line"/>
      <point x="1341.7" y="774.0" type="line"/>
      <point x="1152.3" y="682.0" type="line"/>
      <point x="1991.4" y="682.0" type="line"/>
      <point x="1991.4" y="786.1" type="line"/>
      <point x="1152.6" y="786.1" type="line"/>
      <point x="1341.7" y="693.5" type="line"/>
      <point x="1341.7" y="1428.9" type="line"/>
      <point x="1037.0" y="1338.5" type="line"/>
      <point x="1991.4" y="1338.5" type="line"/>
      <point x="1991.4" y="1442.6" type="line"/>
      <point x="990.4" y="1442.6" type="line"/>
    </contour>
  </outline>
</glyph>
<glyph name="Thorn" format="2">
  <advance width="1271.5"/>
  <unicode hex="00DE"/>
  <note>
Thorn
</note>
  <anchor x="637.1" y="15.0" name="bottom"/>
  <anchor x="637.1" y="1430.0" name="top"/>
  <outline>
    <contour>
      <point x="439.2" y="312.4" type="line"/>
      <point x="600.3" y="312.4" type="line" smooth="yes"/>
      <point x="809.8" y="312.4"/>
      <point x="939.6" y="339.5"/>
      <point x="1012.1" y="396.4" type="curve" smooth="yes"/>
      <point x="1136.2" y="494.4"/>
      <point x="1185.1" y="593.0"/>
      <point x="1185.1" y="737.6" type="curve" smooth="yes"/>
      <point x="1185.1" y="880.5"/>
      <point x="1137.8" y="974.8"/>
      <point x="1021.3" y="1070.1" type="curve" smooth="yes"/>
      <point x="951.3" y="1127.5"/>
      <point x="807.4" y="1160.1"/>
      <point x="600.6" y="1160.1" type="curve" smooth="yes"/>
      <point x="438.9" y="1160.1" type="line"/>
      <point x="438.9" y="1060.8" type="line"/>
      <point x="541.5" y="1060.8" type="line" smooth="yes"/>
      <point x="752.1" y="1060.8"/>
      <point x="833.8" y="970.9"/>
      <point x="833.8" y="730.0" type="curve" smooth="yes"/>
      <point x="833.8" y="495.2"/>
      <point x="754.2" y="411.7"/>
      <point x="541.5" y="411.7" type="curve" smooth="yes"/>
      <point x="439.2" y="411.7" type="line"/>
    </contour>
    <contour>
      <point x="159.7" y="0.0" type="line"/>
      <point x="507.7" y="0.0" type="line"/>
      <point x="507.7" y="1442.6" type="line"/>
      <point x="159.7" y="1442.6" type="line"/>
    </contour>
  </outline>
</glyph>
<glyph name="germandbls" format="2">
  <advance width="1491.0"/>
  <unicode hex="00DF"/>
  <note>
germandbls
</note>
  <anchor x="745.3" y="21.000000000000007" name="bottom"/>
  <anchor x="745.3" y="945.1" name="top"/>
  <outline>
    <contour>
      <point x="999.9" y="-53.5" type="curve" smooth="yes"/>
      <point x="1251.9" y="-53.5"/>
      <point x="1433.6" y="25.0"/>
      <point x="1433.6" y="262.4" type="curve" smooth="yes"/>
      <point x="1433.6" y="454.0"/>
      <point x="1307.4" y="566.3"/>
      <point x="1085.3" y="605.3" type="curve" smooth="yes"/>
      <point x="974.4" y="624.9"/>
      <point x="905.3" y="663.9"/>
      <point x="905.3" y="732.4" type="curve" smooth="yes"/>
      <point x="905.3" y="807.2"/>
      <point x="958.0999999999999" y="831.6"/>
      <point x="1034.5" y="880.7" type="curve" smooth="yes"/>
      <point x="1120.2" y="934.9"/>
      <point x="1236.4" y="998.8"/>
      <point x="1236.4" y="1187.6" type="curve" smooth="yes"/>
      <point x="1236.4" y="1447.9"/>
      <point x="1030.7" y="1583.2"/>
      <point x="720.9" y="1583.2" type="curve" smooth="yes"/>
      <point x="399.0" y="1583.2"/>
      <point x="221.4" y="1412.3"/>
      <point x="221.4" y="1128.9" type="curve" smooth="yes"/>
      <point x="221.4" y="0.0" type="line"/>
      <point x="561.8" y="0.0" type="line"/>
      <point x="561.8" y="1092.9" type="line" smooth="yes"/>
      <point x="561.8" y="1330.7"/>
      <point x="592.4" y="1469.9"/>
      <point x="733.9" y="1469.9" type="curve" smooth="yes"/>
      <point x="870.4" y="1469.9"/>
      <point x="982.0" y="1365.2"/>
      <point x="982.0" y="1196.7" type="curve" smooth="yes"/>
      <point x="982.0" y="1092.9"/>
      <point x="931.7" y="1038.4"/>
      <point x="865.4" y="993.3" type="curve" smooth="yes"/>
      <point x="782.3" y="935.2"/>
      <point x="667.4" y="886.6"/>
      <point x="667.4" y="706.1" type="curve" smooth="yes"/>
      <point x="667.4" y="575.4"/>
      <point x="731.2" y="458.2"/>
      <point x="988.5" y="397.6" type="curve" smooth="yes"/>
      <point x="1031.5" y="387.5"/>
      <point x="1170.4" y="371.1"/>
      <point x="1170.4" y="232.1" type="curve" smooth="yes"/>
      <point x="1170.4" y="125.6"/>
      <point x="1105.6" y="65.80000000000001"/>
      <point x="1001.7" y="65.80000000000001" type="curve" smooth="yes"/>
      <point x="890.9" y="65.80000000000001"/>
      <point x="820.0" y="102.30000000000001"/>
      <point x="664.0" y="288.29999999999995" type="curve"/>
      <point x="658.9" y="76.8" type="line"/>
      <point x="714.2" y="25.699999999999996"/>
      <point x="789.8" y="-53.5"/>
    </contour>
    <contour>
      <point x="44.1" y="856.7" type="line"/>
      <point x="438.8" y="856.7" type="line"/>
      <point x="438.8" y="966.6" type="line"/>
      <point x="44.1" y="966.6" type="line"/>
    </contour>
  </outline>
</glyph>
<glyph name="ae" format="2">
  <advance width="2125.6"/>
  <unicode hex="00E6"/>
  <note>
ae
</note>
  <anchor x="1053.4" y="21.000000000000007" name="bottom"/>
  <anchor x="1059.4" y="945.1" name="top"/>
  <outline>
    <contour>
      <point x="561.9" y="-35.7" type="curve" smooth="yes"/>
      <point x="787.2" y="-35.7"/>
      <point x="932.5" y="78.6"/>
      <point x="983.6" y="293.9" type="curve"/>
      <point x="906.6" y="355.4" type="line"/>
      <point x="906.6" y="0.0" type="line"/>
      <point x="1206.4" y="0.0" type="line"/>
      <point x="1206.4" y="965.6" type="line"/>
      <point x="902.3" y="965.6" type="line"/>
      <point x="902.3" y="597.7" type="line"/>
      <point x="979.0" y="659.0" type="line"/>
      <point x="932.8" y="876.6"/>
      <point x="778.4" y="991.9"/>
      <point x="555.9" y="991.9" type="curve" smooth="yes"/>
      <point x="257.4" y="991.9"/>
      <point x="68.1" y="784.2"/>
      <point x="68.1" y="471.4" type="curve" smooth="yes"/>
      <point x="68.1" y="161.7"/>
      <point x="262.9" y="-35.7"/>
    </contour>
    <contour>
      <point x="593.5" y="76.20000000000002" type="curve" smooth="yes"/>
      <point x="482.6" y="76.20000000000002"/>
      <point x="413.1" y="223.0"/>
      <point x="413.1" y="476.1" type="curve" smooth="yes"/>
      <point x="413.1" y="732.2"/>
      <point x="479.2" y="880.3"/>
      <point x="588.2" y="880.3" type="curve" smooth="yes"/>
      <point x="714.9" y="880.3"/>
      <point x="824.2" y="693.8"/>
      <point x="824.2" y="471.4" type="curve" smooth="yes"/>
      <point x="824.2" y="259.2"/>
      <point x="722.9" y="76.20000000000002"/>
    </contour>
    <contour>
      <point x="1570.9" y="-30.1" type="curve" smooth="yes"/>
      <point x="1810.5" y="-30.1"/>
      <point x="1965.6" y="89.0"/>
      <point x="2049.7" y="341.9" type="curve"/>
      <point x="1835.5" y="341.9" type="line"/>
      <point x="1834.6" y="220.1"/>
      <point x="1686.5" y="80.5"/>
      <point x="1580.2" y="80.5" type="curve" smooth="yes"/>
      <point x="1464.8" y="80.5"/>
      <point x="1386.8" y="260.4"/>
      <point x="1386.8" y="470.8" type="curve" smooth="yes"/>
      <point x="1386.8" y="632.1"/>
      <point x="1463.6" y="870.5"/>
      <point x="1570.9" y="870.5" type="curve" smooth="yes"/>
      <point x="1650.3" y="870.5"/>
      <point x="1716.9" y="731.7"/>
      <point x="1739.4" y="497.4" type="curve"/>
      <point x="2067.0" y="497.4" type="line"/>
      <point x="2026.1" y="812.6"/>
      <point x="1851.6" y="981.4"/>
      <point x="1565.2" y="981.4" type="curve" smooth="yes"/>
      <point x="1262.1" y="981.4"/>
      <point x="1058.4" y="775.7"/>
      <point x="1058.4" y="473.4" type="curve" smooth="yes"/>
      <point x="1058.4" y="169.4"/>
      <point x="1262.3" y="-30.1"/>
    </contour>
    <contour>
      <point x="1362.9" y="496.4" type="line"/>
      <point x="2001.5" y="497.4" type="line"/>
      <point x="2001.5" y="600.3" type="line"/>
      <point x="1328.4" y="600.3" type="line"/>
    </contour>
  </outline>
</glyph>
<glyph name="eth" format="2">
  <advance width="1272.3"/>
  <unicode hex="00F0"/>
  <note>
eth
</note>
  <outline>
    <contour>
      <point x="632.9" y="-55.3" type="curve" smooth="yes"/>
      <point x="831.6" y="-55.3"/>
      <point x="958.7" y="6.699999999999999"/>
      <point x="1054.7" y="121.5" type="curve" smooth="yes"/>
      <point x="1141.3" y="220.2"/>
      <point x="1194.9" y="330.3"/>
      <point x="1194.9" y="507.3" type="curve" smooth="yes"/>
      <point x="1194.9" y="656.4"/>
      <point x="1152.2" y="865.4"/>
      <point x="1074.5" y="1010.7" type="curve" smooth="yes"/>
      <point x="933.7" y="1277.8"/>
      <point x="600.5" y="1486.5"/>
      <point x="196.3" y="1551.8" type="curve"/>
      <point x="134.6" y="1457.6" type="line"/>
      <point x="517.3" y="1403.2"/>
      <point x="777.3" y="1154.8"/>
      <point x="870.9" y="708.8" type="curve"/>
      <point x="1029.9" y="809.5" type="line"/>
      <point x="912.1" y="909.7"/>
      <point x="793.2" y="963.1"/>
      <point x="632.9" y="963.1" type="curve" smooth="yes"/>
      <point x="485.9" y="963.1"/>
      <point x="332.8" y="938.7"/>
      <point x="223.1" y="835.3" type="curve" smooth="yes"/>
      <point x="127.30000000000001" y="749.5"/>
      <point x="69.2" y="609.6"/>
      <point x="69.2" y="449.9" type="curve" smooth="yes"/>
      <point x="69.2" y="317.4"/>
      <point x="118.0" y="179.6"/>
      <point x="202.1" y="89.4" type="curve" smooth="yes"/>
      <point x="318.4" y="-35.099999999999994"/>
      <point x="487.7" y="-55.3"/>
    </contour>
    <contour>
      <point x="631.9" y="52.70000000000001" type="curve" smooth="yes"/>
      <point x="524.2" y="52.70000000000001"/>
      <point x="413.9" y="249.8"/>
      <point x="413.9" y="450.9" type="curve" smooth="yes"/>
      <point x="413.9" y="652.6"/>
      <point x="525.5" y="854.8"/>
      <point x="631.9" y="854.8" type="curve" smooth="yes"/>
      <point x="738.3" y="854.8"/>
      <point x="849.9" y="652.6"/>
      <point x="849.9" y="450.9" type="curve" smooth="yes"/>
      <point x="849.9" y="249.5"/>
      <point x="739.6" y="52.70000000000001"/>
    </contour>
    <contour>
      <point x="181.1" y="1094.5" type="line"/>
      <point x="391.8" y="1094.5" type="line"/>
      <point x="908.9" y="1568.9" type="line"/>
      <point x="698.2" y="1568.9" type="line"/>
    </contour>
  </outline>
</glyph>
<glyph name="divide" format="2">
  <advance width="1118.0"/>
  <unicode hex="00F7"/>
  <note>
divide
</note>
  <outline>
    <contour>
      <point x="116.7" y="503.4" type="line"/>
      <point x="1441.0" y="503.4" type="line"/>
      <point x="1441.0" y="687.0" type="line"/>
      <point x="116.7" y="687.0" type="line"/>
    </contour>
    <contour>
      <point x="778.7" y="2.1000000000000227" type="curve" smooth="yes"/>
      <point x="881.0999999999999" y="2.1000000000000227"/>
      <point x="961.5" y="90.29999999999998"/>
      <point x="961.5" y="198.10000000000002" type="curve" smooth="yes"/>
      <point x="961.5" y="305.9"/>
      <point x="880.8" y="394.4"/>
      <point x="778.7" y="394.4" type="curve" smooth="yes"/>
      <point x="676.9" y="394.4"/>
      <point x="596.2" y="305.9"/>
      <point x="596.2" y="198.10000000000002" type="curve" smooth="yes"/>
      <point x="596.2" y="90.30000000000001"/>
      <point x="676.9" y="2.1000000000000227"/>
    </contour>
    <contour>
      <point x="778.7" y="797.5" type="curve" smooth="yes"/>
      <point x="880.8" y="797.5"/>
      <point x="961.5" y="885.7"/>
      <point x="961.5" y="993.2" type="curve" smooth="yes"/>
      <point x="961.5" y="1101.0"/>
      <point x="880.8" y="1189.5"/>
      <point x="778.7" y="1189.5" type="curve" smooth="yes"/>
      <point x="676.6" y="1189.5"/>
      <point x="596.2" y="1101.0"/>
      <point x="596.2" y="993.2" type="curve" smooth="yes"/>
      <point x="596.2" y="885.7"/>
      <point x="676.9" y="797.5"/>
    </contour>
  </outline>
</glyph>
<glyph name="thorn" format="2">
  <advance width="1317.6"/>
  <unicode hex="00FE"/>
  <note>
thorn
</note>
  <anchor x="684.9" y="21.000000000000007" name="bottom"/>
  <anchor x="684.9" y="941.6" name="top"/>
  <outline>
    <contour>
      <point x="140.0" y="-526.0" type="line"/>
      <point x="482.20000000000005" y="-526.0" type="line"/>
      <point x="482.20000000000005" y="359.2" type="line"/>
      <point x="393.0" y="297.9" type="line"/>
      <point x="438.0" y="80.6"/>
      <point x="537.3" y="-40.1"/>
      <point x="763.5" y="-40.1" type="curve" smooth="yes"/>
      <point x="1056.8" y="-40.1"/>
      <point x="1249.5" y="159.8"/>
      <point x="1249.5" y="480.4" type="curve" smooth="yes"/>
      <point x="1249.5" y="786.0"/>
      <point x="1070.6" y="995.4"/>
      <point x="771.5" y="995.4" type="curve" smooth="yes"/>
      <point x="547.2" y="995.4"/>
      <point x="431.3" y="881.1"/>
      <point x="381.1" y="664.9" type="curve"/>
      <point x="478.2" y="597.9" type="line"/>
      <point x="478.2" y="1524.0" type="line"/>
      <point x="140.0" y="1524.0" type="line"/>
    </contour>
    <contour>
      <point x="723.7" y="71.19999999999999" type="curve" smooth="yes"/>
      <point x="598.2" y="71.19999999999999"/>
      <point x="487.1" y="261.0"/>
      <point x="487.1" y="483.7" type="curve" smooth="yes"/>
      <point x="487.1" y="696.9"/>
      <point x="592.5" y="884.1"/>
      <point x="718.7" y="884.1" type="curve" smooth="yes"/>
      <point x="839.1" y="884.1"/>
      <point x="910.2" y="734.5"/>
      <point x="910.2" y="475.7" type="curve" smooth="yes"/>
      <point x="910.2" y="217.70000000000002"/>
      <point x="840.8" y="71.19999999999999"/>
    </contour>
  </outline>
</glyph>
<glyph name="idotless" format="2">
  <advance width="579.3"/>
  <unicode hex="0131"/>
  <note>
dotlessi
</note>
  <anchor x="289.79999999999995" y="0.0" name="bottom"/>
  <anchor x="318.5" y="0.0" name="ogonek"/>
  <anchor x="289.8" y="965.6" name="top"/>
  <outline>
    <contour>
      <point x="119.3" y="0.0" type="line"/>
      <point x="460.0" y="0.0" type="line"/>
      <point x="460.0" y="965.6" type="line"/>
      <point x="119.3" y="965.6" type="line"/>
    </contour>
  </outline>
</glyph>
<glyph name="kgreenlandic" format="2">
  <advance width="1213.6"/>
  <unicode hex="0138"/>
  <anchor x="611.4" y="21.000000000000007" name="bottom"/>
  <anchor x="611.4" y="963.3" name="top"/>
  <outline>
    <contour>
      <point x="117.9" y="0.0" type="line"/>
      <point x="458.59999999999997" y="0.0" type="line"/>
      <point x="458.59999999999997" y="966.3" type="line"/>
      <point x="117.9" y="966.3" type="line"/>
    </contour>
    <contour>
      <point x="825.2" y="0.0" type="line"/>
      <point x="1174.4" y="0.0" type="line"/>
      <point x="683.4" y="604.6" type="line"/>
      <point x="507.7" y="381.8" type="line"/>
    </contour>
    <contour>
      <point x="395.5" y="196.70000000000002" type="line"/>
      <point x="1087.2" y="966.3" type="line"/>
      <point x="860.1" y="966.3" type="line"/>
      <point x="431.09999999999997" y="481.5" type="line"/>
    </contour>
  </outline>
</glyph>
<glyph name="lslash" format="2">
  <advance width="890.4"/>
  <unicode hex="0142"/>
  <outline>
    <contour>
      <point x="275.9" y="0.0" type="line"/>
      <point x="616.9" y="0.0" type="line"/>
      <point x="616.9" y="1527.5" type="line"/>
      <point x="275.9" y="1527.5" type="line"/>
    </contour>
    <contour>
      <point x="104.2" y="446.7" type="line"/>
      <point x="851.2" y="887.7" type="line"/>
      <point x="786.8" y="993.7" type="line"/>
      <point x="39.2" y="553.0" type="line"/>
    </contour>
  </outline>
</glyph>
<glyph name="Eng" format="2">
  <advance width="1553.7"/>
  <unicode hex="014A"/>
  <outline>
    <contour>
      <point x="1065.6" y="-444.6" type="curve" smooth="yes"/>
      <point x="1251.9" y="-444.6"/>
      <point x="1386.9" y="-337.4"/>
      <point x="1386.9" y="-122.20000000000002" type="curve" smooth="yes"/>
      <point x="1386.9" y="1442.6" type="line"/>
      <point x="1183.8" y="1442.6" type="line"/>
      <point x="1183.8" y="316.5" type="line"/>
      <point x="1282.6" y="351.59999999999997" type="line"/>
      <point x="395.5" y="1442.6" type="line"/>
      <point x="158.2" y="1442.6" type="line"/>
      <point x="162.1" y="-10.5" type="line"/>
      <point x="364.3" y="-10.5" type="line"/>
      <point x="364.3" y="1032.8" type="line"/>
      <point x="311.1" y="1013.2" type="line"/>
      <point x="1095.6" y="58.099999999999994" type="line" smooth="yes"/>
      <point x="1146.7" y="-4.6000000000000085"/>
      <point x="1168.0" y="-56.70000000000002"/>
      <point x="1168.0" y="-155.9" type="curve" smooth="yes"/>
      <point x="1168.0" y="-303.1"/>
      <point x="1116.8" y="-346.8"/>
      <point x="1055.7" y="-346.8" type="curve" smooth="yes"/>
      <point x="992.0" y="-346.8"/>
      <point x="895.6" y="-306.1"/>
      <point x="787.2" y="-121.4" type="curve"/>
      <point x="787.2" y="-342.6" type="line"/>
      <point x="828.7" y="-393.3"/>
      <point x="927.4" y="-444.6"/>
    </contour>
  </outline>
</glyph>
<glyph name="eng" format="2">
  <advance width="1239.3"/>
  <unicode hex="014B"/>
  <outline>
    <contour>
      <point x="807.1" y="-480.8" type="curve" smooth="yes"/>
      <point x="1047.0" y="-480.8"/>
      <point x="1138.1" y="-317.9"/>
      <point x="1138.1" y="18.500000000000014" type="curve" smooth="yes"/>
      <point x="1138.1" y="616.4" type="line" smooth="yes"/>
      <point x="1138.1" y="838.4"/>
      <point x="976.3" y="981.4"/>
      <point x="725.7" y="981.4" type="curve" smooth="yes"/>
      <point x="597.4" y="981.4"/>
      <point x="499.2" y="939.5"/>
      <point x="428.2" y="849.6" type="curve"/>
      <point x="461.4" y="812.8" type="line"/>
      <point x="462.3" y="966.3" type="line"/>
      <point x="117.9" y="966.3" type="line"/>
      <point x="117.9" y="-0.30000000000000004" type="line"/>
      <point x="463.7" y="-0.30000000000000004" type="line"/>
      <point x="463.7" y="499.5" type="line" smooth="yes"/>
      <point x="463.7" y="702.6"/>
      <point x="560.7" y="868.9"/>
      <point x="681.0" y="868.9" type="curve" smooth="yes"/>
      <point x="749.9" y="868.9"/>
      <point x="792.3" y="773.8"/>
      <point x="792.3" y="531.1" type="curve" smooth="yes"/>
      <point x="792.3" y="96.00000000000001" type="line" smooth="yes"/>
      <point x="792.3" y="-44.80000000000001"/>
      <point x="862.5" y="-324.8"/>
      <point x="763.1" y="-361.9" type="curve" smooth="yes"/>
      <point x="699.0" y="-350.7"/>
      <point x="700.7" y="-323.3"/>
      <point x="700.7" y="-276.2" type="curve" smooth="yes"/>
      <point x="700.7" y="-252.7"/>
      <point x="707.2" y="-205.0"/>
      <point x="715.4" y="-168.3" type="curve"/>
      <point x="497.5" y="-168.3" type="line"/>
      <point x="491.3" y="-212.8"/>
      <point x="489.8" y="-244.10000000000002"/>
      <point x="489.8" y="-259.2" type="curve" smooth="yes"/>
      <point x="491.9" y="-404.3"/>
      <point x="635.3" y="-480.8"/>
    </contour>
  </outline>
</glyph>
<glyph name="OE" format="2">
  <advance width="2279.3"/>
  <unicode hex="0152"/>
  <note>
OE
</note>
  <anchor x="1155.5" y="15.0" name="bottom"/>
  <anchor x="1155.5" y="1430.0" name="top"/>
  <outline>
    <contour>
      <point x="829.4" y="-42.2" type="curve" smooth="yes"/>
      <point x="1246.4" y="-41.599999999999994"/>
      <point x="1560.7" y="286.0"/>
      <point x="1560.7" y="712.0" type="curve" smooth="yes"/>
      <point x="1560.7" y="1142.5"/>
      <point x="1238.2" y="1472.3"/>
      <point x="829.4" y="1472.3" type="curve" smooth="yes"/>
      <point x="417.5" y="1472.3"/>
      <point x="96.8" y="1137.9"/>
      <point x="96.8" y="710.2" type="curve" smooth="yes"/>
      <point x="96.8" y="285.2"/>
      <point x="412.1" y="-42.800000000000004"/>
    </contour>
    <contour>
      <point x="829.4" y="55.900000000000006" type="curve"/>
      <point x="605.6" y="55.9"/>
      <point x="447.8" y="321.3"/>
      <point x="447.8" y="710.2" type="curve" smooth="yes"/>
      <point x="447.8" y="1100.0"/>
      <point x="606.2" y="1374.2"/>
      <point x="829.4" y="1374.2" type="curve"/>
      <point x="1052.3" y="1374.2"/>
      <point x="1213.7" y="1098.4"/>
      <point x="1213.7" y="710.2" type="curve" smooth="yes"/>
      <point x="1213.7" y="323.6"/>
      <point x="1053.9" y="55.9"/>
    </contour>
    <contour>
      <point x="1218.4" y="-10.5" type="line"/>
      <point x="2179.1" y="-10.5" type="line"/>
      <point x="2179.1" y="93.60000000000002" type="line"/>
      <point x="1157.7" y="93.60000000000002" type="line"/>
      <point x="1569.7" y="1.0" type="line"/>
      <point x="1569.7" y="771.1" type="line"/>
      <point x="1290.9" y="675.8" type="line"/>
      <point x="2179.1" y="675.8" type="line"/>
      <point x="2179.1" y="779.9" type="line"/>
      <point x="1261.0" y="779.9" type="line"/>
      <point x="1569.7" y="687.3" type="line"/>
      <point x="1569.7" y="1417.3" type="line"/>
      <point x="1253.7" y="1338.5" type="line"/>
      <point x="2179.1" y="1338.5" type="line"/>
      <point x="2179.1" y="1442.6" type="line"/>
      <point x="1218.4" y="1442.6" type="line"/>
    </contour>
  </outline>
</glyph>
<glyph name="Schwa" format="2">
  <advance width="1690.9"/>
  <unicode hex="018F"/>
  <anchor x="845.8" y="15.0" name="bottom"/>
  <anchor x="845.8" y="1430.0" name="top"/>
  <outline>
    <contour>
      <point x="832.0" y="-41.9" type="curve" smooth="yes"/>
      <point x="1269.3" y="-41.9"/>
      <point x="1594.1" y="284.0"/>
      <point x="1594.1" y="712.3" type="curve" smooth="yes"/>
      <point x="1594.1" y="1138.8"/>
      <point x="1256.2" y="1472.3"/>
      <point x="832.9" y="1472.3" type="curve" smooth="yes"/>
      <point x="560.0" y="1472.3"/>
      <point x="309.29999999999995" y="1328.1"/>
      <point x="191.3" y="1112.3" type="curve"/>
      <point x="497.9" y="1112.3" type="line"/>
      <point x="572.5" y="1278.3"/>
      <point x="688.6" y="1374.2"/>
      <point x="832.6" y="1374.2" type="curve"/>
      <point x="1071.4" y="1374.2"/>
      <point x="1240.1" y="1100.0"/>
      <point x="1240.1" y="710.8" type="curve" smooth="yes"/>
      <point x="1240.1" y="321.9"/>
      <point x="1072.4" y="56.20000000000001"/>
      <point x="832.9" y="56.2" type="curve"/>
      <point x="598.0" y="56.2"/>
      <point x="432.1" y="314.0"/>
      <point x="428.20000000000005" y="714.4" type="curve"/>
      <point x="82.6" y="714.4" type="line"/>
      <point x="78.7" y="276.3"/>
      <point x="402.7" y="-41.9"/>
    </contour>
    <contour>
      <point x="378.1" y="610.3" type="line"/>
      <point x="1294.3" y="610.3" type="line"/>
      <point x="1294.3" y="714.4" type="line"/>
      <point x="378.1" y="714.4" type="line"/>
    </contour>
  </outline>
</glyph>
<glyph name="florin" format="2">
  <advance width="1543.0"/>
  <unicode hex="0192"/>
  <note>
florin
</note>
  <outline>
    <contour>
      <point x="569.7" y="446.7" type="line"/>
      <point x="919.1" y="446.7" type="line"/>
      <point x="1064.1" y="1012.3" type="line" smooth="yes"/>
      <point x="1053.6" y="1195.7"/>
      <point x="1056.2" y="1409.1"/>
      <point x="1207.5" y="1440.6" type="curve"/>
      <point x="1260.9" y="1436.5"/>
      <point x="1252.4" y="1403.8"/>
      <point x="1218.0" y="1312.1" type="curve"/>
      <point x="1427.2" y="1415.8" type="line"/>
      <point x="1391.9" y="1521.3"/>
      <point x="1297.8" y="1573.9"/>
      <point x="1155.0" y="1573.9" type="curve" smooth="yes"/>
      <point x="931.9" y="1573.9"/>
      <point x="829.0" y="1479.5"/>
      <point x="750.9" y="1164.4" type="curve" smooth="yes"/>
    </contour>
    <contour>
      <point x="387.70000000000005" y="-481.0" type="curve" smooth="yes"/>
      <point x="612.0" y="-481.0"/>
      <point x="706.8" y="-385.1"/>
      <point x="788.5" y="-66.39999999999999" type="curve" smooth="yes"/>
      <point x="973.2" y="652.7" type="line"/>
      <point x="622.6" y="652.7" type="line"/>
      <point x="479.2" y="81.19999999999999" type="line" smooth="yes"/>
      <point x="489.1" y="-103.69999999999999"/>
      <point x="486.2" y="-315.6"/>
      <point x="334.6" y="-347.4" type="curve"/>
      <point x="281.20000000000005" y="-343.29999999999995"/>
      <point x="290.0" y="-310.3"/>
      <point x="324.4" y="-218.9" type="curve"/>
      <point x="115.8" y="-322.0" type="line"/>
      <point x="150.2" y="-427.8"/>
      <point x="244.9" y="-481.0"/>
    </contour>
    <contour>
      <point x="452.1" y="832.9" type="line"/>
      <point x="1246.0" y="832.9" type="line"/>
      <point x="1273.4" y="941.3" type="line"/>
      <point x="478.6" y="941.3" type="line"/>
    </contour>
  </outline>
</glyph>
<glyph name="jdotless" format="2">
  <advance width="599.7"/>
  <unicode hex="0237"/>
  <anchor x="307.0" y="-505.0" name="bottom"/>
  <anchor x="307.0" y="941.6" name="top"/>
  <outline>
    <contour>
      <point x="129.3" y="-566.9" type="curve" smooth="yes"/>
      <point x="364.4" y="-566.9"/>
      <point x="470.20000000000005" y="-448.4"/>
      <point x="470.20000000000005" y="-124.3" type="curve" smooth="yes"/>
      <point x="470.20000000000005" y="966.3" type="line"/>
      <point x="129.2" y="966.3" type="line"/>
      <point x="129.2" y="-19.799999999999997" type="line" smooth="yes"/>
      <point x="129.2" y="-160.6"/>
      <point x="191.60000000000002" y="-405.5"/>
      <point x="95.2" y="-442.6" type="curve" smooth="yes"/>
      <point x="42.5" y="-431.4"/>
      <point x="25.599999999999994" y="-413.9"/>
      <point x="25.599999999999994" y="-362.3" type="curve" smooth="yes"/>
      <point x="25.599999999999994" y="-339.4"/>
      <point x="31.19999999999999" y="-294.1"/>
      <point x="42.39999999999999" y="-253.2" type="curve"/>
      <point x="-181.2" y="-253.2" type="line"/>
      <point x="-187.4" y="-297.4"/>
      <point x="-189.5" y="-332.0"/>
      <point x="-189.5" y="-345.3" type="curve" smooth="yes"/>
      <point x="-189.5" y="-498.8"/>
      <point x="-47.00000000000001" y="-566.9"/>
    </contour>
  </outline>
</glyph>
<glyph name="primemod" format="2">
  <advance width="364.0"/>
  <unicode hex="02B9"/>
  <outline>
    <contour>
      <point x="364.0" y="1351.6" type="curve"/>
      <point x="99.2" y="1351.6" type="line"/>
      <point x="61.9" y="1249.4"/>
      <point x="12.0" y="1058.9"/>
      <point x="0.0" y="980.2" type="curve"/>
      <point x="227.8" y="980.2" type="line"/>
      <point x="288.4" y="1113.4"/>
      <point x="340.0" y="1256.9"/>
    </contour>
  </outline>
</glyph>
<glyph name="gravecomb" format="2">
  <unicode hex="0300"/>
  <note>
grave
</note>
  <anchor x="274.79999999999995" y="939.1" name="_top"/>
  <anchor x="274.79999999999995" y="1401.0" name="top"/>
  <outline>
    <contour>
      <point x="337.5" y="1080.8" type="curve"/>
      <point x="497.70000000000005" y="1080.8" type="line"/>
      <point x="428.1" y="1226.8"/>
      <point x="372.79999999999995" y="1322.7"/>
      <point x="328.8" y="1398.0" type="curve"/>
      <point x="58.599999999999994" y="1398.0" type="line"/>
      <point x="108.30000000000001" y="1328.9"/>
      <point x="217.60000000000002" y="1194.0"/>
    </contour>
  </outline>
</glyph>
<glyph name="acutecomb" format="2">
  <unicode hex="0301"/>
  <note>
acute
</note>
  <anchor x="246.7" y="980.4" name="_top"/>
  <anchor x="288.7" y="1407.0" name="top"/>
  <outline>
    <contour>
      <point x="73.0" y="1086.8" type="curve"/>
      <point x="218.5" y="1086.8" type="line"/>
      <point x="337.8" y="1199.4"/>
      <point x="447.4" y="1334.3"/>
      <point x="497.1" y="1404.0" type="curve"/>
      <point x="227.2" y="1404.0" type="line"/>
      <point x="183.2" y="1328.7"/>
      <point x="133.9" y="1232.8"/>
    </contour>
  </outline>
</glyph>
<glyph name="circumflexcomb" format="2">
  <unicode hex="0302"/>
  <note>
circumflex
</note>
  <anchor x="408.9" y="939.1" name="_top"/>
  <anchor x="408.9" y="1519.6" name="top"/>
  <outline>
    <contour>
      <point x="63.199999999999996" y="1107.4" type="line"/>
      <point x="200.9" y="1107.4" type="line"/>
      <point x="402.9" y="1350.8" type="line"/>
      <point x="618.9" y="1107.4" type="line"/>
      <point x="754.6" y="1107.4" type="line"/>
      <point x="499.4" y="1516.6" type="line"/>
      <point x="316.1" y="1516.6" type="line"/>
    </contour>
  </outline>
</glyph>
<glyph name="tildecomb" format="2">
  <unicode hex="0303"/>
  <note>
tilde
</note>
  <anchor x="392.9" y="939.1" name="_top"/>
  <anchor x="399.9" y="1407.8" name="top"/>
  <outline>
    <contour>
      <point x="525.9" y="1106.7" type="curve" smooth="yes"/>
      <point x="627.6" y="1106.7"/>
      <point x="711.1" y="1182.0"/>
      <point x="763.1" y="1328.9" type="curve"/>
      <point x="728.8" y="1370.5" type="line"/>
      <point x="646.0" y="1258.7"/>
      <point x="574.6" y="1258.8"/>
      <point x="552.5" y="1258.8" type="curve" smooth="yes"/>
      <point x="428.6" y="1258.8"/>
      <point x="453.1" y="1404.8"/>
      <point x="275.9" y="1404.8" type="curve" smooth="yes"/>
      <point x="170.9" y="1404.8"/>
      <point x="90.0" y="1328.8"/>
      <point x="36.4" y="1180.6" type="curve"/>
      <point x="71.0" y="1139.3" type="line"/>
      <point x="157.8" y="1251.1"/>
      <point x="214.9" y="1250.7"/>
      <point x="247.3" y="1250.7" type="curve" smooth="yes"/>
      <point x="371.2" y="1250.7"/>
      <point x="353.7" y="1106.7"/>
    </contour>
  </outline>
</glyph>
<glyph name="macroncomb" format="2">
  <unicode hex="0304"/>
  <note>
macron
</note>
  <anchor x="474.5" y="939.1" name="_top"/>
  <anchor x="474.5" y="1275.8" name="top"/>
  <outline>
    <contour>
      <point x="94.9" y="1151.9" type="line"/>
      <point x="854.1" y="1151.9" type="line"/>
      <point x="854.1" y="1272.8" type="line"/>
      <point x="94.9" y="1272.8" type="line"/>
    </contour>
  </outline>
</glyph>
<glyph name="brevecomb" format="2">
  <unicode hex="0306"/>
  <note>
breve
</note>
  <anchor x="429.29999999999995" y="939.1" name="_top"/>
  <anchor x="429.29999999999995" y="1440.4" name="top"/>
  <outline>
    <contour>
      <point x="429.6" y="1087.3" type="curve" smooth="yes"/>
      <point x="634.4" y="1087.3"/>
      <point x="753.5999999999999" y="1197.2"/>
      <point x="791.9" y="1437.4" type="curve"/>
      <point x="696.8" y="1437.4" type="line"/>
      <point x="630.9" y="1288.5"/>
      <point x="541.0" y="1238.5"/>
      <point x="429.6" y="1238.5" type="curve" smooth="yes"/>
      <point x="320.2" y="1238.5"/>
      <point x="221.0" y="1283.2"/>
      <point x="151.8" y="1437.4" type="curve"/>
      <point x="66.0" y="1437.4" type="line"/>
      <point x="99.0" y="1204.2"/>
      <point x="218.2" y="1087.3"/>
    </contour>
  </outline>
</glyph>
<glyph name="dotaccentcomb" format="2">
  <unicode hex="0307"/>
  <anchor x="230.7" y="939.1" name="_top"/>
  <anchor x="230.7" y="1382.0" name="top"/>
  <outline>
    <contour>
      <point x="230.7" y="1057.5" type="curve" smooth="yes"/>
      <point x="319.9" y="1057.5"/>
      <point x="392.4" y="1129.7"/>
      <point x="392.4" y="1218.9" type="curve" smooth="yes"/>
      <point x="392.4" y="1308.1"/>
      <point x="320.2" y="1379.0"/>
      <point x="230.7" y="1379.0" type="curve" smooth="yes"/>
      <point x="141.2" y="1379.0"/>
      <point x="69.0" y="1308.1"/>
      <point x="69.0" y="1218.9" type="curve" smooth="yes"/>
      <point x="69.0" y="1129.7"/>
      <point x="141.2" y="1057.5"/>
    </contour>
  </outline>
</glyph>
<glyph name="dieresiscomb" format="2">
  <unicode hex="0308"/>
  <note>
dieresis
</note>
  <anchor x="402.6" y="939.1" name="_top"/>
  <anchor x="402.6" y="1359.4" name="top"/>
  <outline>
    <contour>
      <point x="604.1" y="1048.5" type="curve" smooth="yes"/>
      <point x="689.0" y="1048.5"/>
      <point x="758.2" y="1117.4"/>
      <point x="758.2" y="1202.6" type="curve" smooth="yes"/>
      <point x="758.2" y="1287.8"/>
      <point x="689.3" y="1356.4"/>
      <point x="604.1" y="1356.4" type="curve" smooth="yes"/>
      <point x="518.6" y="1356.4"/>
      <point x="449.70000000000005" y="1287.8"/>
      <point x="449.70000000000005" y="1202.6" type="curve" smooth="yes"/>
      <point x="449.70000000000005" y="1117.4"/>
      <point x="518.6" y="1048.5"/>
    </contour>
    <contour>
      <point x="201.1" y="1048.5" type="curve" smooth="yes"/>
      <point x="286.3" y="1048.5"/>
      <point x="355.5" y="1117.7"/>
      <point x="355.5" y="1202.6" type="curve" smooth="yes"/>
      <point x="355.5" y="1287.8"/>
      <point x="286.6" y="1356.4"/>
      <point x="201.1" y="1356.4" type="curve" smooth="yes"/>
      <point x="115.9" y="1356.4"/>
      <point x="47.0" y="1287.8"/>
      <point x="47.0" y="1202.6" type="curve" smooth="yes"/>
      <point x="47.0" y="1117.4"/>
      <point x="116.2" y="1048.5"/>
    </contour>
  </outline>
</glyph>
<glyph name="hookabovecomb" format="2">
  <unicode hex="0309"/>
  <anchor x="188.0" y="939.1" name="_top"/>
  <anchor x="188.0" y="1507.0" name="top"/>
  <outline>
    <contour>
      <point x="117.69999999999999" y="1135.2" type="line"/>
      <point x="301.8" y="1159.1"/>
      <point x="393.2" y="1224.5"/>
      <point x="393.2" y="1324.5" type="curve" smooth="yes"/>
      <point x="393.2" y="1428.1"/>
      <point x="294.6" y="1504.0"/>
      <point x="172.0" y="1504.0" type="curve" smooth="yes"/>
      <point x="81.1" y="1504.0"/>
      <point x="20.200000000000003" y="1462.1"/>
      <point x="-17.200000000000003" y="1423.4" type="curve"/>
      <point x="7.5" y="1386.1" type="line"/>
      <point x="43.2" y="1415.8"/>
      <point x="102.2" y="1442.7"/>
      <point x="161.39999999999998" y="1442.7" type="curve" smooth="yes"/>
      <point x="224.1" y="1442.7"/>
      <point x="261.1" y="1402.4"/>
      <point x="261.1" y="1326.8" type="curve" smooth="yes"/>
      <point x="261.1" y="1213.0"/>
      <point x="177.9" y="1195.2"/>
      <point x="117.69999999999999" y="1178.2" type="curve"/>
    </contour>
    <contour>
      <point x="117.69999999999999" y="1048.9" type="line"/>
      <point x="233.2" y="1048.9" type="line"/>
      <point x="233.2" y="1189.5" type="line"/>
      <point x="117.69999999999999" y="1164.9" type="line"/>
    </contour>
  </outline>
</glyph>
<glyph name="ringcomb" format="2">
  <unicode hex="030A"/>
  <note>
ring
</note>
  <anchor x="284.9" y="939.1" name="_top"/>
  <anchor x="284.9" y="1459.1" name="top"/>
  <outline>
    <contour>
      <point x="284.9" y="1030.7" type="curve" smooth="yes"/>
      <point x="400.5" y="1030.7"/>
      <point x="494.8" y="1125.0"/>
      <point x="494.8" y="1240.3" type="curve" smooth="yes"/>
      <point x="494.8" y="1355.9"/>
      <point x="400.5" y="1451.2"/>
      <point x="284.9" y="1451.2" type="curve" smooth="yes"/>
      <point x="169.3" y="1451.2"/>
      <point x="75.0" y="1355.9"/>
      <point x="75.0" y="1240.3" type="curve" smooth="yes"/>
      <point x="75.0" y="1125.0"/>
      <point x="169.3" y="1030.7"/>
    </contour>
    <contour>
      <point x="284.9" y="1129.9" type="curve" smooth="yes"/>
      <point x="224.2" y="1129.9"/>
      <point x="174.8" y="1179.6"/>
      <point x="174.8" y="1240.3" type="curve" smooth="yes"/>
      <point x="174.8" y="1301.3"/>
      <point x="224.2" y="1351.0"/>
      <point x="284.9" y="1351.0" type="curve" smooth="yes"/>
      <point x="345.6" y="1351.0"/>
      <point x="395.0" y="1301.3"/>
      <point x="395.0" y="1240.3" type="curve" smooth="yes"/>
      <point x="395.0" y="1179.6"/>
      <point x="345.6" y="1129.9"/>
    </contour>
  </outline>
</glyph>
<glyph name="horncomb" format="2">
  <unicode hex="031B"/>
  <anchor x="354.7" y="1259.1" name="_topright"/>
  <anchor x="355.2" y="1346.4" name="topright"/>
  <outline>
    <contour>
      <point x="335.2" y="1395.4" type="curve"/>
      <point x="211.4" y="1395.4" type="line"/>
      <point x="210.8" y="1346.0"/>
      <point x="208.9" y="1220.5"/>
      <point x="77.7" y="1213.5" type="curve"/>
      <point x="77.7" y="1129.6" type="line"/>
      <point x="206.3" y="1126.9"/>
      <point x="334.9" y="1223.6"/>
    </contour>
  </outline>
</glyph>
<glyph name="cedillacomb" format="2">
  <unicode hex="0327"/>
  <anchor x="267.8" y="0.0" name="_bottom"/>
  <anchor x="288.65" y="-432.7" name="bottom"/>
  <outline>
    <contour>
      <point x="269.5" y="-453.7" type="curve" smooth="yes"/>
      <point x="460.20000000000005" y="-453.7"/>
      <point x="552.1" y="-402.3"/>
      <point x="552.1" y="-294.1" type="curve" smooth="yes"/>
      <point x="552.1" y="-161.6"/>
      <point x="445.2" y="-86.8"/>
      <point x="316.1" y="-133.2" type="curve" smooth="yes"/>
      <point x="336.1" y="-125.7"/>
      <point x="263.1" y="-163.3"/>
      <point x="228.3" y="-177.9" type="curve"/>
      <point x="112.9" y="-246.2" type="line"/>
      <point x="235.3" y="-222.5"/>
      <point x="220.9" y="-224.8"/>
      <point x="265.2" y="-224.8" type="curve" smooth="yes"/>
      <point x="330.1" y="-224.8"/>
      <point x="369.1" y="-251.4"/>
      <point x="369.1" y="-294.1" type="curve" smooth="yes"/>
      <point x="369.1" y="-346.7"/>
      <point x="321.2" y="-379.4"/>
      <point x="246.9" y="-379.4" type="curve" smooth="yes"/>
      <point x="186.0" y="-379.4"/>
      <point x="141.6" y="-370.4"/>
      <point x="49.7" y="-341.1" type="curve"/>
      <point x="49.7" y="-405.4" type="line"/>
      <point x="134.3" y="-439.7"/>
      <point x="198.6" y="-453.7"/>
    </contour>
    <contour>
      <point x="112.6" y="-246.5" type="line"/>
      <point x="301.6" y="-182.9" type="line"/>
      <point x="399.6" y="-0.6000000000000001" type="line"/>
      <point x="241.6" y="-0.6000000000000001" type="line"/>
    </contour>
  </outline>
</glyph>
<glyph name="ogonekcomb" format="2">
  <unicode hex="0328"/>
  <anchor x="460.6" y="0.0" name="_ogonek"/>
  <outline>
    <contour>
      <point x="310.3" y="-437.8" type="curve" smooth="yes"/>
      <point x="404.8" y="-437.8"/>
      <point x="510.0" y="-406.2"/>
      <point x="610.6" y="-365.2" type="curve"/>
      <point x="610.6" y="-279.7" type="line"/>
      <point x="434.3" y="-348.2"/>
      <point x="392.9" y="-363.2"/>
      <point x="352.6" y="-363.2" type="curve" smooth="yes"/>
      <point x="313.1" y="-363.2"/>
      <point x="283.1" y="-316.5"/>
      <point x="283.1" y="-257.6" type="curve" smooth="yes"/>
      <point x="283.1" y="-162.7"/>
      <point x="381.0" y="-81.0"/>
      <point x="547.7" y="0.0" type="curve"/>
      <point x="395.20000000000005" y="0.0" type="line" smooth="yes"/>
      <point x="281.9" y="0.0"/>
      <point x="38.0" y="-121.30000000000001"/>
      <point x="38.0" y="-247.3" type="curve" smooth="yes"/>
      <point x="38.0" y="-376.1"/>
      <point x="163.1" y="-437.8"/>
    </contour>
  </outline>
</glyph>
<glyph name="strokeshortcomb" format="2">
  <unicode hex="0335"/>
  <anchor x="450.4" y="760.7" name="_center"/>
  <outline>
    <contour>
      <point x="41.3" y="716.7" type="line"/>
      <point x="857.8" y="716.7" type="line"/>
      <point x="857.8" y="803.3" type="line"/>
      <point x="41.3" y="803.3" type="line"/>
    </contour>
  </outline>
</glyph>
<glyph name="slashshortcomb" format="2">
  <unicode hex="0337"/>
  <anchor x="409.15" y="710.0" name="_center"/>
  <outline>
    <contour>
      <point x="68.9" y="450.9" type="line"/>
      <point x="797.0" y="888.9" type="line"/>
      <point x="749.1" y="969.1" type="line"/>
      <point x="21.299999999999997" y="531.1" type="line"/>
    </contour>
  </outline>
</glyph>
<glyph name="slashlongcomb" format="2">
  <unicode hex="0338"/>
  <anchor x="425.05" y="468.85" name="_center"/>
  <outline>
    <contour>
      <point x="11.299999999999997" y="-113.6" type="line"/>
      <point x="143.4" y="-113.6" type="line"/>
      <point x="838.1" y="1051.3" type="line"/>
      <point x="706.3" y="1051.3" type="line"/>
    </contour>
  </outline>
</glyph>
<glyph name="Dje-cy" format="2">
  <advance width="1627.3"/>
  <unicode hex="0402"/>
  <outline>
    <contour>
      <point x="958.9" y="-40.0" type="line"/>
      <point x="1358.1" y="-40.0"/>
      <point x="1518.3" y="135.9"/>
      <point x="1518.3" y="438.5" type="curve" smooth="yes"/>
      <point x="1518.3" y="759.3"/>
      <point x="1336.5" y="907.5"/>
      <point x="1086.3" y="907.5" type="curve" smooth="yes"/>
      <point x="950.2" y="907.5"/>
      <point x="812.3" y="863.5"/>
      <point x="718.3" y="750.5" type="curve"/>
      <point x="720.3" y="1442.6" type="line"/>
      <point x="377.1" y="1442.6" type="line"/>
      <point x="377.1" y="0.0" type="line"/>
      <point x="717.3" y="0.0" type="line"/>
      <point x="717.3" y="453.5" type="line" smooth="yes"/>
      <point x="717.3" y="715.5"/>
      <point x="918.1" y="770.5"/>
      <point x="993.3" y="770.5" type="curve" smooth="yes"/>
      <point x="1127.9" y="770.5"/>
      <point x="1185.7" y="633.7"/>
      <point x="1185.7" y="429.5" type="curve" smooth="yes"/>
      <point x="1185.7" y="214.3"/>
      <point x="1124.1" y="64.10000000000001"/>
      <point x="973.5" y="64.10000000000001" type="curve"/>
    </contour>
    <contour>
      <point x="76.1" y="1337.6" type="line"/>
      <point x="1022.2" y="1337.6" type="line"/>
      <point x="1022.2" y="1442.6" type="line"/>
      <point x="76.1" y="1442.6" type="line"/>
    </contour>
  </outline>
</glyph>
<glyph name="Lje-cy" format="2">
  <advance width="2316.7"/>
  <unicode hex="0409"/>
  <outline>
    <contour>
      <point x="1198.6" y="99.0" type="line"/>
      <point x="1162.6" y="0.0" type="line"/>
      <point x="1664.8" y="-1.5" type="line" smooth="yes"/>
      <point x="1844.2" y="-1.8000000000000007"/>
      <point x="1981.3" y="47.0"/>
      <point x="2083.5" y="132.6" type="curve" smooth="yes"/>
      <point x="2172.8" y="207.8"/>
      <point x="2226.8" y="328.3"/>
      <point x="2226.8" y="459.2" type="curve" smooth="yes"/>
      <point x="2226.8" y="555.8"/>
      <point x="2190.3" y="721.4"/>
      <point x="2056.9" y="816.6" type="curve" smooth="yes"/>
      <point x="1967.0" y="880.9"/>
      <point x="1856.8" y="920.7"/>
      <point x="1697.7" y="921.3" type="curve" smooth="yes"/>
      <point x="1345.1" y="922.5" type="line"/>
      <point x="1424.8" y="811.9" type="line"/>
      <point x="1658.2" y="812.5" type="line" smooth="yes"/>
      <point x="1818.8" y="812.8"/>
      <point x="1884.1" y="622.3"/>
      <point x="1884.1" y="473.2" type="curve" smooth="yes"/>
      <point x="1884.1" y="338.1"/>
      <point x="1837.7" y="99.9"/>
      <point x="1658.2" y="99.60000000000002" type="curve" smooth="yes"/>
    </contour>
    <contour>
      <point x="524.9" y="1442.6" type="line"/>
      <point x="524.9" y="1106.7"/>
      <point x="510.4" y="869.4"/>
      <point x="478.2" y="670.0" type="curve" smooth="yes"/>
      <point x="412.8" y="241.4"/>
      <point x="291.8" y="203.0"/>
      <point x="153.9" y="203.0" type="curve" smooth="yes"/>
      <point x="94.9" y="203.0" type="line"/>
      <point x="94.9" y="0.0" type="line"/>
      <point x="169.9" y="0.0" type="line" smooth="yes"/>
      <point x="414.9" y="0.0"/>
      <point x="518.1" y="253.1"/>
      <point x="570.9" y="644.0" type="curve" smooth="yes"/>
      <point x="619.3" y="978.5"/>
      <point x="620.3" y="1209.3"/>
      <point x="619.2" y="1402.7" type="curve"/>
      <point x="547.2" y="1337.6" type="line"/>
      <point x="1307.0" y="1337.6" type="line"/>
      <point x="1150.6" y="1424.0" type="line"/>
      <point x="1150.6" y="0.30000000000000004" type="line"/>
      <point x="1494.9" y="0.6000000000000001" type="line"/>
      <point x="1494.9" y="1442.6" type="line"/>
    </contour>
  </outline>
</glyph>
<glyph name="Nje-cy" format="2">
  <advance width="2275.7"/>
  <unicode hex="040A"/>
  <outline>
    <contour>
      <point x="159.0" y="0.0" type="line"/>
      <point x="500.0" y="0.0" type="line"/>
      <point x="500.0" y="801.7" type="line"/>
      <point x="197.1" y="688.0" type="line"/>
      <point x="1424.8" y="688.0" type="line"/>
      <point x="1121.6" y="801.7" type="line"/>
      <point x="1121.6" y="0.0" type="line"/>
      <point x="1462.6" y="0.0" type="line"/>
      <point x="1462.6" y="1442.6" type="line"/>
      <point x="1121.6" y="1442.6" type="line"/>
      <point x="1121.6" y="679.3" type="line"/>
      <point x="1424.8" y="793.0" type="line"/>
      <point x="197.1" y="793.0" type="line"/>
      <point x="500.0" y="679.3" type="line"/>
      <point x="500.0" y="1442.6" type="line"/>
      <point x="159.0" y="1442.6" type="line"/>
    </contour>
    <contour>
      <point x="1157.6" y="99.0" type="line"/>
      <point x="1121.6" y="0.0" type="line"/>
      <point x="1623.8" y="-1.5" type="line" smooth="yes"/>
      <point x="1803.2" y="-1.8000000000000007"/>
      <point x="1940.3" y="47.0"/>
      <point x="2042.5" y="132.6" type="curve" smooth="yes"/>
      <point x="2131.8" y="207.8"/>
      <point x="2185.8" y="328.3"/>
      <point x="2185.8" y="459.2" type="curve" smooth="yes"/>
      <point x="2185.8" y="555.8"/>
      <point x="2149.3" y="721.4"/>
      <point x="2015.9" y="816.6" type="curve" smooth="yes"/>
      <point x="1926.0" y="880.9"/>
      <point x="1815.8" y="920.7"/>
      <point x="1656.7" y="921.3" type="curve" smooth="yes"/>
      <point x="1304.1" y="922.5" type="line"/>
      <point x="1383.8" y="811.9" type="line"/>
      <point x="1617.2" y="812.5" type="line" smooth="yes"/>
      <point x="1777.8" y="812.8"/>
      <point x="1843.1" y="622.3"/>
      <point x="1843.1" y="473.2" type="curve" smooth="yes"/>
      <point x="1843.1" y="338.1"/>
      <point x="1796.7" y="99.9"/>
      <point x="1617.2" y="99.60000000000002" type="curve" smooth="yes"/>
    </contour>
  </outline>
</glyph>
<glyph name="Tshe-cy" format="2">
  <advance width="1627.3"/>
  <unicode hex="040B"/>
  <outline>
    <contour>
      <point x="720.3" y="1442.6" type="line"/>
      <point x="377.1" y="1442.6" type="line"/>
      <point x="377.1" y="0.0" type="line"/>
      <point x="717.3" y="0.0" type="line"/>
      <point x="717.3" y="453.5" type="line" smooth="yes"/>
      <point x="717.3" y="715.5"/>
      <point x="900.3" y="770.5"/>
      <point x="993.3" y="770.5" type="curve" smooth="yes"/>
      <point x="1098.4" y="770.5"/>
      <point x="1169.7" y="626.4"/>
      <point x="1169.7" y="429.5" type="curve" smooth="yes"/>
      <point x="1169.7" y="0.0" type="line"/>
      <point x="1511.3" y="0.0" type="line"/>
      <point x="1511.3" y="522.5" type="line" smooth="yes"/>
      <point x="1511.3" y="745.1"/>
      <point x="1338.6" y="907.5"/>
      <point x="1086.3" y="907.5" type="curve" smooth="yes"/>
      <point x="893.3" y="907.5"/>
      <point x="688.3" y="815.5"/>
      <point x="624.3" y="559.5" type="curve"/>
      <point x="716.3" y="290.5" type="line"/>
    </contour>
    <contour>
      <point x="76.1" y="1337.6" type="line"/>
      <point x="1022.2" y="1337.6" type="line"/>
      <point x="1022.2" y="1442.6" type="line"/>
      <point x="76.1" y="1442.6" type="line"/>
    </contour>
  </outline>
</glyph>
<glyph name="Be-cy" format="2">
  <advance width="1364.6"/>
  <unicode hex="0411"/>
  <outline>
    <contour>
      <point x="176.0" y="0.0" type="line"/>
      <point x="804.5" y="0.0" type="line" smooth="yes"/>
      <point x="1120.8" y="0.0"/>
      <point x="1275.0" y="163.3"/>
      <point x="1275.0" y="407.4" type="curve" smooth="yes"/>
      <point x="1275.0" y="651.5"/>
      <point x="1120.8" y="817.6"/>
      <point x="804.5" y="817.6" type="curve" smooth="yes"/>
      <point x="370.9" y="817.6" type="line"/>
      <point x="527.3" y="658.4" type="line"/>
      <point x="527.3" y="1453.8" type="line"/>
      <point x="176.0" y="1453.8" type="line"/>
    </contour>
    <contour>
      <point x="527.3" y="24.700000000000003" type="line"/>
      <point x="527.3" y="866.8" type="line"/>
      <point x="370.9" y="714.5" type="line"/>
      <point x="668.5" y="715.1" type="line" smooth="yes"/>
      <point x="829.8" y="715.4"/>
      <point x="932.9" y="582.7"/>
      <point x="932.9" y="407.4" type="curve" smooth="yes"/>
      <point x="932.9" y="232.1"/>
      <point x="829.8" y="103.20000000000002"/>
      <point x="668.5" y="103.20000000000002" type="curve" smooth="yes"/>
      <point x="370.9" y="103.20000000000002" type="line"/>
    </contour>
    <contour>
      <point x="1084.2" y="1348.8" type="line"/>
      <point x="1084.2" y="1453.8" type="line"/>
      <point x="178.2" y="1453.8" type="line"/>
      <point x="178.2" y="1348.8" type="line"/>
    </contour>
  </outline>
</glyph>
<glyph name="De-cy" format="2">
  <advance width="1787.0"/>
  <unicode hex="0414"/>
  <outline>
    <contour>
      <point x="97.9" y="0.0" type="line"/>
      <point x="1672.2" y="0.0" type="line"/>
      <point x="1672.2" y="105.00000000000001" type="line"/>
      <point x="1194.9" y="105.00000000000001" type="line"/>
      <point x="1502.2" y="17.0" type="line"/>
      <point x="1502.2" y="1430.0" type="line"/>
      <point x="455.2" y="1430.0" type="line"/>
      <point x="455.2" y="1325.0" type="line"/>
      <point x="1465.2" y="1325.0" type="line"/>
      <point x="1157.9" y="1409.0" type="line"/>
      <point x="1157.9" y="17.0" type="line"/>
      <point x="1465.2" y="105.00000000000001" type="line"/>
      <point x="97.9" y="105.00000000000001" type="line"/>
    </contour>
    <contour>
      <point x="454.5" y="55.0" type="line"/>
      <point x="697.1" y="485.0"/>
      <point x="646.0" y="824.0"/>
      <point x="646.2" y="1401.0" type="curve"/>
      <point x="455.2" y="1401.0" type="line"/>
      <point x="455.0" y="825.0"/>
      <point x="508.0" y="483.99999999999994"/>
      <point x="230.0" y="55.00000000000001" type="curve"/>
    </contour>
    <component base="_cyrillicdescender01.case" xOffset="1482.0"/>
    <component base="_cyrillicdescender01.case" xScale="-1.0" xOffset="305.0"/>
  </outline>
</glyph>
<glyph name="Zhe-cy" format="2">
  <advance width="2202.4"/>
  <unicode hex="0416"/>
  <anchor x="2182.4" y="0.0" name="bottomright"/>
  <anchor x="1101.7" y="1442.6" name="top"/>
  <outline>
    <contour>
      <point x="1826.7" y="0.0" type="line"/>
      <point x="2130.7" y="0.0" type="line"/>
      <point x="1532.7" y="840.0" type="line"/>
      <point x="1325.7" y="722.0" type="line"/>
    </contour>
    <contour>
      <point x="941.7" y="0.0" type="line"/>
      <point x="1260.7" y="0.0" type="line"/>
      <point x="1260.7" y="1442.6" type="line"/>
      <point x="941.7" y="1442.6" type="line"/>
    </contour>
    <contour>
      <point x="1050.7" y="686.0" type="line"/>
      <point x="1571.7" y="686.0" type="line"/>
      <point x="1571.7" y="800.0" type="line"/>
      <point x="1050.7" y="800.0" type="line"/>
    </contour>
    <contour>
      <point x="1357.7" y="771.0" type="line"/>
      <point x="1534.7" y="705.0" type="line"/>
      <point x="2064.7" y="1442.6" type="line"/>
      <point x="1840.7" y="1442.6" type="line"/>
    </contour>
    <contour>
      <point x="375.7" y="0.0" type="line"/>
      <point x="876.7" y="722.0" type="line"/>
      <point x="669.7" y="840.0" type="line"/>
      <point x="71.7" y="0.0" type="line"/>
    </contour>
    <contour>
      <point x="1151.7" y="686.0" type="line"/>
      <point x="1151.7" y="800.0" type="line"/>
      <point x="630.7" y="800.0" type="line"/>
      <point x="630.7" y="686.0" type="line"/>
    </contour>
    <contour>
      <point x="844.7" y="771.0" type="line"/>
      <point x="361.7" y="1442.6" type="line"/>
      <point x="137.7" y="1442.6" type="line"/>
      <point x="667.7" y="705.0" type="line"/>
    </contour>
  </outline>
</glyph>
<glyph name="Ze-cy" format="2">
  <advance width="1387.5"/>
  <unicode hex="0417"/>
  <anchor x="694.1" y="0.0" name="bottom"/>
  <anchor x="694.1" y="1442.6" name="top"/>
  <outline>
    <contour>
      <point x="643.9" y="-24.5" type="curve" smooth="yes"/>
      <point x="1059.9" y="-24.5"/>
      <point x="1296.9" y="112.5"/>
      <point x="1296.9" y="394.5" type="curve" smooth="yes"/>
      <point x="1296.9" y="621.5"/>
      <point x="1174.8" y="709.9"/>
      <point x="905.3" y="782.7" type="curve"/>
      <point x="877.3000000000001" y="727.4" type="line"/>
      <point x="1108.7" y="778.0"/>
      <point x="1208.0" y="887.3"/>
      <point x="1208.0" y="1094.7" type="curve" smooth="yes"/>
      <point x="1208.0" y="1358.3"/>
      <point x="1023.1" y="1472.0"/>
      <point x="681.2" y="1472.0" type="curve" smooth="yes"/>
      <point x="417.1" y="1472.0"/>
      <point x="270.3" y="1392.1"/>
      <point x="183.4" y="1264.9" type="curve"/>
      <point x="401.4" y="1180.7" type="line"/>
      <point x="451.7" y="1277.4"/>
      <point x="543.2" y="1383.6"/>
      <point x="676.9" y="1383.6" type="curve" smooth="yes"/>
      <point x="806.1" y="1383.6"/>
      <point x="877.3" y="1286.3"/>
      <point x="877.3" y="1080.3" type="curve" smooth="yes"/>
      <point x="877.3" y="874.1"/>
      <point x="802.6" y="792.6"/>
      <point x="628.6" y="792.6" type="curve" smooth="yes"/>
      <point x="512.9" y="792.6" type="line"/>
      <point x="512.9" y="713.4" type="line"/>
      <point x="632.6" y="713.4" type="line" smooth="yes"/>
      <point x="843.2" y="713.4"/>
      <point x="934.0" y="631.2"/>
      <point x="934.0" y="400.5" type="curve" smooth="yes"/>
      <point x="934.0" y="173.0"/>
      <point x="820.5" y="61.900000000000006"/>
      <point x="650.2" y="61.900000000000006" type="curve" smooth="yes"/>
      <point x="484.1" y="61.900000000000006"/>
      <point x="355.4" y="192.0"/>
      <point x="348.4" y="322.2" type="curve"/>
      <point x="72.7" y="268.5" type="line"/>
      <point x="107.7" y="103.1"/>
      <point x="261.9" y="-24.5"/>
    </contour>
  </outline>
</glyph>
<glyph name="Ii-cy" format="2">
  <advance width="1567.7"/>
  <unicode hex="0418"/>
  <anchor x="783.7" y="15.0" name="bottom"/>
  <anchor x="1547.7" y="0.0" name="bottomright"/>
  <anchor x="784.0" y="1442.6" name="top"/>
  <outline>
    <contour>
      <point x="1397.8" y="0.0" type="line"/>
      <point x="1408.7" y="1442.6" type="line"/>
      <point x="1304.4" y="1442.6" type="line"/>
      <point x="203.8" y="353.2" type="line"/>
      <point x="306.1" y="179.8" type="line"/>
      <point x="306.1" y="1442.6" type="line"/>
      <point x="159.0" y="1442.6" type="line"/>
      <point x="159.0" y="0.0" type="line"/>
      <point x="262.0" y="0.0" type="line"/>
      <point x="1359.6" y="1079.9" type="line"/>
      <point x="1251.6" y="1205.0" type="line"/>
      <point x="1251.6" y="0.0" type="line"/>
    </contour>
  </outline>
</glyph>
<glyph name="Ka-cy" format="2">
  <advance width="1494.0"/>
  <unicode hex="041A"/>
  <anchor x="1582.5" y="0.0" name="bottomright"/>
  <anchor x="750.2" y="1442.6" name="top"/>
  <outline>
    <contour>
      <point x="158.3" y="0.0" type="line"/>
      <point x="502.6" y="0.0" type="line"/>
      <point x="502.6" y="1430.0" type="line"/>
      <point x="158.3" y="1430.0" type="line"/>
    </contour>
    <contour>
      <point x="647.6" y="654.0" type="line"/>
      <point x="1371.6" y="1430.0" type="line"/>
      <point x="1099.6" y="1430.0" type="line"/>
      <point x="424.6" y="703.0" type="line"/>
    </contour>
    <contour>
      <point x="1037.6" y="0.0" type="line"/>
      <point x="1421.6" y="0.0" type="line"/>
      <point x="729.6" y="739.0" type="line"/>
      <point x="362.6" y="722.0" type="line"/>
    </contour>
  </outline>
</glyph>
<glyph name="El-cy" format="2">
  <advance width="1653.2"/>
  <unicode hex="041B"/>
  <outline>
    <contour>
      <point x="524.9" y="1442.6" type="line"/>
      <point x="524.9" y="1106.7"/>
      <point x="510.4" y="869.4"/>
      <point x="478.2" y="670.0" type="curve" smooth="yes"/>
      <point x="412.5" y="241.4"/>
      <point x="291.8" y="203.0"/>
      <point x="153.9" y="203.0" type="curve" smooth="yes"/>
      <point x="94.9" y="203.0" type="line"/>
      <point x="94.9" y="0.0" type="line"/>
      <point x="169.9" y="0.0" type="line" smooth="yes"/>
      <point x="414.9" y="0.0"/>
      <point x="517.8" y="253.1"/>
      <point x="570.9" y="644.0" type="curve" smooth="yes"/>
      <point x="619.3" y="978.5"/>
      <point x="620.3" y="1209.3"/>
      <point x="619.2" y="1402.7" type="curve"/>
      <point x="547.2" y="1337.6" type="line"/>
      <point x="1307.0" y="1337.6" type="line"/>
      <point x="1150.6" y="1424.0" type="line"/>
      <point x="1150.6" y="0.0" type="line"/>
      <point x="1494.9" y="0.30000000000000004" type="line"/>
      <point x="1494.9" y="1442.6" type="line"/>
    </contour>
  </outline>
</glyph>
<glyph name="Pe-cy" format="2">
  <advance width="1570.6"/>
  <unicode hex="041F"/>
  <anchor x="1550.6" y="0.0" name="bottomright"/>
  <outline>
    <contour>
      <point x="159.0" y="0.0" type="line"/>
      <point x="500.0" y="0.0" type="line"/>
      <point x="500.0" y="1337.6" type="line"/>
      <point x="1070.6" y="1337.6" type="line"/>
      <point x="1070.6" y="0.0" type="line"/>
      <point x="1411.6" y="0.0" type="line"/>
      <point x="1411.6" y="1442.6" type="line"/>
      <point x="159.0" y="1442.6" type="line"/>
    </contour>
  </outline>
</glyph>
<glyph name="U-cy" format="2">
  <advance width="1228.5"/>
  <unicode hex="0423"/>
  <guideline x="878.6" y="946.9" angle="67.92280000000005"/>
  <anchor x="614.6" y="1442.6" name="top"/>
  <outline>
    <contour>
      <point x="251.7" y="0.0" type="line"/>
      <point x="309.7" y="0.0" type="line"/>
      <point x="529.2" y="0.0"/>
      <point x="587.4" y="44.5"/>
      <point x="701.2" y="322.6" type="curve" smooth="yes"/>
      <point x="1160.7" y="1437.0" type="line"/>
      <point x="990.7" y="1437.0" type="line"/>
      <point x="533.1" y="303.1" type="line" smooth="yes"/>
      <point x="494.8" y="207.6"/>
      <point x="437.7" y="120.0"/>
      <point x="310.7" y="120.0" type="curve" smooth="yes"/>
      <point x="251.7" y="120.0" type="line"/>
    </contour>
    <contour>
      <point x="587.8" y="377.1" type="line"/>
      <point x="747.7" y="771.0" type="line"/>
      <point x="427.70000000000005" y="1437.0" type="line"/>
      <point x="72.7" y="1437.0" type="line"/>
    </contour>
  </outline>
</glyph>
<glyph name="Ef-cy" format="2">
  <advance width="1716.2"/>
  <unicode hex="0424"/>
  <outline>
    <contour>
      <point x="768.6" y="176.0" type="curve"/>
      <point x="768.6" y="271.0" type="line"/>
      <point x="550.4" y="271.0"/>
      <point x="417.6" y="437.2"/>
      <point x="417.6" y="713.0" type="curve" smooth="yes"/>
      <point x="417.6" y="994.0"/>
      <point x="550.4" y="1166.0"/>
      <point x="768.6" y="1166.0" type="curve"/>
      <point x="768.6" y="1261.0" type="line"/>
      <point x="353.9" y="1261.0"/>
      <point x="90.6" y="1048.2"/>
      <point x="90.6" y="714.0" type="curve" smooth="yes"/>
      <point x="90.6" y="384.9"/>
      <point x="352.4" y="176.0"/>
    </contour>
    <contour>
      <point x="686.3" y="0.0" type="line"/>
      <point x="1029.9" y="0.0" type="line"/>
      <point x="1029.9" y="1437.0" type="line"/>
      <point x="686.3" y="1437.0" type="line"/>
    </contour>
    <contour>
      <point x="948.5999999999999" y="176.0" type="line"/>
      <point x="1364.1" y="176.0"/>
      <point x="1625.6" y="384.9"/>
      <point x="1625.6" y="714.0" type="curve" smooth="yes"/>
      <point x="1625.6" y="1048.2"/>
      <point x="1362.3" y="1261.0"/>
      <point x="948.5999999999999" y="1261.0" type="curve"/>
      <point x="948.5999999999999" y="1166.0" type="line"/>
      <point x="1168.8" y="1166.0"/>
      <point x="1302.6" y="994.0"/>
      <point x="1302.6" y="714.0" type="curve" smooth="yes"/>
      <point x="1302.6" y="438.2"/>
      <point x="1168.8" y="271.0"/>
      <point x="948.5999999999999" y="271.0" type="curve"/>
    </contour>
  </outline>
</glyph>
<glyph name="Che-cy" format="2">
  <advance width="1402.9"/>
  <unicode hex="0427"/>
  <anchor x="1464.9" y="0.0" name="bottomright"/>
  <anchor x="701.8" y="1442.6" name="top"/>
  <outline>
    <contour>
      <point x="900.7" y="0.0" type="line"/>
      <point x="1243.9" y="0.0" type="line"/>
      <point x="1243.9" y="1442.6" type="line"/>
      <point x="903.7" y="1442.6" type="line"/>
      <point x="903.7" y="987.0" type="line" smooth="yes"/>
      <point x="903.7" y="725.0"/>
      <point x="720.7" y="670.0"/>
      <point x="627.7" y="670.0" type="curve" smooth="yes"/>
      <point x="522.6" y="670.0"/>
      <point x="451.3" y="814.1"/>
      <point x="451.3" y="1011.0" type="curve" smooth="yes"/>
      <point x="451.3" y="1442.6" type="line"/>
      <point x="109.7" y="1442.6" type="line"/>
      <point x="109.7" y="918.0" type="line" smooth="yes"/>
      <point x="109.7" y="695.4"/>
      <point x="282.4" y="533.0"/>
      <point x="534.7" y="533.0" type="curve" smooth="yes"/>
      <point x="727.7" y="533.0"/>
      <point x="932.7" y="625.0"/>
      <point x="996.7" y="881.0" type="curve"/>
      <point x="904.7" y="1150.0" type="line"/>
    </contour>
  </outline>
</glyph>
<glyph name="Sha-cy" format="2">
  <advance width="1965.7"/>
  <unicode hex="0428"/>
  <outline>
    <contour>
      <point x="163.9" y="0.0" type="line"/>
      <point x="1801.8" y="0.0" type="line"/>
      <point x="1801.8" y="1442.6" type="line"/>
      <point x="1473.8" y="1442.6" type="line"/>
      <point x="1473.8" y="105.00000000000001" type="line"/>
      <point x="491.90000000000003" y="105.00000000000001" type="line"/>
      <point x="491.90000000000003" y="1442.6" type="line"/>
      <point x="163.9" y="1442.6" type="line"/>
    </contour>
    <contour>
      <point x="813.7" y="0.0" type="line"/>
      <point x="1152.0" y="0.0" type="line"/>
      <point x="1152.0" y="1442.6" type="line"/>
      <point x="813.7" y="1442.6" type="line"/>
    </contour>
  </outline>
</glyph>
<glyph name="Softsign-cy" format="2">
  <advance width="1313.1"/>
  <unicode hex="042C"/>
  <outline>
    <contour>
      <point x="175.0" y="0.0" type="line"/>
      <point x="661.2" y="-1.5" type="line" smooth="yes"/>
      <point x="840.6" y="-1.5"/>
      <point x="977.7" y="46.3"/>
      <point x="1079.9" y="132.6" type="curve" smooth="yes"/>
      <point x="1169.2" y="207.5"/>
      <point x="1223.2" y="328.3"/>
      <point x="1223.2" y="459.2" type="curve" smooth="yes"/>
      <point x="1223.2" y="555.8"/>
      <point x="1186.7" y="721.4"/>
      <point x="1053.3" y="816.6" type="curve" smooth="yes"/>
      <point x="963.7" y="880.5"/>
      <point x="853.2" y="921.3"/>
      <point x="694.1" y="921.3" type="curve" smooth="yes"/>
      <point x="357.5" y="922.5" type="line"/>
      <point x="516.0" y="885.1" type="line"/>
      <point x="516.0" y="1442.6" type="line"/>
      <point x="175.0" y="1442.6" type="line"/>
    </contour>
    <contour>
      <point x="516.0" y="18.0" type="line"/>
      <point x="516.0" y="894.8" type="line"/>
      <point x="437.20000000000005" y="819.6" type="line"/>
      <point x="654.6" y="820.2" type="line" smooth="yes"/>
      <point x="815.2" y="820.2"/>
      <point x="880.5" y="622.3"/>
      <point x="880.5" y="473.2" type="curve" smooth="yes"/>
      <point x="880.5" y="338.1"/>
      <point x="834.1" y="99.60000000000002"/>
      <point x="654.6" y="99.60000000000002" type="curve" smooth="yes"/>
      <point x="211.0" y="99.0" type="line"/>
    </contour>
  </outline>
</glyph>
